SplineFontDB: 3.0
FontName: AlMohanad
FullName: AlMohanad
FamilyName: AlMohanad
Weight: Book
Copyright: Typeface and data `2003-2007, Arabeyes.org. Latin glyphs are based on "Free UCS Outline Fonts", www.nongnu.org/freefont. This font is distributed under the terms of GPL license with font embedding exception.
Version: 1.9
ItalicAngle: 0
UnderlinePosition: -187
UnderlineWidth: 116
Ascent: 1368
Descent: 432
LayerCount: 2
Layer: 0 1 "Back"  1
Layer: 1 1 "Fore"  0
XUID: [1021 117 962472906 8703595]
FSType: 4
OS2Version: 1
OS2_WeightWidthSlopeOnly: 0
OS2_UseTypoMetrics: 1
CreationTime: 1053621204
ModificationTime: 1220187466
PfmFamily: 17
TTFWeight: 400
TTFWidth: 5
LineGap: 360
VLineGap: 0
Panose: 2 6 6 3 5 6 5 2 2 4
OS2TypoAscent: 0
OS2TypoAOffset: 1
OS2TypoDescent: 0
OS2TypoDOffset: 1
OS2TypoLinegap: 0
OS2WinAscent: 0
OS2WinAOffset: 1
OS2WinDescent: 2
OS2WinDOffset: 1
HheadAscent: 0
HheadAOffset: 1
HheadDescent: -2
HheadDOffset: 1
OS2SubXSize: 1187
OS2SubYSize: 1079
OS2SubXOff: 0
OS2SubYOff: -392
OS2SupXSize: 1187
OS2SupYSize: 1079
OS2SupXOff: 0
OS2SupYOff: 523
OS2StrikeYSize: 117
OS2StrikeYPos: 540
OS2FamilyClass: 2
OS2Vendor: 'PYRS'
Lookup: 4 1 1 "'liga' Ligatures without tashkil"  {"'liga' Ligatures without tashkil"  } ['liga' ('arab' <'dflt' > ) ]
Lookup: 1 1 0 "'init' Initial Forms in Arabic lookup 2"  {"'init' Initial Forms in Arabic lookup 2"  } ['init' ('arab' <'dflt' > ) ]
Lookup: 1 1 0 "'medi' Medial Forms in Arabic lookup 3"  {"'medi' Medial Forms in Arabic lookup 3"  } ['medi' ('arab' <'dflt' > ) ]
Lookup: 1 1 0 "'fina' Terminal Forms in Arabic lookup 4"  {"'fina' Terminal Forms in Arabic lookup 4"  } ['fina' ('arab' <'dflt' > ) ]
Lookup: 4 9 1 "'liga' Ligatures with tashkil"  {"'liga' Ligatures with taskhil"  } ['liga' ('arab' <'dflt' > ) ]
Lookup: 4 1 1 "'liga' Taskhil Ligatures"  {"'liga' Tashkil Ligatures"  } ['liga' ('arab' <'dflt' > ) ]

StartChar: arabiccomma
Encoding: 1548 1548 1
Width: 351
GlyphClass: 2
Flags: MW
LayerCount: 2
Fore
SplineSet
243 134 m 1,0,1
 228 63 228 63 220 50 c 0,2,3
 197 0 197 0 148.5 0 c 256,4,5
 100 0 100 0 62 37 c 0,6,7
 28 75 28 75 28 134 c 0,8,9
 28 161 28 161 96 320.5 c 256,10,11
 164 480 164 480 215 480 c 1,12,-1
 198 413 l 1,13,14
 109 240 109 240 108 228 c 0,15,16
 108 200 108 200 146 168 c 1,17,-1
 187 148 l 1,18,-1
 243 134 l 1,0,1
EndSplineSet
EndChar

StartChar: arabicsemicolon
Encoding: 1563 1563 2
Width: 443
GlyphClass: 2
Flags: MW
LayerCount: 2
Fore
SplineSet
121 307 m 0,0,1
 21 307 21 307 21 413 c 0,2,3
 21 467 21 467 89 580 c 128,-1,4
 157 693 157 693 178 693 c 1,5,-1
 145 605 l 2,6,7
 103 512 103 512 94 485 c 1,8,9
 94 468 94 468 131 437 c 1,10,11
 171 413 171 413 200 413 c 1,12,13
 200 371 200 371 174 332 c 0,14,15
 154 307 154 307 121 307 c 0,0,1
230 98 m 1,16,-1
 155 0 l 1,17,-1
 21 96 l 1,18,-1
 96 200 l 1,19,-1
 230 98 l 1,16,-1
EndSplineSet
EndChar

StartChar: arabicquestionmark
Encoding: 1567 1567 3
Width: 612
GlyphClass: 2
Flags: MW
LayerCount: 2
Fore
SplineSet
525 686 m 2,0,-1
 525 655 l 2,1,2
 525 646 525 646 523 641 c 1,3,-1
 514 595 l 2,4,5
 506 541 506 541 483 504 c 1,6,-1
 475 548 l 2,7,8
 472 570 472 570 460 585 c 0,9,10
 433 622 433 622 345 663 c 0,11,12
 292 683 292 683 234 695 c 1,13,14
 220 695 220 695 199 648 c 2,15,-1
 187 608 l 1,16,-1
 184 578 l 1,17,18
 192 555 192 555 229 535 c 2,19,-1
 259 522 l 1,20,-1
 281 518 l 1,21,-1
 339 495 l 1,22,-1
 379 476 l 2,23,24
 477 430.92 477 430.92 477 376.96 c 128,-1,25
 477 323 477 323 454 249.5 c 128,-1,26
 431 176 431 176 418 154 c 1,27,-1
 473 108 l 1,28,-1
 364 -31 l 1,29,30
 361 -25 361 -25 309 16 c 128,-1,31
 257 57 257 57 224 76 c 1,32,-1
 323 217 l 1,33,-1
 373 177 l 1,34,35
 386 186 386 186 396 208 c 2,36,-1
 404 228 l 1,37,-1
 411 250 l 1,38,39
 411 266 411 266 379 294 c 0,40,41
 339 323 339 323 261.5 342.5 c 128,-1,42
 184 362 184 362 159 374 c 0,43,44
 88 400 88 400 88 441 c 0,45,46
 88 550 88 550 148.5 705 c 128,-1,47
 209 860 209 860 258 860 c 0,48,49
 297 860 297 860 411 799 c 128,-1,50
 525 738 525 738 525 686 c 2,0,-1
EndSplineSet
EndChar

StartChar: hamza
Encoding: 1569 1569 4
Width: 705
GlyphClass: 2
Flags: MW
AnchorPoint: "ArabicBelow" 336 -132 basechar 0
AnchorPoint: "ArabicAbove" 300 540 basechar 0
LayerCount: 2
Fore
SplineSet
618 170 m 1,0,-1
 528 34 l 1,1,2
 468 34 468 34 420 24 c 2,3,-1
 366 8 l 1,4,-1
 320 -4 l 2,5,6
 301 -8 301 -8 163 -94 c 2,7,-1
 132 -109 l 1,8,-1
 105 -124 l 1,9,10
 105 -95 105 -95 147 -43 c 0,11,12
 181 -4 181 -4 248 35 c 2,13,-1
 268 46 l 1,14,15
 171 58 171 58 159 63 c 0,16,17
 88 83 88 83 88 128 c 0,18,19
 88 229 88 229 176 339.5 c 128,-1,20
 264 450 264 450 410 450 c 0,21,22
 442 450 442 450 476 424 c 0,23,24
 512 391 512 391 512 354 c 1,25,-1
 438 250 l 1,26,-1
 403 278 l 2,27,28
 362.051 303.593 362.051 303.593 314 310 c 0,29,30
 280.5 310 280.5 310 246 289 c 0,31,32
 207 272 207 272 207 240 c 128,-1,33
 207 208 207 208 318 189 c 2,34,-1
 448 175 l 1,35,-1
 529 172 l 1,36,-1
 618 170 l 1,0,-1
EndSplineSet
EndChar

StartChar: alefwithmaddaabove
Encoding: 1570 1570 5
Width: 551
GlyphClass: 2
Flags: MW
AnchorPoint: "ArabicBelow" 240 -156 basechar 0
AnchorPoint: "ArabicAbove" 228 1068 basechar 0
LayerCount: 2
Fore
SplineSet
156 841 m 1,0,1
 119.879 768.757 119.879 768.757 91.5676 768.757 c 2,2,-1
 88 769 l 1,3,-1
 134 866 l 1,4,-1
 160 911 l 1,5,6
 181 898 181 898 214 884 c 2,7,-1
 258 870 l 2,8,9
 279 865 279 865 307.5 865 c 128,-1,10
 336 865 336 865 391.5 893 c 128,-1,11
 447 921 447 921 464 921 c 1,12,-1
 410 857 l 1,13,14
 336 802 336 802 292 802 c 128,-1,15
 248 802 248 802 216 810 c 2,16,-1
 188 821 l 1,17,-1
 156 841 l 1,0,1
310 267 m 2,18,19
 310 75.7895 310 75.7895 221 -46 c 1,20,-1
 156 546 l 2,21,22
 156 565 156 565 221 672 c 2,23,-1
 272 760 l 1,24,25
 277 728 277 728 296 556 c 2,26,-1
 307 413 l 1,27,-1
 310 267 l 2,18,19
EndSplineSet
Substitution2: "'fina' Terminal Forms in Arabic lookup 4" alefwithmaddaabovefinal
EndChar

StartChar: alefwithhamzaabove
Encoding: 1571 1571 6
Width: 445
GlyphClass: 2
Flags: MW
AnchorPoint: "ArabicBelow" 252 -156 basechar 0
AnchorPoint: "ArabicAbove" 180 1056 basechar 0
LayerCount: 2
Fore
SplineSet
187 787 m 1,0,-1
 162 787 l 1,1,-1
 150 788 l 1,2,-1
 136 792 l 1,3,-1
 119 798 l 2,4,5
 88 810 88 810 88 828 c 0,6,7
 88 873 88 873 134 928 c 128,-1,8
 180 983 180 983 242 983 c 0,9,10
 258 983 258 983 260 981 c 1,11,12
 277.673 971.324 277.673 971.324 284 946 c 1,13,14
 279.574 925.272 279.574 925.272 261 896 c 1,15,16
 245 926 245 926 209 926 c 2,17,-1
 188 925 l 2,18,19
 158.429 925 158.429 925 131 893 c 1,20,-1
 130 884 l 2,21,22
 130 872 130 872 142 863 c 1,23,24
 161 855 161 855 187 850 c 1,25,-1
 208 850 l 2,26,27
 225 850 225 850 227 848 c 1,28,-1
 342 848 l 1,29,-1
 358 850 l 1,30,-1
 327 788 l 1,31,-1
 274 782 l 2,32,33
 253 782 253 782 224 769 c 2,34,-1
 198 756 l 1,35,-1
 135 713 l 1,36,-1
 119 705 l 1,37,38
 116 708 116 708 116 717 c 128,-1,39
 116 726 116 726 142 750 c 2,40,-1
 187 787 l 1,0,-1
309 254 m 2,41,42
 309 139 309 139 284.5 68 c 128,-1,43
 260 -3 260 -3 220 -61 c 1,44,-1
 144 535 l 1,45,-1
 155 565 l 1,46,-1
 188 630 l 1,47,-1
 261 750 l 1,48,-1
 290 543 l 1,49,-1
 304 397 l 1,50,-1
 307 323 l 1,51,-1
 309 254 l 2,41,42
EndSplineSet
Substitution2: "'fina' Terminal Forms in Arabic lookup 4" alefwithhamzaabovefinal
EndChar

StartChar: wawwithhamzaabove
Encoding: 1572 1572 7
Width: 805
GlyphClass: 2
Flags: MW
AnchorPoint: "ArabicBelow" 512 -444 basechar 0
AnchorPoint: "ArabicAbove" 392 996 basechar 0
LayerCount: 2
Fore
SplineSet
455 737 m 1,0,1
 433.824 773 433.824 773 379 773 c 0,2,3
 367 773 367 773 322 750 c 1,4,5
 306 737 306 737 300 726 c 1,6,7
 300 705 300 705 335 692 c 0,8,9
 383 680 383 680 477 680 c 2,10,-1
 566 680 l 1,11,-1
 555 661 l 1,12,-1
 527 621 l 1,13,-1
 518 606 l 1,14,15
 453 606 453 606 381 576 c 2,16,-1
 271 513 l 1,17,18
 268.673 514.745 268.673 514.745 268.673 520.872 c 128,-1,19
 268.673 527 268.673 527 285.336 550.5 c 128,-1,20
 302 574 302 574 361 604 c 1,21,-1
 306 620 l 2,22,23
 252 633 252 633 252 656 c 0,24,25
 252 716.577 252 716.577 299 769 c 0,26,27
 357 843 357 843 435 843 c 0,28,29
 460 843 460 843 471 832 c 128,-1,30
 482 821 482 821 489 789 c 1,31,-1
 476 772 l 1,32,-1
 455 737 l 1,0,1
641 113 m 2,33,-1
 641 130 l 1,34,-1
 640 136 l 1,35,-1
 634 161 l 1,36,37
 634 170 634 170 625 193 c 1,38,-1
 616 167 l 2,39,40
 584 102 584 102 568 76 c 0,41,42
 532 24 532 24 435 24 c 0,43,44
 374 24 374 24 336 74 c 0,45,46
 323 95 323 95 317 120 c 2,47,-1
 313 147 l 1,48,-1
 311 180 l 1,49,-1
 312 215 l 2,50,51
 312 273 312 273 375.5 366 c 128,-1,52
 439 459 439 459 476 490 c 128,-1,53
 513 521 513 521 546 521 c 0,54,55
 593 521 593 521 656 413 c 0,56,57
 718 301.828 718 301.828 718 204.914 c 0,58,59
 718 4.97619 718 4.97619 635 -163 c 0,60,61
 540 -370 540 -370 405 -370 c 0,62,63
 305.435 -370 305.435 -370 163 -328 c 0,64,65
 0 -287 0 -287 0 -266.5 c 128,-1,66
 0 -246 0 -246 25 -246 c 2,67,-1
 50 -249 l 1,68,-1
 137 -267 l 1,69,-1
 180 -274 l 1,70,-1
 222 -278 l 2,71,72
 308 -278 308 -278 424 -192 c 0,73,74
 549.746 -98.7745 549.746 -98.7745 612 15 c 0,75,76
 641 68 641 68 641 113 c 2,33,-1
572 222 m 1,77,-1
 572 232 l 2,78,79
 572 274 572 274 542 303.5 c 128,-1,80
 512 333 512 333 480 333 c 128,-1,81
 448 333 448 333 415.5 310 c 0,82,83
 379.944 286.657 379.944 286.657 373 250 c 1,84,-1
 377 243 l 1,85,-1
 401 225 l 1,86,-1
 424 211 l 1,87,-1
 452 204 l 2,88,89
 474 200 474 200 489 200 c 2,90,-1
 505 200 l 2,91,92
 535 200 535 200 563 221 c 1,93,-1
 572 222 l 1,77,-1
EndSplineSet
Substitution2: "'fina' Terminal Forms in Arabic lookup 4" wawwithhamzaabovefinal
EndChar

StartChar: alefwithhamzabelow
Encoding: 1573 1573 8
Width: 445
GlyphClass: 2
Flags: MW
AnchorPoint: "ArabicBelow" 228 -372 basechar 0
AnchorPoint: "ArabicAbove" 228 1020 basechar 0
LayerCount: 2
Fore
SplineSet
340 282 m 2,0,1
 340 92.1579 340 92.1579 250 -31 c 1,2,-1
 171 668 l 2,3,4
 171 676 171 676 181 700 c 2,5,-1
 199 735 l 1,6,-1
 288 882 l 1,7,-1
 321 611 l 1,8,-1
 335 429 l 1,9,-1
 337 349 l 1,10,-1
 340 282 l 2,0,1
358 -191 m 1,11,-1
 327 -250 l 1,12,-1
 275 -255 l 2,13,14
 233 -260 233 -260 171 -301 c 2,15,-1
 115 -337 l 1,16,17
 113.667 -334.333 113.667 -334.333 113.667 -324.5 c 128,-1,18
 113.667 -314.667 113.667 -314.667 147 -283 c 2,19,-1
 188 -250 l 1,20,-1
 154 -247 l 1,21,-1
 137 -243 l 1,22,-1
 119 -237 l 2,23,24
 88 -230 88 -230 88 -214 c 0,25,26
 88 -174 88 -174 130 -117 c 0,27,28
 179 -56 179 -56 243 -56 c 0,29,30
 274.667 -56 274.667 -56 284 -91 c 1,31,32
 276.748 -122.252 276.748 -122.252 260 -139 c 1,33,34
 244 -108 244 -108 210.5 -108 c 0,35,36
 149.952 -108 149.952 -108 129 -148 c 1,37,-1
 127 -156 l 1,38,39
 127 -172 127 -172 160 -181 c 2,40,-1
 207 -188 l 1,41,-1
 278 -191 l 1,42,-1
 358 -191 l 1,11,-1
EndSplineSet
Substitution2: "'fina' Terminal Forms in Arabic lookup 4" alefwithhamzabelowfinal
EndChar

StartChar: yehwithhamzaabove
Encoding: 1574 1574 9
Width: 1084
GlyphClass: 2
Flags: MW
AnchorPoint: "ArabicBelow" 600 -384 basechar 0
AnchorPoint: "ArabicAbove" 276 912 basechar 0
LayerCount: 2
Fore
SplineSet
377 722 m 1,0,1
 358.905 760 358.905 760 299 760 c 0,2,3
 292 760 292 760 250 742 c 0,4,5
 221 726 221 726 218 711 c 1,6,7
 218 668 218 668 355 650 c 2,8,-1
 424 647 l 1,9,-1
 494 645 l 1,10,-1
 483 626 l 1,11,-1
 446 571 l 1,12,13
 361 571 361 571 255 507 c 2,14,-1
 170 456 l 1,15,16
 170 464 170 464 183 485 c 0,17,18
 217 538 217 538 281 567 c 1,19,-1
 233 581 l 2,20,21
 163 599 163 599 163 637 c 2,22,-1
 166 664 l 1,23,-1
 170 679 l 2,24,25
 179.896 709.13 179.896 709.13 215 755 c 0,26,27
 278 833 278 833 357 833 c 2,28,-1
 376 831 l 1,29,30
 407 820 407 820 407 779 c 1,31,-1
 377 722 l 1,0,1
997 531 m 1,32,-1
 978 444 l 2,33,34
 975 422 975 422 960 379 c 2,35,-1
 953 354 l 2,36,37
 943 328 943 328 938 328 c 1,38,-1
 938 338 l 2,39,40
 938 343 938 343 936 348 c 1,41,-1
 929 379 l 2,42,43
 916 431 916 431 848.5 431 c 128,-1,44
 781 431 781 431 691.5 362 c 128,-1,45
 602 293 602 293 602 246 c 0,46,47
 602 207 602 207 756.5 187 c 128,-1,48
 911 167 911 167 911 94 c 1,49,50
 901 35 901 35 879 -18 c 2,51,-1
 846 -98 l 1,52,53
 696.048 -234.003 696.048 -234.003 533 -276 c 2,54,-1
 468 -289 l 2,55,56
 431.75 -294 431.75 -294 405 -294 c 0,57,58
 283 -294 283 -294 219.5 -269 c 0,59,60
 88 -217.228 88 -217.228 88 -65 c 0,61,62
 88 61 88 61 130 196.5 c 128,-1,63
 172 332 172 332 193 332 c 0,64,65
 207 332 207 332 207 313 c 128,-1,66
 207 294 207 294 172 163 c 2,67,-1
 159 103 l 1,68,-1
 155 59 l 2,69,70
 155 -18 155 -18 250 -68 c 0,71,72
 342 -111 342 -111 438 -111 c 1,73,-1
 653 -76 l 2,74,75
 751 -52 751 -52 805 -18 c 1,76,77
 805 4 805 4 659 19.5 c 128,-1,78
 513 35 513 35 513 118 c 0,79,80
 513 236 513 236 633.5 418 c 128,-1,81
 754 600 754 600 901 600 c 0,82,83
 949 600 949 600 973 585.5 c 128,-1,84
 997 571 997 571 997 531 c 1,32,-1
EndSplineSet
Substitution2: "'fina' Terminal Forms in Arabic lookup 4" yehwithhamzaabovefinal
Substitution2: "'medi' Medial Forms in Arabic lookup 3" yehwithhamzaabovemedial
Substitution2: "'init' Initial Forms in Arabic lookup 2" yehwithhamzaaboveinitial
EndChar

StartChar: arabicalef
Encoding: 1575 1575 10
Width: 345
GlyphClass: 2
Flags: MW
AnchorPoint: "ArabicBelow" 180 -168 basechar 0
AnchorPoint: "ArabicAbove" 144 936 basechar 0
LayerCount: 2
Fore
SplineSet
231 698 m 2,0,1
 258 437 258 437 258 294.5 c 128,-1,2
 258 152 258 152 232.5 79 c 128,-1,3
 207 6 207 6 168 -46 c 1,4,-1
 88 654 l 2,5,6
 88 664 88 664 135 748 c 2,7,-1
 210 867 l 1,8,-1
 231 698 l 2,0,1
EndSplineSet
Substitution2: "'fina' Terminal Forms in Arabic lookup 4" aleffinal
EndChar

StartChar: beh
Encoding: 1576 1576 11
Width: 1143
GlyphClass: 2
Flags: MW
AnchorPoint: "ArabicBelow" 612 -516 basechar 0
AnchorPoint: "ArabicAbove" 552 600 basechar 0
LayerCount: 2
Fore
SplineSet
1056 328 m 2,0,-1
 1056 292 l 1,1,-1
 1054 277 l 2,2,3
 1054 258 1054 258 1050 241 c 2,4,-1
 1044 214 l 1,5,-1
 1043 198 l 2,6,7
 1043 192 1043 192 1036 178 c 2,8,-1
 1012 120 l 2,9,10
 976 13 976 13 961 0 c 1,11,-1
 300 0 l 1,12,-1
 259 3 l 2,13,14
 251 3 251 3 242 6 c 2,15,-1
 222 12 l 2,16,17
 192 23 192 23 153 52 c 0,18,19
 88 105 88 105 88 184 c 128,-1,20
 88 263 88 263 123.5 387.5 c 128,-1,21
 159 512 159 512 190 512 c 1,22,-1
 197 494 l 1,23,-1
 196 476 l 1,24,-1
 191 446 l 2,25,26
 178 367 178 367 178 333 c 2,27,-1
 178 308 l 1,28,-1
 180 287 l 1,29,-1
 185 272 l 1,30,-1
 199 254 l 2,31,32
 258 180 258 180 367 180 c 2,33,-1
 936 180 l 1,34,35
 947 190 947 190 947 206.5 c 128,-1,36
 947 223 947 223 946 225 c 2,37,-1
 940 243 l 1,38,39
 938 264 938 264 927 283 c 2,40,41
 922 307 922 307 899 333 c 2,42,-1
 874 370 l 1,43,-1
 966 531 l 1,44,-1
 1020 446 l 2,45,46
 1056 377.789 1056 377.789 1056 328 c 2,0,-1
731 -279 m 1,47,48
 731 -286 731 -286 678 -329 c 2,49,-1
 636 -359 l 2,50,51
 623 -369 623 -369 614.5 -369.5 c 128,-1,52
 606 -370 606 -370 553 -328 c 2,53,-1
 523 -303 l 2,54,55
 504 -287 504 -287 503 -279.5 c 128,-1,56
 502 -272 502 -272 551 -224.5 c 128,-1,57
 600 -177 600 -177 616 -174 c 1,58,-1
 654 -202 l 1,59,-1
 677 -221 l 2,60,61
 722 -265 722 -265 731 -279 c 1,47,48
EndSplineSet
Substitution2: "'fina' Terminal Forms in Arabic lookup 4" behfinal
Substitution2: "'medi' Medial Forms in Arabic lookup 3" behmedial
Substitution2: "'init' Initial Forms in Arabic lookup 2" behinitial
EndChar

StartChar: tehmarbuta
Encoding: 1577 1577 12
Width: 665
GlyphClass: 2
Flags: MW
AnchorPoint: "ArabicBelow" 324 -156 basechar 0
AnchorPoint: "ArabicAbove" 300 996 basechar 0
LayerCount: 2
Fore
SplineSet
548 788 m 1,0,-1
 526 757 l 1,1,-1
 494 722 l 2,2,3
 464 689 464 689 449 680 c 1,4,-1
 311 752 l 1,5,-1
 242 682 l 1,6,7
 210 689 210 689 161.5 715.5 c 128,-1,8
 113 742 113 742 105 757 c 1,9,-1
 172 829 l 1,10,-1
 203 859 l 1,11,-1
 266 816 l 2,12,13
 313 789 313 789 327 789 c 1,14,-1
 338 797 l 1,15,-1
 366 822 l 2,16,17
 390 846 390 846 411 860 c 1,18,-1
 548 788 l 1,0,-1
575 261 m 1,19,-1
 531 130 l 2,20,21
 512 80 512 80 482 54 c 0,22,23
 475 48 475 48 388 11 c 2,24,-1
 323 -9 l 1,25,-1
 303 -12 l 1,26,-1
 284 -16 l 1,27,28
 192 -16 192 -16 163 -6 c 0,29,30
 88 14 88 14 88 84 c 128,-1,31
 88 154 88 154 153 270 c 2,32,-1
 229 391 l 2,33,34
 286.658 494.386 286.658 494.386 355 567 c 1,35,-1
 475 467 l 1,36,-1
 523 424 l 1,37,-1
 547 396 l 1,38,-1
 564 361 l 2,39,40
 577 330 577 330 577 296 c 2,41,-1
 577 286 l 1,42,-1
 575 261 l 1,19,-1
490 177 m 1,43,44
 490 214 490 214 410.5 301 c 128,-1,45
 331 388 331 388 314 388 c 1,46,-1
 258 310 l 2,47,48
 219 254 219 254 214 232 c 1,49,50
 214 191 214 191 238 174.5 c 128,-1,51
 262 158 262 158 320 158 c 128,-1,52
 378 158 378 158 427 167 c 2,53,-1
 490 177 l 1,43,44
EndSplineSet
Substitution2: "'fina' Terminal Forms in Arabic lookup 4" tehmarbutafinal
EndChar

StartChar: teh
Encoding: 1578 1578 13
Width: 1143
GlyphClass: 2
Flags: MW
AnchorPoint: "ArabicBelow" 576 -180 basechar 0
AnchorPoint: "ArabicAbove" 528 888 basechar 0
LayerCount: 2
Fore
SplineSet
791 732 m 1,0,-1
 737 670 l 1,1,-1
 697 631 l 1,2,3
 690 631 690 631 630 664 c 2,4,-1
 566 700 l 1,5,-1
 533 668 l 2,6,7
 502 642 502 642 501 635 c 1,8,9
 475 640 475 640 433 662.5 c 128,-1,10
 391 685 391 685 369 704 c 1,11,-1
 400 738 l 2,12,13
 417 758 417 758 433 772 c 2,14,-1
 465 802 l 1,15,16
 474 791 474 791 522.5 764 c 128,-1,17
 571 737 571 737 579.5 737 c 128,-1,18
 588 737 588 737 611.5 759.5 c 2,19,-1
 644.5 790.5 l 2,20,21
 654 799 654 799 660 802 c 1,22,-1
 791 732 l 1,0,-1
1056 328 m 2,23,-1
 1056 292 l 1,24,-1
 1054 277 l 2,25,26
 1054 258 1054 258 1050 241 c 2,27,-1
 1044 214 l 1,28,-1
 1043 198 l 2,29,30
 1043 192 1043 192 1036 178 c 2,31,-1
 1012 120 l 2,32,33
 976 13 976 13 961 0 c 1,34,-1
 300 0 l 1,35,-1
 259 3 l 2,36,37
 251 3 251 3 242 6 c 2,38,-1
 222 12 l 2,39,40
 192 23 192 23 153 52 c 0,41,42
 88 105 88 105 88 184 c 128,-1,43
 88 263 88 263 123.5 387.5 c 128,-1,44
 159 512 159 512 190 512 c 1,45,-1
 197 494 l 1,46,-1
 196 471 l 1,47,-1
 191 447 l 2,48,49
 178 367 178 367 178 333 c 2,50,-1
 178 308 l 1,51,-1
 180 287 l 1,52,-1
 185 272 l 1,53,-1
 199 254 l 2,54,55
 258 180 258 180 367 180 c 2,56,-1
 936 180 l 1,57,58
 947 190 947 190 947 206.5 c 128,-1,59
 947 223 947 223 946 225 c 2,60,-1
 940 243 l 1,61,62
 938 264 938 264 927 283 c 2,63,64
 922 307 922 307 899 333 c 2,65,-1
 874 370 l 1,66,-1
 966 531 l 1,67,-1
 1020 446 l 2,68,69
 1056 377.789 1056 377.789 1056 328 c 2,23,-1
EndSplineSet
Substitution2: "'fina' Terminal Forms in Arabic lookup 4" tehfinal
Substitution2: "'medi' Medial Forms in Arabic lookup 3" tehmedial
Substitution2: "'init' Initial Forms in Arabic lookup 2" tehinitial
EndChar

StartChar: theh
Encoding: 1579 1579 14
Width: 1143
GlyphClass: 2
Flags: MW
AnchorPoint: "ArabicBelow" 564 -216 basechar 0
AnchorPoint: "ArabicAbove" 540 948 basechar 0
LayerCount: 2
Fore
SplineSet
654 737 m 1,0,1
 654 729 654 729 624.5 705.5 c 128,-1,2
 595 682 595 682 569 672 c 1,3,4
 560 672 560 672 519 700 c 2,5,-1
 490 722 l 2,6,7
 479 731 479 731 477 735 c 1,8,-1
 517 780 l 1,9,-1
 546 806 l 1,10,-1
 562 817 l 1,11,12
 644.714 759.286 644.714 759.286 654 737 c 1,0,1
766 567 m 1,13,14
 763 561 763 561 751 545.5 c 2,15,-1
 719 504 l 2,16,17
 693 475 693 475 682 469 c 1,18,-1
 583 522 l 1,19,-1
 562 535 l 1,20,-1
 549 519 l 1,21,-1
 506 469 l 1,22,-1
 475 482 l 1,23,-1
 438 503 l 2,24,25
 403 522 403 522 387 540 c 1,26,-1
 446 608 l 1,27,-1
 475 636 l 1,28,29
 476 631 476 631 525 598 c 0,30,31
 562 577 562 577 579 574 c 1,32,-1
 585 578 l 1,33,-1
 651 641 l 1,34,-1
 766 567 l 1,13,14
1056 328 m 2,35,-1
 1056 292 l 1,36,-1
 1054 277 l 2,37,38
 1054 258 1054 258 1050 241 c 2,39,-1
 1044 214 l 1,40,-1
 1043 198 l 2,41,42
 1043 192 1043 192 1036 178 c 2,43,-1
 1012 120 l 2,44,45
 976 13 976 13 961 0 c 1,46,-1
 300 0 l 1,47,-1
 259 3 l 2,48,49
 251 3 251 3 242 6 c 2,50,-1
 222 12 l 2,51,52
 192 23 192 23 153 52 c 0,53,54
 88 105 88 105 88 184 c 128,-1,55
 88 263 88 263 123.5 387.5 c 128,-1,56
 159 512 159 512 190 512 c 1,57,-1
 197 494 l 1,58,-1
 196 471 l 1,59,-1
 191 447 l 2,60,61
 178 367 178 367 178 333 c 2,62,-1
 178 308 l 1,63,-1
 180 287 l 1,64,-1
 185 272 l 1,65,-1
 199 254 l 2,66,67
 258 180 258 180 367 180 c 2,68,-1
 936 180 l 1,69,70
 947 190 947 190 947 206.5 c 128,-1,71
 947 223 947 223 946 225 c 2,72,-1
 940 243 l 1,73,74
 938 264 938 264 927 283 c 2,75,76
 922 307 922 307 899 333 c 2,77,-1
 874 370 l 1,78,-1
 966 531 l 1,79,-1
 1020 446 l 2,80,81
 1056 377.789 1056 377.789 1056 328 c 2,35,-1
EndSplineSet
Substitution2: "'fina' Terminal Forms in Arabic lookup 4" thehfinal
Substitution2: "'medi' Medial Forms in Arabic lookup 3" thehmedial
Substitution2: "'init' Initial Forms in Arabic lookup 2" thehinitial
EndChar

StartChar: jeem
Encoding: 1580 1580 15
Width: 986
GlyphClass: 2
Flags: MW
AnchorPoint: "ArabicBelow" 540 -708 basechar 0
AnchorPoint: "ArabicAbove" 468 636 basechar 0
LayerCount: 2
Fore
SplineSet
898 -441 m 1,0,1
 859 -490 859 -490 769 -535.5 c 128,-1,2
 679 -581 679 -581 507 -581 c 128,-1,3
 335 -581 335 -581 224 -487 c 128,-1,4
 113 -393 113 -393 113 -250 c 0,5,6
 113 -60.4444 113 -60.4444 181 68 c 0,7,8
 239 188 239 188 361 300 c 1,9,10
 337 308 337 308 301 316 c 2,11,-1
 260 321 l 1,12,-1
 212 322 l 2,13,14
 174 322 174 322 146.5 298.5 c 128,-1,15
 119 275 119 275 88 272 c 1,16,-1
 120 383 l 1,17,18
 173 496 173 496 249 496 c 2,19,-1
 288 496 l 1,20,-1
 314 492 l 1,21,22
 328 492 328 492 345 489 c 2,23,-1
 444 468 l 1,24,-1
 527 453 l 1,25,-1
 584 446 l 1,26,-1
 624 444 l 1,27,-1
 816 444 l 1,28,-1
 777 361 l 1,29,-1
 744 282 l 1,30,-1
 722 281 l 1,31,-1
 706 280 l 2,32,33
 689.923 280 689.923 280 611 261 c 0,34,35
 570 256 570 256 522 243 c 2,36,-1
 484 231 l 1,37,-1
 446 217 l 2,38,39
 339.785 174.514 339.785 174.514 270 68 c 0,40,41
 194 -44 194 -44 194 -143.5 c 128,-1,42
 194 -243 194 -243 287 -323 c 0,43,44
 357 -379 357 -379 501 -415 c 2,45,-1
 577 -429 l 1,46,-1
 619 -433 l 1,47,-1
 661 -435 l 1,48,-1
 826 -441 l 1,49,-1
 898 -441 l 1,0,1
642 -117 m 1,50,51
 642 -126 642 -126 592 -183 c 2,52,-1
 568 -212 l 1,53,-1
 548 -232 l 1,54,-1
 435 -142 l 1,55,-1
 470 -87 l 2,56,57
 504 -40 504 -40 523 -35 c 1,58,-1
 583 -74 l 2,59,60
 638 -111 638 -111 642 -117 c 1,50,51
EndSplineSet
Substitution2: "'fina' Terminal Forms in Arabic lookup 4" jeemfinal
Substitution2: "'medi' Medial Forms in Arabic lookup 3" jeemmedial
Substitution2: "'init' Initial Forms in Arabic lookup 2" jeeminitial
EndChar

StartChar: hah
Encoding: 1581 1581 16
Width: 2112
GlyphClass: 2
Flags: MW
AnchorPoint: "ArabicBelow" 1678 -708 basechar 0
AnchorPoint: "ArabicAbove" 1594 624 basechar 0
LayerCount: 2
Fore
SplineSet
2024 -441 m 1,0,1
 1985 -490 1985 -490 1895 -535.5 c 128,-1,2
 1805 -581 1805 -581 1633 -581 c 128,-1,3
 1461 -581 1461 -581 1350 -487 c 128,-1,4
 1239 -393 1239 -393 1239 -250 c 0,5,6
 1239 -60.4444 1239 -60.4444 1307 68 c 0,7,8
 1365 188 1365 188 1487 300 c 1,9,10
 1463 308 1463 308 1427 316 c 2,11,-1
 1386 321 l 1,12,-1
 1338 322 l 2,13,14
 1300 322 1300 322 1272.5 298.5 c 128,-1,15
 1245 275 1245 275 1214 272 c 1,16,-1
 1246 383 l 1,17,18
 1299 496 1299 496 1375 496 c 2,19,-1
 1414 496 l 1,20,-1
 1440 492 l 1,21,22
 1454 492 1454 492 1471 489 c 2,23,-1
 1570 468 l 1,24,-1
 1653 453 l 1,25,-1
 1710 446 l 1,26,-1
 1750 444 l 1,27,-1
 1942 444 l 1,28,-1
 1903 361 l 1,29,-1
 1870 282 l 1,30,-1
 1848 281 l 1,31,-1
 1832 280 l 2,32,33
 1815.92 280 1815.92 280 1737 261 c 0,34,35
 1696 256 1696 256 1648 243 c 2,36,-1
 1610 231 l 1,37,-1
 1572 217 l 2,38,39
 1465.79 174.514 1465.79 174.514 1396 68 c 0,40,41
 1320 -44 1320 -44 1320 -143.5 c 128,-1,42
 1320 -243 1320 -243 1413 -323 c 0,43,44
 1483 -379 1483 -379 1627 -415 c 2,45,-1
 1703 -429 l 1,46,-1
 1745 -433 l 1,47,-1
 1787 -435 l 1,48,-1
 1952 -441 l 1,49,-1
 2024 -441 l 1,0,1
EndSplineSet
Substitution2: "'fina' Terminal Forms in Arabic lookup 4" hahfinal
Substitution2: "'medi' Medial Forms in Arabic lookup 3" hahmedial
Substitution2: "'init' Initial Forms in Arabic lookup 2" hahinitial
EndChar

StartChar: khah
Encoding: 1582 1582 17
Width: 986
GlyphClass: 2
Flags: MW
AnchorPoint: "ArabicBelow" 576 -708 basechar 0
AnchorPoint: "ArabicAbove" 420 960 basechar 0
LayerCount: 2
Fore
SplineSet
424 802.5 m 128,-1,1
 474 768 474 768 475.5 756.5 c 128,-1,2
 477 745 477 745 471 736 c 2,3,-1
 461 719 l 1,4,-1
 415 665 l 1,5,-1
 386 639 l 1,6,-1
 333 680 l 2,7,8
 285 719 285 719 279 730 c 1,9,10
 279 746 279 746 324 804 c 0,11,12
 348 833 348 833 366 837 c 1,13,0
 374 837 374 837 424 802.5 c 128,-1,1
898 -441 m 1,14,15
 859 -490 859 -490 769 -535.5 c 128,-1,16
 679 -581 679 -581 507 -581 c 128,-1,17
 335 -581 335 -581 224 -487 c 128,-1,18
 113 -393 113 -393 113 -250 c 0,19,20
 113 -60.4444 113 -60.4444 181 68 c 0,21,22
 239 188 239 188 361 300 c 1,23,24
 337 308 337 308 301 316 c 2,25,-1
 260 321 l 1,26,-1
 212 322 l 2,27,28
 174 322 174 322 146.5 298.5 c 128,-1,29
 119 275 119 275 88 272 c 1,30,-1
 120 383 l 1,31,32
 173 496 173 496 249 496 c 2,33,-1
 288 496 l 1,34,-1
 314 492 l 1,35,36
 328 492 328 492 345 489 c 2,37,-1
 444 468 l 1,38,-1
 527 453 l 1,39,-1
 584 446 l 1,40,-1
 624 444 l 1,41,-1
 816 444 l 1,42,-1
 777 361 l 1,43,-1
 744 282 l 1,44,-1
 722 281 l 1,45,-1
 706 280 l 2,46,47
 689.923 280 689.923 280 611 261 c 0,48,49
 570 256 570 256 522 243 c 2,50,-1
 484 231 l 1,51,-1
 446 217 l 2,52,53
 339.785 174.514 339.785 174.514 270 68 c 0,54,55
 194 -44 194 -44 194 -143.5 c 128,-1,56
 194 -243 194 -243 287 -323 c 0,57,58
 357 -379 357 -379 501 -415 c 2,59,-1
 577 -429 l 1,60,-1
 619 -433 l 1,61,-1
 661 -435 l 1,62,-1
 826 -441 l 1,63,-1
 898 -441 l 1,14,15
EndSplineSet
Substitution2: "'fina' Terminal Forms in Arabic lookup 4" khahfinal
Substitution2: "'medi' Medial Forms in Arabic lookup 3" khahmedial
Substitution2: "'init' Initial Forms in Arabic lookup 2" khahinitial
EndChar

StartChar: dal
Encoding: 1583 1583 18
Width: 654
GlyphClass: 2
Flags: MW
AnchorPoint: "ArabicBelow" 324 -120 basechar 0
AnchorPoint: "ArabicAbove" 276 780 basechar 0
LayerCount: 2
Fore
SplineSet
507 -2 m 2,0,-1
 88 -2 l 1,1,-1
 100 136 l 2,2,3
 100 152 100 152 102 157 c 1,4,-1
 107 180 l 1,5,-1
 471 180 l 1,6,-1
 471 192 l 2,7,8
 471 236 471 236 436.5 290.5 c 128,-1,9
 402 345 402 345 356 374 c 2,10,-1
 310 402 l 1,11,-1
 265 424 l 1,12,-1
 293 546 l 2,13,14
 303 598 303 598 309 613 c 1,15,16
 325 608 325 608 344 595 c 2,17,-1
 364 583 l 1,18,-1
 386 567 l 2,19,20
 468.22 504.916 468.22 504.916 516 417 c 2,21,-1
 533 378 l 1,22,-1
 549 335 l 1,23,-1
 556 309 l 1,24,-1
 567 259 l 1,25,-1
 567 217 l 2,26,27
 567 123 567 123 558 76 c 0,28,29
 546 -2 546 -2 507 -2 c 2,0,-1
EndSplineSet
Substitution2: "'fina' Terminal Forms in Arabic lookup 4" dalfinal
EndChar

StartChar: thal
Encoding: 1584 1584 19
Width: 654
GlyphClass: 2
Flags: MW
AnchorPoint: "ArabicBelow" 324 -192 basechar 0
AnchorPoint: "ArabicAbove" 228 1044 basechar 0
LayerCount: 2
Fore
SplineSet
299 796 m 1,0,1
 299 791 299 791 265 750 c 2,2,-1
 208 698 l 1,3,-1
 154 732 l 2,4,5
 107 761 107 761 99 776 c 1,6,-1
 116 805 l 1,7,-1
 132 828 l 2,8,9
 168 879 168 879 190 879 c 0,10,11
 198 879 198 879 247 845.5 c 128,-1,12
 296 812 296 812 299 796 c 1,0,1
507 -2 m 2,13,-1
 88 -2 l 1,14,-1
 100 136 l 2,15,16
 100 152 100 152 102 157 c 1,17,-1
 107 180 l 1,18,-1
 471 180 l 1,19,-1
 471 192 l 2,20,21
 471 236 471 236 436.5 290.5 c 128,-1,22
 402 345 402 345 356 374 c 2,23,-1
 310 402 l 1,24,-1
 265 424 l 1,25,-1
 293 546 l 2,26,27
 303 598 303 598 309 613 c 1,28,29
 325 608 325 608 344 595 c 2,30,-1
 364 583 l 1,31,-1
 386 567 l 2,32,33
 468.22 504.916 468.22 504.916 516 417 c 2,34,-1
 533 378 l 1,35,-1
 549 335 l 1,36,-1
 556 309 l 1,37,-1
 567 259 l 1,38,-1
 567 217 l 2,39,40
 567 123 567 123 558 76 c 0,41,42
 546 -2 546 -2 507 -2 c 2,13,-1
EndSplineSet
Substitution2: "'fina' Terminal Forms in Arabic lookup 4" thalfinal
EndChar

StartChar: reh
Encoding: 1585 1585 20
Width: 790
GlyphClass: 2
Flags: MW
AnchorPoint: "ArabicBelow" 440 -468 basechar 0
AnchorPoint: "ArabicAbove" 476 684 basechar 0
LayerCount: 2
Fore
SplineSet
703 118 m 4,0,1
 703 76 703 76 683 -15 c 132,-1,2
 663 -106 663 -106 598 -213 c 4,3,4
 504 -367 504 -367 392 -367 c 4,5,6
 335 -367 335 -367 173.5 -304.5 c 132,-1,7
 12 -242 12 -242 12 -215 c 4,8,9
 12 -202 12 -202 27 -202 c 5,10,-1
 85 -219 l 5,11,-1
 116 -227 l 5,12,-1
 140 -236 l 6,13,14
 205 -254 205 -254 241.5 -254 c 4,15,16
 322.239 -254 322.239 -254 470 -122 c 4,17,18
 620 6 620 6 620 89 c 4,19,20
 620 120 620 120 562 179.5 c 132,-1,21
 504 239 504 239 447 282 c 5,22,-1
 509 463 l 5,23,24
 573 429 573 429 626 354 c 4,25,26
 703 246 703 246 703 118 c 4,0,1
EndSplineSet
Substitution2: "'fina' Terminal Forms in Arabic lookup 4" rehfinal
EndChar

StartChar: zain
Encoding: 1586 1586 21
Width: 796
GlyphClass: 2
Flags: MW
AnchorPoint: "ArabicBelow" 458 -504 basechar 0
AnchorPoint: "ArabicAbove" 386 948 basechar 0
LayerCount: 2
Fore
SplineSet
550 708 m 5,0,1
 550 695 550 695 518 656 c 132,-1,2
 486 617 486 617 458 595 c 5,3,-1
 405 635 l 5,4,-1
 370 665 l 5,5,-1
 350 687 l 5,6,7
 365 716 365 716 383 739 c 4,8,9
 413 783 413 783 439 791 c 5,10,11
 448 791 448 791 497.5 756.5 c 132,-1,12
 547 722 547 722 550 708 c 5,0,1
709 118 m 4,13,14
 709 76 709 76 689 -15 c 132,-1,15
 669 -106 669 -106 604 -213 c 4,16,17
 510 -367 510 -367 398 -367 c 4,18,19
 341 -367 341 -367 179.5 -304.5 c 132,-1,20
 18 -242 18 -242 18 -215 c 4,21,22
 18 -202 18 -202 33 -202 c 5,23,-1
 91 -219 l 5,24,-1
 122 -227 l 5,25,-1
 146 -236 l 6,26,27
 211 -254 211 -254 247.5 -254 c 4,28,29
 328.239 -254 328.239 -254 476 -122 c 4,30,31
 626 6 626 6 626 89 c 4,32,33
 626 120 626 120 568 179.5 c 132,-1,34
 510 239 510 239 453 282 c 5,35,-1
 515 463 l 5,36,37
 579 429 579 429 632 354 c 4,38,39
 709 246 709 246 709 118 c 4,13,14
EndSplineSet
Substitution2: "'fina' Terminal Forms in Arabic lookup 4" zainfinal
EndChar

StartChar: seen
Encoding: 1587 1587 22
Width: 1575
GlyphClass: 2
Flags: MW
AnchorPoint: "ArabicBelow" 1152 -144 basechar 0
AnchorPoint: "ArabicAbove" 1092 612 basechar 0
LayerCount: 2
Fore
SplineSet
1228 201 m 1,0,1
 1229.11 190.324 1229.11 190.324 1232 180 c 1,2,-1
 1402 180 l 1,3,-1
 1389 226 l 2,4,5
 1375 275 1375 275 1375 291 c 1,6,-1
 1399 329 l 2,7,8
 1447 397 1447 397 1488 439 c 1,9,-1
 1488 237 l 2,10,11
 1488 179 1488 179 1479 142 c 2,12,-1
 1470 118 l 1,13,-1
 1449 71 l 2,14,15
 1426 17 1426 17 1423 -2 c 1,16,-1
 1179 0 l 1,17,-1
 1177 9 l 1,18,-1
 1168 25 l 2,19,20
 1156 43 1156 43 1151 44 c 1,21,-1
 1145 39 l 1,22,-1
 1121 11 l 1,23,-1
 1110 0 l 1,24,-1
 865 0 l 1,25,-1
 865 -11 l 2,26,27
 865 -34 865 -34 827.5 -121.5 c 128,-1,28
 790 -209 790 -209 756 -236 c 0,29,30
 706 -284 706 -284 591 -330 c 128,-1,31
 476 -376 476 -376 414 -376 c 2,32,-1
 345 -374 l 1,33,-1
 323 -373 l 1,34,-1
 284 -365 l 2,35,36
 223 -354 223 -354 186 -329 c 0,37,38
 88 -272 88 -272 88 -145 c 2,39,-1
 88 -105 l 1,40,-1
 94 -46 l 1,41,-1
 103 -10 l 2,42,43
 116 51 116 51 153 139 c 0,44,45
 211 285 211 285 250 285 c 0,46,47
 258 285 258 285 258 275.5 c 128,-1,48
 258 266 258 266 218.5 167.5 c 128,-1,49
 179 69 179 69 179 9 c 0,50,51
 179 -86 179 -86 245 -143 c 0,52,53
 315.087 -195 315.087 -195 446 -195 c 0,54,55
 502 -195 502 -195 630 -149.5 c 128,-1,56
 758 -104 758 -104 782 -63 c 1,57,58
 782 -22 782 -22 764.5 41.5 c 0,59,60
 732.455 157.779 732.455 157.779 677 237 c 1,61,-1
 687 261 l 1,62,-1
 778 404 l 1,63,-1
 845 252 l 2,64,65
 874 186 874 186 927 180 c 2,66,-1
 966 177 l 1,67,-1
 1017 178 l 1,68,-1
 1075 178 l 1,69,-1
 1112 179 l 2,70,71
 1135 179 1135 179 1149 183 c 1,72,-1
 1150 209 l 1,73,-1
 1150 227 l 1,74,-1
 1154 249 l 2,75,76
 1157.39 265.945 1157.39 265.945 1166 278 c 2,77,-1
 1212 338 l 2,78,79
 1251 388 1251 388 1278 411 c 1,80,-1
 1239 264 l 1,81,-1
 1231 229 l 1,82,-1
 1228 201 l 1,0,1
EndSplineSet
Substitution2: "'fina' Terminal Forms in Arabic lookup 4" seenfinal
Substitution2: "'medi' Medial Forms in Arabic lookup 3" seenmedial
Substitution2: "'init' Initial Forms in Arabic lookup 2" seeninitial
EndChar

StartChar: sheen
Encoding: 1588 1588 23
Width: 1575
GlyphClass: 2
Flags: MW
AnchorPoint: "ArabicBelow" 1152 -156 basechar 0
AnchorPoint: "ArabicAbove" 1092 1032 basechar 0
LayerCount: 2
Fore
SplineSet
1223 806 m 1,0,-1
 1127 724 l 1,1,-1
 1029 804 l 1,2,-1
 1123 894 l 1,3,-1
 1223 806 l 1,0,-1
1377 650 m 1,4,-1
 1317 580 l 1,5,-1
 1280 543 l 1,6,-1
 1127 626 l 1,7,-1
 1067 572 l 1,8,-1
 1039 550 l 1,9,-1
 1023 554 l 1,10,-1
 1007 560 l 1,11,-1
 989 568 l 1,12,-1
 926 603 l 2,13,14
 904 613 904 613 897 622 c 1,15,-1
 954 682 l 1,16,-1
 999 723 l 1,17,-1
 1042 694 l 1,18,-1
 1076 674 l 2,19,20
 1125 651 1125 651 1140 650 c 1,21,22
 1146 651 1146 651 1187 686 c 2,23,-1
 1236 730 l 1,24,-1
 1377 650 l 1,4,-1
1228 201 m 1,25,26
 1229.11 190.324 1229.11 190.324 1232 180 c 1,27,-1
 1402 180 l 1,28,-1
 1389 226 l 2,29,30
 1375 275 1375 275 1375 291 c 1,31,-1
 1399 329 l 2,32,33
 1447 397 1447 397 1488 439 c 1,34,-1
 1488 237 l 2,35,36
 1488 179 1488 179 1479 142 c 2,37,-1
 1470 118 l 1,38,-1
 1432 30 l 1,39,-1
 1421 0 l 1,40,-1
 1179 0 l 1,41,-1
 1177 9 l 1,42,-1
 1168 25 l 2,43,44
 1156 43 1156 43 1151 44 c 1,45,-1
 1145 39 l 1,46,-1
 1121 11 l 1,47,-1
 1110 0 l 1,48,-1
 865 0 l 1,49,-1
 865 -11 l 2,50,51
 865 -34 865 -34 827.5 -121.5 c 128,-1,52
 790 -209 790 -209 756 -236 c 0,53,54
 706 -284 706 -284 591 -330 c 128,-1,55
 476 -376 476 -376 414 -376 c 2,56,-1
 345 -374 l 1,57,-1
 323 -373 l 1,58,-1
 284 -365 l 2,59,60
 223 -354 223 -354 186 -329 c 0,61,62
 88 -272 88 -272 88 -145 c 2,63,-1
 88 -105 l 1,64,-1
 94 -46 l 1,65,-1
 103 -10 l 2,66,67
 116 51 116 51 153 139 c 0,68,69
 211 285 211 285 250 285 c 0,70,71
 258 285 258 285 258 275.5 c 128,-1,72
 258 266 258 266 218.5 167.5 c 128,-1,73
 179 69 179 69 179 9 c 0,74,75
 179 -86 179 -86 245 -143 c 0,76,77
 315.087 -195 315.087 -195 446 -195 c 0,78,79
 502 -195 502 -195 630 -149.5 c 128,-1,80
 758 -104 758 -104 782 -63 c 1,81,82
 782 -22 782 -22 764.5 41.5 c 0,83,84
 732.455 157.779 732.455 157.779 677 237 c 1,85,-1
 687 261 l 1,86,-1
 778 404 l 1,87,-1
 845 252 l 2,88,89
 874 186 874 186 927 180 c 2,90,-1
 966 177 l 1,91,-1
 1017 178 l 1,92,-1
 1075 178 l 1,93,-1
 1112 179 l 2,94,95
 1135 179 1135 179 1149 183 c 1,96,-1
 1150 209 l 1,97,-1
 1150 227 l 1,98,-1
 1154 249 l 2,99,100
 1157.39 265.945 1157.39 265.945 1166 278 c 2,101,-1
 1212 338 l 2,102,103
 1251 388 1251 388 1278 411 c 1,104,-1
 1239 264 l 1,105,-1
 1231 229 l 1,106,-1
 1228 201 l 1,25,26
EndSplineSet
Substitution2: "'fina' Terminal Forms in Arabic lookup 4" sheenfinal
Substitution2: "'medi' Medial Forms in Arabic lookup 3" sheenmedial
Substitution2: "'init' Initial Forms in Arabic lookup 2" sheeninitial
EndChar

StartChar: sad
Encoding: 1589 1589 24
Width: 1910
GlyphClass: 2
Flags: MW
AnchorPoint: "ArabicBelow" 1248 -168 basechar 0
AnchorPoint: "ArabicAbove" 1440 660 basechar 0
LayerCount: 2
Fore
SplineSet
1823 294 m 0,0,1
 1823 275 1823 275 1802 236 c 2,2,-1
 1774 172 l 2,3,4
 1758 116 1758 116 1738 76 c 0,5,6
 1709 3 1709 3 1687 0 c 2,7,-1
 836 0 l 1,8,-1
 836 -11 l 2,9,10
 836 -24 836 -24 808 -90 c 0,11,12
 767.843 -184.655 767.843 -184.655 725.922 -232.327 c 128,-1,13
 684 -280 684 -280 576 -318.5 c 128,-1,14
 468 -357 468 -357 401 -357 c 0,15,16
 266 -357 266 -357 177 -303 c 128,-1,17
 88 -249 88 -249 88 -139 c 0,18,19
 88 -8.18182 88 -8.18182 147.5 132.909 c 128,-1,20
 207 274 207 274 244 274 c 1,21,-1
 251 265 l 1,22,-1
 199 127 l 1,23,-1
 180 69 l 2,24,25
 175 46 175 46 175 25 c 0,26,27
 175 -84 175 -84 281 -145 c 0,28,29
 316 -163 316 -163 354 -171 c 2,30,-1
 392 -178 l 1,31,-1
 433 -181 l 1,32,-1
 449 -181 l 1,33,-1
 468 -179 l 1,34,-1
 504 -172 l 1,35,-1
 554 -160 l 2,36,37
 578.962 -155.462 578.962 -155.462 607 -143 c 0,38,39
 734 -102 734 -102 756 -62 c 1,40,41
 756 -11 756 -11 737 48 c 0,42,43
 710 146 710 146 653 221 c 1,44,-1
 701 304 l 1,45,-1
 751 382 l 1,46,-1
 831 241 l 2,47,48
 871 180 871 180 925 180 c 2,49,-1
 952 180 l 2,50,51
 1005 180 1005 180 1080 220 c 2,52,-1
 1389 424 l 2,53,54
 1448 461 1448 461 1505 490 c 2,55,-1
 1546 506 l 1,56,-1
 1579 512 l 1,57,58
 1645 512 1645 512 1734 431.5 c 128,-1,59
 1823 351 1823 351 1823 294 c 0,0,1
1606 183 m 2,60,61
 1611 183 1611 183 1628 186 c 128,-1,62
 1645 189 1645 189 1656.5 197 c 128,-1,63
 1668 205 1668 205 1671 218 c 1,64,65
 1671 250 1671 250 1595.5 300 c 128,-1,66
 1520 350 1520 350 1475 350 c 128,-1,67
 1430 350 1430 350 1352 298 c 2,68,-1
 1153 180 l 1,69,-1
 1591 183 l 1,70,-1
 1606 183 l 2,60,61
EndSplineSet
Substitution2: "'fina' Terminal Forms in Arabic lookup 4" sadfinal
Substitution2: "'medi' Medial Forms in Arabic lookup 3" sadmedial
Substitution2: "'init' Initial Forms in Arabic lookup 2" sadinitial
EndChar

StartChar: dad
Encoding: 1590 1590 25
Width: 1910
GlyphClass: 2
Flags: MW
AnchorPoint: "ArabicBelow" 1248 -144 basechar 0
AnchorPoint: "ArabicAbove" 1284 984 basechar 0
LayerCount: 2
Fore
SplineSet
1427 739 m 1,0,1
 1427 730 1427 730 1375 689.5 c 128,-1,2
 1323 649 1323 649 1310 646 c 1,3,-1
 1294 655 l 1,4,-1
 1252 687 l 2,5,6
 1206 726 1206 726 1199 737 c 1,7,8
 1199 744 1199 744 1248.5 790 c 128,-1,9
 1298 836 1298 836 1310 843 c 1,10,-1
 1371 794 l 2,11,12
 1424 749 1424 749 1427 739 c 1,0,1
1823 294 m 0,13,14
 1823 275 1823 275 1802 236 c 2,15,-1
 1774 172 l 2,16,17
 1758 116 1758 116 1738 76 c 0,18,19
 1709 3 1709 3 1687 0 c 2,20,-1
 836 0 l 1,21,-1
 836 -11 l 2,22,23
 836 -24 836 -24 808 -90 c 0,24,25
 767.843 -184.655 767.843 -184.655 725.922 -232.327 c 128,-1,26
 684 -280 684 -280 576 -318.5 c 128,-1,27
 468 -357 468 -357 401 -357 c 0,28,29
 266 -357 266 -357 177 -303 c 128,-1,30
 88 -249 88 -249 88 -139 c 0,31,32
 88 -8.18182 88 -8.18182 147.5 132.909 c 128,-1,33
 207 274 207 274 244 274 c 1,34,-1
 251 265 l 1,35,-1
 199 127 l 1,36,-1
 180 69 l 2,37,38
 175 46 175 46 175 25 c 0,39,40
 175 -84 175 -84 281 -145 c 0,41,42
 316 -163 316 -163 354 -171 c 2,43,-1
 392 -178 l 1,44,-1
 433 -181 l 1,45,-1
 449 -181 l 1,46,-1
 468 -179 l 1,47,-1
 504 -172 l 1,48,-1
 554 -160 l 2,49,50
 578.962 -155.462 578.962 -155.462 607 -143 c 0,51,52
 734 -102 734 -102 756 -62 c 1,53,54
 756 -11 756 -11 737 48 c 0,55,56
 710 146 710 146 653 221 c 1,57,-1
 701 304 l 1,58,-1
 751 382 l 1,59,-1
 831 241 l 2,60,61
 871 180 871 180 925 180 c 2,62,-1
 952 180 l 2,63,64
 1005 180 1005 180 1080 220 c 2,65,-1
 1389 424 l 2,66,67
 1448 461 1448 461 1505 490 c 2,68,-1
 1546 506 l 1,69,-1
 1579 512 l 1,70,71
 1645 512 1645 512 1734 431.5 c 128,-1,72
 1823 351 1823 351 1823 294 c 0,13,14
1606 183 m 2,73,74
 1611 183 1611 183 1628 186 c 128,-1,75
 1645 189 1645 189 1656.5 197 c 128,-1,76
 1668 205 1668 205 1671 218 c 1,77,78
 1671 250 1671 250 1595.5 300 c 128,-1,79
 1520 350 1520 350 1475 350 c 128,-1,80
 1430 350 1430 350 1352 298 c 2,81,-1
 1153 180 l 1,82,-1
 1591 183 l 1,83,-1
 1606 183 l 2,73,74
EndSplineSet
Substitution2: "'fina' Terminal Forms in Arabic lookup 4" dadfinal
Substitution2: "'medi' Medial Forms in Arabic lookup 3" dadmedial
Substitution2: "'init' Initial Forms in Arabic lookup 2" dadinitial
EndChar

StartChar: tah
Encoding: 1591 1591 26
Width: 1460
GlyphClass: 2
Flags: MW
AnchorPoint: "ArabicBelow" 804 -144 basechar 0
AnchorPoint: "ArabicAbove" 1068 732 basechar 0
LayerCount: 2
Fore
SplineSet
179 409 m 1,0,1
 186.186 405.482 186.186 405.482 191 398 c 1,2,-1
 175 341 l 1,3,-1
 169 318 l 1,4,-1
 166 292 l 2,5,6
 166 248 166 248 198 211 c 0,7,8
 233 180 233 180 291 180 c 2,9,-1
 495 180 l 2,10,11
 512 180 512 180 535 195.5 c 128,-1,12
 558 211 558 211 564 242 c 1,13,14
 564 263 564 263 556 330 c 2,15,-1
 530 509 l 2,16,17
 499 731 499 731 486 752 c 1,18,-1
 460 783 l 1,19,-1
 454 813 l 1,20,21
 454 826 454 826 501 894 c 128,-1,22
 548 962 548 962 556 963 c 1,23,24
 565.6 921.4 565.6 921.4 606 881 c 2,25,-1
 638 852 l 1,26,-1
 688 820 l 1,27,-1
 751 788 l 1,28,-1
 704 693 l 2,29,30
 673 641 673 641 638 641 c 2,31,-1
 628 641 l 1,32,-1
 641 546 l 2,33,34
 654 446 654 446 654 417.5 c 128,-1,35
 654 389 654 389 642 332 c 128,-1,36
 630 275 630 275 616 236 c 1,37,38
 628 238 628 238 642 248 c 2,39,-1
 684 274 l 2,40,41
 813 359 813 359 854 378 c 2,42,-1
 976 437 l 2,43,44
 1089 490 1089 490 1136.5 490 c 128,-1,45
 1184 490 1184 490 1278.5 415.5 c 128,-1,46
 1373 341 1373 341 1373 267 c 1,47,-1
 1314 134 l 2,48,49
 1251 3 1251 3 1225 0 c 2,50,-1
 285 0 l 2,51,52
 203 0 203 0 145.5 47.5 c 128,-1,53
 88 95 88 95 88 171 c 2,54,-1
 89 219 l 2,55,56
 91 234 91 234 91 238 c 128,-1,57
 91 242 91 242 94.5 259.5 c 0,58,59
 102.103 297.517 102.103 297.517 119 333 c 0,60,61
 149 409 149 409 179 409 c 1,0,1
1162 180 m 2,62,63
 1199 180 1199 180 1204 200 c 1,64,65
 1204 227 1204 227 1154.5 278.5 c 128,-1,66
 1105 330 1105 330 1030 330 c 128,-1,67
 955 330 955 330 846 278 c 2,68,-1
 708 195 l 1,69,-1
 680 180 l 1,70,-1
 1162 180 l 2,62,63
EndSplineSet
Substitution2: "'fina' Terminal Forms in Arabic lookup 4" tahfinal
Substitution2: "'medi' Medial Forms in Arabic lookup 3" tahmedial
Substitution2: "'init' Initial Forms in Arabic lookup 2" tahinitial
EndChar

StartChar: zah
Encoding: 1592 1592 27
Width: 1460
GlyphClass: 2
Flags: MW
AnchorPoint: "ArabicBelow" 804 -168 basechar 0
AnchorPoint: "ArabicAbove" 960 984 basechar 0
LayerCount: 2
Fore
SplineSet
1085 702 m 0,0,1
 1085 693 1085 693 1034 653 c 128,-1,2
 983 613 983 613 972.5 613 c 128,-1,3
 962 613 962 613 912.5 649 c 128,-1,4
 863 685 863 685 858 700 c 1,5,6
 858 712 858 712 907.5 759 c 128,-1,7
 957 806 957 806 969 807 c 1,8,-1
 984 795 l 1,9,10
 992 792 992 792 1003 780 c 2,11,-1
 1028 758 l 2,12,13
 1084 711 1084 711 1085 702 c 0,0,1
179 409 m 1,14,15
 186.186 405.482 186.186 405.482 191 398 c 1,16,-1
 175 341 l 1,17,-1
 169 318 l 1,18,-1
 166 292 l 2,19,20
 166 248 166 248 198 211 c 0,21,22
 233 180 233 180 291 180 c 2,23,-1
 495 180 l 2,24,25
 512 180 512 180 535 195.5 c 128,-1,26
 558 211 558 211 564 242 c 1,27,28
 564 263 564 263 556 330 c 2,29,-1
 530 509 l 2,30,31
 499 731 499 731 486 752 c 1,32,-1
 460 783 l 1,33,-1
 454 813 l 1,34,35
 454 826 454 826 501 894 c 128,-1,36
 548 962 548 962 556 963 c 1,37,38
 565.6 921.4 565.6 921.4 606 881 c 2,39,-1
 638 852 l 1,40,-1
 688 820 l 1,41,-1
 751 788 l 1,42,-1
 704 693 l 2,43,44
 673 641 673 641 638 641 c 2,45,-1
 628 641 l 1,46,-1
 641 546 l 2,47,48
 654 446 654 446 654 417.5 c 128,-1,49
 654 389 654 389 642 332 c 128,-1,50
 630 275 630 275 616 236 c 1,51,52
 628 238 628 238 642 248 c 2,53,-1
 684 274 l 2,54,55
 813 359 813 359 854 378 c 2,56,-1
 976 437 l 2,57,58
 1089 490 1089 490 1136.5 490 c 128,-1,59
 1184 490 1184 490 1278.5 415.5 c 128,-1,60
 1373 341 1373 341 1373 267 c 1,61,-1
 1314 134 l 2,62,63
 1251 3 1251 3 1225 0 c 2,64,-1
 285 0 l 2,65,66
 203 0 203 0 145.5 47.5 c 128,-1,67
 88 95 88 95 88 171 c 2,68,-1
 89 219 l 2,69,70
 91 234 91 234 91 238 c 128,-1,71
 91 242 91 242 94.5 259.5 c 0,72,73
 102.103 297.517 102.103 297.517 119 333 c 0,74,75
 149 409 149 409 179 409 c 1,14,15
1162 180 m 2,76,77
 1199 180 1199 180 1204 200 c 1,78,79
 1204 227 1204 227 1154.5 278.5 c 128,-1,80
 1105 330 1105 330 1030 330 c 128,-1,81
 955 330 955 330 846 278 c 2,82,-1
 708 195 l 1,83,-1
 680 180 l 1,84,-1
 1162 180 l 2,76,77
EndSplineSet
Substitution2: "'fina' Terminal Forms in Arabic lookup 4" zahfinal
Substitution2: "'medi' Medial Forms in Arabic lookup 3" zahmedial
Substitution2: "'init' Initial Forms in Arabic lookup 2" zahinitial
EndChar

StartChar: ain
Encoding: 1593 1593 28
Width: 988
GlyphClass: 2
Flags: MW
AnchorPoint: "ArabicBelow" 432 -732 basechar 0
AnchorPoint: "ArabicAbove" 420 792 basechar 0
LayerCount: 2
Fore
SplineSet
901 -452 m 1,0,1
 807.939 -553.924 807.939 -553.924 600.5 -590 c 0,2,3
 543 -600 543 -600 466 -600 c 0,4,5
 268 -600 268 -600 181.5 -534.5 c 128,-1,6
 95 -469 95 -469 95 -337 c 0,7,8
 95 -195.364 95 -195.364 154 -72 c 0,9,10
 198.695 31.2456 198.695 31.2456 249 74 c 1,11,-1
 236 83 l 1,12,13
 207.253 91.7843 207.253 91.7843 185 112 c 2,14,-1
 153 140 l 2,15,16
 88 202 88 202 88 258.5 c 128,-1,17
 88 315 88 315 169 444 c 0,18,19
 266 599 266 599 356 599 c 0,20,21
 393 599 393 599 471 538 c 128,-1,22
 549 477 549 477 549 448 c 1,23,24
 538 448 538 448 536 450 c 1,25,-1
 490 458 l 1,26,-1
 446 461 l 1,27,-1
 417 461 l 1,28,-1
 393 459 l 2,29,30
 374 459 374 459 370 457 c 1,31,-1
 331 448 l 1,32,-1
 313 445 l 1,33,-1
 287 437 l 2,34,35
 272 434 272 434 266 430 c 2,36,-1
 247 419 l 2,37,38
 213 403 213 403 210 382 c 1,39,40
 210 323 210 323 254 285.5 c 128,-1,41
 298 248 298 248 370 248 c 0,42,43
 420.571 248 420.571 248 484 272 c 2,44,-1
 616 321 l 1,45,-1
 686 341 l 1,46,-1
 662 274 l 1,47,-1
 641 218 l 1,48,-1
 627 189 l 1,49,50
 484 147 484 147 360 52 c 0,51,52
 191 -74.241 191 -74.241 191 -221 c 0,53,54
 191 -327 191 -327 292 -383 c 0,55,56
 416 -452 416 -452 721 -452 c 2,57,-1
 901 -452 l 1,0,1
EndSplineSet
Substitution2: "'fina' Terminal Forms in Arabic lookup 4" ainfinal
Substitution2: "'medi' Medial Forms in Arabic lookup 3" ainmedial
Substitution2: "'init' Initial Forms in Arabic lookup 2" aininitial
EndChar

StartChar: ghain
Encoding: 1594 1594 29
Width: 984
GlyphClass: 2
Flags: MW
AnchorPoint: "ArabicBelow" 408 -660 basechar 0
AnchorPoint: "ArabicAbove" 336 1092 basechar 0
LayerCount: 2
Fore
SplineSet
436 815 m 1,0,-1
 349 698 l 1,1,-1
 232 785 l 1,2,-1
 316 902 l 1,3,-1
 436 815 l 1,0,-1
186 -174 m 0,4,5
 186 -388 186 -388 716 -388 c 2,6,-1
 896 -388 l 1,7,8
 806.059 -483.938 806.059 -483.938 628 -520 c 0,9,10
 556.6 -537 556.6 -537 461 -537 c 0,11,12
 257 -537 257 -537 174 -478 c 128,-1,13
 91 -419 91 -419 91 -301 c 128,-1,14
 91 -183 91 -183 149 -56 c 2,15,-1
 171 -12 l 1,16,-1
 193 26 l 1,17,-1
 236 81 l 1,18,-1
 244 90 l 1,19,-1
 231 98 l 1,20,21
 209 105 209 105 192 118 c 2,22,-1
 151 148 l 2,23,24
 88 200 88 200 88 258 c 128,-1,25
 88 316 88 316 171 444 c 0,26,27
 269 600 269 600 358 600 c 0,28,29
 393 600 393 600 471 539 c 128,-1,30
 549 478 549 478 549 450 c 1,31,-1
 505 456 l 1,32,-1
 481 460 l 1,33,-1
 445 461 l 1,34,-1
 419 461 l 1,35,-1
 393 459 l 2,36,37
 373 459 373 459 329 448 c 2,38,39
 291.365 445.105 291.365 445.105 249 420 c 0,40,41
 218 407 218 407 210 383 c 1,42,43
 210 312.486 210 312.486 285 276 c 0,44,45
 317 264 317 264 364.5 264 c 128,-1,46
 412 264 412 264 480 287 c 2,47,-1
 612 337 l 1,48,-1
 681 357 l 1,49,-1
 660 293 l 1,50,-1
 645 258 l 1,51,-1
 636 235 l 1,52,-1
 622 205 l 1,53,54
 437 147 437 147 305 39 c 0,55,56
 186 -62 186 -62 186 -174 c 0,4,5
EndSplineSet
Substitution2: "'fina' Terminal Forms in Arabic lookup 4" ghainfinal
Substitution2: "'medi' Medial Forms in Arabic lookup 3" ghainmedial
Substitution2: "'init' Initial Forms in Arabic lookup 2" ghaininitial
EndChar

StartChar: tatweel
Encoding: 1600 1600 30
Width: 701
GlyphClass: 2
Flags: MW
LayerCount: 2
Fore
SplineSet
0 181 m 1,0,-1
 701 182 l 1,1,-1
 701 1 l 1,2,-1
 0 0 l 1,3,-1
 0 181 l 1,0,-1
EndSplineSet
EndChar

StartChar: feh
Encoding: 1601 1601 31
Width: 1359
GlyphClass: 2
Flags: MW
AnchorPoint: "ArabicBelow" 672 -156 basechar 0
AnchorPoint: "ArabicAbove" 852 1068 basechar 0
LayerCount: 2
Fore
SplineSet
988 832 m 1,0,-1
 872 729 l 1,1,-1
 755 829 l 1,2,-1
 868 939 l 1,3,-1
 988 832 l 1,0,-1
1272 248 m 2,4,-1
 1257 139 l 1,5,-1
 1238 18 l 1,6,-1
 1231 0 l 1,7,-1
 307 0 l 2,8,9
 204 0 204 0 144 57 c 0,10,11
 88 116 88 116 88 214 c 0,12,13
 88 272 88 272 114.5 372 c 128,-1,14
 141 472 141 472 172 472 c 0,15,16
 185 472 185 472 185 461 c 1,17,-1
 181 443 l 1,18,-1
 171 410 l 2,19,20
 157 369 157 369 157 339 c 0,21,22
 157 278 157 278 201 229 c 128,-1,23
 245 180 245 180 311 180 c 2,24,-1
 1174 180 l 1,25,-1
 1172 217 l 1,26,-1
 1164 254 l 2,27,28
 1151.24 338.472 1151.24 338.472 1112 360 c 1,29,-1
 1107 352 l 1,30,-1
 1042 285 l 1,31,32
 997 258 997 258 934 258 c 128,-1,33
 871 258 871 258 816 295 c 128,-1,34
 761 332 761 332 761 379 c 0,35,36
 761 446 761 446 862.5 564.5 c 128,-1,37
 964 683 964 683 1062 683 c 0,38,39
 1128 683 1128 683 1200 536 c 128,-1,40
 1272 389 1272 389 1272 248 c 2,4,-1
1087 426 m 1,41,-1
 1075 444 l 2,42,43
 1019.93 531.053 1019.93 531.053 959 539 c 0,44,45
 936.5 539 936.5 539 911 518 c 2,46,-1
 877 483 l 1,47,-1
 872 474 l 1,48,-1
 914 441 l 2,49,50
 931 429 931 429 953 420 c 1,51,-1
 975 416 l 1,52,-1
 1012 416 l 1,53,-1
 1036 420 l 1,54,-1
 1052 422 l 1,55,-1
 1057 424 l 1,56,-1
 1066 426 l 1,57,-1
 1087 426 l 1,41,-1
EndSplineSet
Substitution2: "'fina' Terminal Forms in Arabic lookup 4" fehfinal
Substitution2: "'medi' Medial Forms in Arabic lookup 3" fehmedial
Substitution2: "'init' Initial Forms in Arabic lookup 2" fehinitial
EndChar

StartChar: qaf
Encoding: 1602 1602 32
Width: 1034
GlyphClass: 2
Flags: MW
AnchorPoint: "ArabicBelow" 432 -480 basechar 0
AnchorPoint: "ArabicAbove" 636 984 basechar 0
LayerCount: 2
Fore
SplineSet
875 773 m 1,0,1
 806.303 684.982 806.303 684.982 773 665 c 1,2,3
 768 665 768 665 678 714 c 2,4,-1
 636 737 l 1,5,-1
 570 675 l 1,6,-1
 564 670 l 1,7,8
 550 670 550 670 528 679 c 2,9,-1
 508 688 l 1,10,-1
 448 724 l 1,11,-1
 425 742 l 1,12,-1
 525 850 l 1,13,14
 530 845 530 845 583.5 811.5 c 128,-1,15
 637 778 637 778 649 778 c 1,16,17
 665.187 781.131 665.187 781.131 677 796 c 2,18,-1
 703 823 l 1,19,-1
 734 850 l 1,20,-1
 875 773 l 1,0,1
812 155 m 1,21,22
 765.714 74 765.714 74 647 74 c 0,23,24
 589 74 589 74 536.5 111 c 128,-1,25
 484 148 484 148 484 210 c 128,-1,26
 484 272 484 272 555 406 c 0,27,28
 635 548 635 548 718 548 c 0,29,30
 769.308 548 769.308 548 821.654 482.5 c 128,-1,31
 874 417 874 417 917 270 c 2,32,-1
 929 219 l 1,33,-1
 939 167 l 1,34,-1
 947 91 l 1,35,-1
 947 68 l 1,36,-1
 911 -62 l 2,37,38
 895 -123 895 -123 875 -156 c 1,39,40
 838 -195 838 -195 704 -257 c 0,41,42
 613 -296 613 -296 534 -317 c 2,43,-1
 488 -327 l 1,44,-1
 445 -333 l 2,45,46
 410 -338 410 -338 378 -338 c 0,47,48
 236 -338 236 -338 162 -272.5 c 128,-1,49
 88 -207 88 -207 88 -94 c 0,50,51
 88 29.2 88 29.2 144 158 c 0,52,53
 199 301 199 301 229 301 c 0,54,55
 237 301 237 301 238.5 290 c 128,-1,56
 240 279 240 279 231 253 c 2,57,-1
 181 101 l 2,58,59
 173 68 173 68 173 43 c 0,60,61
 173 -62 173 -62 263 -115 c 0,62,63
 333 -154 333 -154 439 -154 c 128,-1,64
 545 -154 545 -154 673 -115.5 c 128,-1,65
 801 -77 801 -77 860 -19 c 1,66,-1
 852 34 l 1,67,-1
 851 51 l 1,68,-1
 843 80 l 2,69,70
 840 103 840 103 830 120 c 2,71,-1
 822 137 l 2,72,73
 819 146 819 146 812 155 c 1,21,22
773 265 m 1,74,75
 766 288 766 288 751 308 c 0,76,77
 737 333 737 333 709.5 362 c 128,-1,78
 682 391 682 391 664 391 c 0,79,80
 626.886 391 626.886 391 589 313 c 1,81,82
 595 304 595 304 604 297 c 2,83,-1
 626 279 l 1,84,-1
 642 268 l 1,85,-1
 661 259 l 1,86,-1
 686 255 l 1,87,-1
 710 254 l 1,88,-1
 732 254 l 1,89,-1
 751 255 l 1,90,-1
 761 258 l 1,91,-1
 773 265 l 1,74,75
EndSplineSet
Substitution2: "'fina' Terminal Forms in Arabic lookup 4" qaffinal
Substitution2: "'medi' Medial Forms in Arabic lookup 3" qafmedial
Substitution2: "'init' Initial Forms in Arabic lookup 2" qafinitial
EndChar

StartChar: arabickaf
Encoding: 1603 1603 33
Width: 1291
GlyphClass: 2
Flags: MW
AnchorPoint: "ArabicBelow" 624 -144 basechar 0
AnchorPoint: "ArabicAbove" 624 888 basechar 0
LayerCount: 2
Fore
SplineSet
1204 698 m 1,0,-1
 1076 531 l 1,1,-1
 1076 526 l 1,2,-1
 1079 472 l 1,3,-1
 1092 372 l 1,4,-1
 1095 335 l 1,5,-1
 1110 243 l 1,6,7
 1110 229 1110 229 1111 212 c 128,-1,8
 1112 195 1112 195 1098 135 c 2,9,-1
 1087 79 l 1,10,-1
 1073 19 l 1,11,12
 1071 16 1071 16 1049 5 c 1,13,14
 1032 0 1032 0 1015 0 c 2,15,-1
 326 0 l 2,16,17
 214 0 214 0 151 57.5 c 128,-1,18
 88 115 88 115 88 214 c 0,19,20
 88 292.176 88 292.176 116 377.588 c 128,-1,21
 144 463 144 463 180 463 c 0,22,23
 187 463 187 463 195 453 c 1,24,-1
 171 394 l 1,25,-1
 165 367 l 1,26,-1
 163 339 l 2,27,28
 163 283 163 283 210.5 231.5 c 128,-1,29
 258 180 258 180 334 180 c 2,30,-1
 993 180 l 1,31,32
 1002 186 1002 186 1002 237 c 128,-1,33
 1002 288 1002 288 980 396 c 2,34,-1
 928 652 l 1,35,-1
 867 700 l 1,36,-1
 893 754 l 1,37,-1
 928 819 l 1,38,-1
 954 862 l 1,39,-1
 982 900 l 1,40,-1
 983 873 l 2,41,42
 983 848.565 983 848.565 1015 811 c 1,43,-1
 1123 742 l 1,44,-1
 1204 698 l 1,0,-1
704 483 m 0,45,46
 704 425 704 425 660 370 c 0,47,48
 628 333 628 333 591 323 c 2,49,-1
 515 304 l 1,50,-1
 474 298 l 1,51,-1
 432 295 l 1,52,53
 432 302 432 302 536.5 348.5 c 128,-1,54
 641 395 641 395 647 415 c 1,55,56
 647 432 647 432 569 432 c 256,57,58
 491 432 491 432 491 475 c 0,59,60
 491 526 491 526 571.5 627.5 c 128,-1,61
 652 729 652 729 704 729 c 1,62,-1
 682 672 l 1,63,-1
 673 651 l 1,64,-1
 666 637 l 1,65,66
 651 632 651 632 639 623 c 2,67,-1
 621 612 l 1,68,-1
 606 600 l 2,69,70
 582 579 582 579 560 554 c 1,71,-1
 555 541 l 1,72,73
 555 531 555 531 629 518 c 0,74,75
 704 510 704 510 704 483 c 0,45,46
EndSplineSet
Substitution2: "'fina' Terminal Forms in Arabic lookup 4" arabickaffinal
Substitution2: "'medi' Medial Forms in Arabic lookup 3" kafmedial
Substitution2: "'init' Initial Forms in Arabic lookup 2" kafinitial
EndChar

StartChar: lam
Encoding: 1604 1604 34
Width: 999
GlyphClass: 2
Flags: MW
AnchorPoint: "ArabicBelow" 408 -432 basechar 0
AnchorPoint: "ArabicAbove" 750.5 1015.5 basechar 0
LayerCount: 2
Fore
SplineSet
438 -94 m 1,0,-1
 454 -94 l 1,1,2
 459 -92 459 -92 461 -92 c 2,3,-1
 489 -87 l 2,4,5
 511 -84 511 -84 543 -76 c 2,6,-1
 572 -69 l 1,7,-1
 584 -65 l 1,8,9
 590 -65 590 -65 599 -59 c 2,10,11
 709 -25 709 -25 709 18 c 2,12,-1
 638 615 l 2,13,14
 638 660.368 638 660.368 604 681.684 c 128,-1,15
 570 703 570 703 568.5 732.5 c 128,-1,16
 567 762 567 762 604 836 c 128,-1,17
 641 910 641 910 664 930 c 1,18,19
 664 869 664 869 734 837 c 2,20,-1
 911 772 l 1,21,-1
 845 645 l 1,22,-1
 821 595 l 1,23,24
 791 595 791 595 781 599 c 1,25,-1
 815 128 l 2,26,27
 815 114 815 114 788 35 c 2,28,-1
 759 -32 l 2,29,30
 717.324 -128.176 717.324 -128.176 586 -208 c 0,31,32
 528 -242 528 -242 467 -258 c 2,33,-1
 407 -272 l 1,34,-1
 377 -275 l 2,35,36
 367 -276 367 -276 346 -276 c 0,37,38
 222 -276 222 -276 155 -217 c 128,-1,39
 88 -158 88 -158 88 -60 c 128,-1,40
 88 38 88 38 151 180 c 128,-1,41
 214 322 214 322 250 322 c 1,42,-1
 243 270 l 1,43,44
 171 116 171 116 171 83 c 0,45,46
 171 -2 171 -2 236.5 -49 c 128,-1,47
 302 -96 302 -96 388 -96 c 2,48,-1
 423 -96 l 1,49,-1
 438 -94 l 1,0,-1
EndSplineSet
Substitution2: "'fina' Terminal Forms in Arabic lookup 4" lamfinal
Substitution2: "'medi' Medial Forms in Arabic lookup 3" lammedial
Substitution2: "'init' Initial Forms in Arabic lookup 2" laminitial
EndChar

StartChar: meem
Encoding: 1605 1605 35
Width: 762
GlyphClass: 2
Flags: MW
AnchorPoint: "ArabicBelow" 408 -96 basechar 0
AnchorPoint: "ArabicAbove" 432 732 basechar 0
LayerCount: 2
Fore
SplineSet
675 267 m 1,0,-1
 613 94 l 1,1,-1
 507 122 l 1,2,-1
 471 128 l 1,3,-1
 421 133 l 1,4,-1
 360 133 l 2,5,6
 348 133 348 133 344 131 c 1,7,-1
 330 131 l 1,8,-1
 286 122 l 2,9,10
 220.104 113.795 220.104 113.795 187 85 c 1,11,-1
 209 -34 l 1,12,-1
 225 -149 l 1,13,-1
 231 -241 l 2,14,15
 231 -262 231 -262 225 -298 c 2,16,-1
 222 -320 l 2,17,18
 222 -327 222 -327 218 -337 c 1,19,-1
 214 -357 l 1,20,-1
 206 -383 l 2,21,22
 182 -479 182 -479 163 -487 c 1,23,-1
 159 -459 l 1,24,-1
 159 -443 l 2,25,26
 159 -432 159 -432 157 -429 c 1,27,-1
 88 68 l 2,28,29
 88 86 88 86 132 146 c 2,30,-1
 177 200 l 1,31,32
 182 214 182 214 267 248 c 128,-1,33
 352 282 352 282 410 292 c 2,34,-1
 448 296 l 1,35,-1
 420 319 l 1,36,-1
 398 335 l 2,37,38
 339 374 339 374 296.5 374 c 128,-1,39
 254 374 254 374 214 345 c 1,40,-1
 150 283 l 1,41,-1
 169 348 l 2,42,43
 200 417 200 417 229 456 c 2,44,-1
 241 472 l 1,45,-1
 256 487 l 1,46,-1
 296 521 l 2,47,48
 340 550 340 550 363.5 550 c 128,-1,49
 387 550 387 550 402 541.5 c 128,-1,50
 417 533 417 533 442 513 c 2,51,-1
 506 462 l 2,52,53
 531.5 445 531.5 445 596 370 c 2,54,-1
 675 267 l 1,0,-1
EndSplineSet
Substitution2: "'fina' Terminal Forms in Arabic lookup 4" meemfinal
Substitution2: "'medi' Medial Forms in Arabic lookup 3" meemmedial
Substitution2: "'init' Initial Forms in Arabic lookup 2" meeminitial
EndChar

StartChar: noon
Encoding: 1606 1606 36
Width: 958
GlyphClass: 2
Flags: MW
AnchorPoint: "ArabicBelow" 420 -360 basechar 0
AnchorPoint: "ArabicAbove" 408 948 basechar 0
LayerCount: 2
Fore
SplineSet
533 689 m 1,0,1
 533 681 533 681 493.5 643 c 128,-1,2
 454 605 454 605 431 595 c 1,3,4
 425 595 425 595 411 602 c 2,5,-1
 372 628 l 2,6,7
 323 664 323 664 322 670 c 1,8,9
 322 679 322 679 362 728.5 c 128,-1,10
 402 778 402 778 411 779 c 128,-1,11
 420 780 420 780 475 737 c 0,12,13
 530 698 530 698 533 689 c 1,0,1
870 204 m 1,14,-1
 870 180 l 1,15,-1
 868 170 l 1,16,-1
 867 158 l 1,17,-1
 839 57 l 2,18,19
 808 -50 808 -50 779 -80 c 0,20,21
 739 -127 739 -127 616 -176 c 0,22,23
 523 -209 523 -209 432 -224 c 1,24,-1
 416 -224 l 1,25,-1
 398 -226 l 2,26,27
 376 -226 376 -226 373 -228 c 1,28,29
 257 -228 257 -228 185 -185 c 0,30,31
 88 -127 88 -127 88 3 c 2,32,-1
 91 52 l 2,33,34
 91 63 91 63 94 76 c 2,35,-1
 100 105 l 2,36,37
 112 161 112 161 140 229 c 0,38,39
 192 363 192 363 226 363 c 0,40,41
 239 363 239 363 242 352 c 1,42,-1
 196 245 l 2,43,44
 175 193 175 193 175 158 c 0,45,46
 175 53 175 53 250 2 c 0,47,48
 322 -41 322 -41 466 -41 c 2,49,-1
 478 -41 l 1,50,-1
 497 -40 l 2,51,52
 510 -40 510 -40 514 -38 c 1,53,-1
 565 -27 l 1,54,-1
 584 -21 l 2,55,56
 607 -17 607 -17 614.5 -14.5 c 128,-1,57
 622 -12 622 -12 637 -4 c 2,58,59
 758 35 758 35 777 76 c 1,60,-1
 779 91 l 1,61,-1
 779 101 l 1,62,-1
 776 128 l 2,63,64
 776 134 776 134 770 149 c 2,65,-1
 748 211 l 2,66,67
 737 240 737 240 718 281 c 2,68,-1
 670 385 l 1,69,-1
 662 398 l 1,70,71
 667 417 667 417 694 459 c 2,72,-1
 752 556 l 1,73,-1
 778 513 l 1,74,-1
 809 447 l 2,75,76
 836 384 836 384 855 320 c 2,77,-1
 862 288 l 1,78,-1
 867 258 l 1,79,-1
 870 204 l 1,14,-1
EndSplineSet
Substitution2: "'fina' Terminal Forms in Arabic lookup 4" noonfinal
Substitution2: "'medi' Medial Forms in Arabic lookup 3" noonmedial
Substitution2: "'init' Initial Forms in Arabic lookup 2" nooninitial
EndChar

StartChar: heh
Encoding: 1607 1607 37
Width: 668
GlyphClass: 2
Flags: MW
AnchorPoint: "ArabicBelow" 288 -144 basechar 0
AnchorPoint: "ArabicAbove" 360 732 basechar 0
LayerCount: 2
Fore
SplineSet
577 232 m 1,0,-1
 525 106 l 2,1,2
 513 82 513 82 491 62 c 128,-1,3
 469 42 469 42 389 11 c 2,4,-1
 324 -9 l 2,5,6
 319 -11 319 -11 304 -13 c 128,-1,7
 289 -15 289 -15 240.5 -15.5 c 128,-1,8
 192 -16 192 -16 163 -6 c 0,9,10
 88 14 88 14 88 84 c 128,-1,11
 88 154 88 154 153 270 c 2,12,-1
 229 391 l 2,13,14
 295 502 295 502 355 567 c 1,15,-1
 390 539 l 2,16,17
 408 526 408 526 417 515 c 1,18,19
 490 455 490 455 522 422 c 0,20,21
 581 368.531 581 368.531 581 276 c 2,22,-1
 581 265 l 1,23,-1
 580 251 l 1,24,-1
 577 232 l 1,0,-1
490 177 m 1,25,26
 490 217 490 217 403 308 c 0,27,28
 327 392 327 392 303 400 c 1,29,-1
 243 317 l 2,30,31
 200 258 200 258 194 243 c 1,32,33
 194 195 194 195 231 171 c 0,34,35
 255 158 255 158 316.5 158 c 128,-1,36
 378 158 378 158 427 167 c 2,37,-1
 490 177 l 1,25,26
EndSplineSet
Substitution2: "'fina' Terminal Forms in Arabic lookup 4" hehfinal
Substitution2: "'medi' Medial Forms in Arabic lookup 3" hehmedial
Substitution2: "'init' Initial Forms in Arabic lookup 2" hehinitial
EndChar

StartChar: waw
Encoding: 1608 1608 38
Width: 818
GlyphClass: 2
Flags: MW
AnchorPoint: "ArabicBelow" 464 -492 basechar 0
AnchorPoint: "ArabicAbove" 548 720 basechar 0
LayerCount: 2
Fore
SplineSet
654 113 m 6,0,-1
 654 130 l 5,1,-1
 652 136 l 5,2,-1
 646 161 l 5,3,4
 646 170 646 170 637 193 c 5,5,-1
 622 150 l 5,6,-1
 596 95 l 5,7,-1
 587 81 l 6,8,9
 544.983 24.0762 544.983 24.0762 457.492 24.0381 c 132,-1,10
 370 24 370 24 338 90 c 4,11,12
 331 108 331 108 328 138 c 6,13,-1
 324 215 l 6,14,15
 324 280 324 280 402 397 c 4,16,17
 485 526 485 526 558 526 c 4,18,19
 608 526 608 526 669 419.5 c 132,-1,20
 730 313 730 313 730 198 c 4,21,22
 730 13 730 13 641 -163 c 4,23,24
 533 -370 533 -370 382 -370 c 4,25,26
 326 -370 326 -370 284 -360 c 6,27,-1
 255 -355 l 6,28,29
 243.19 -353.524 243.19 -353.524 228 -348 c 6,30,-1
 194 -340 l 6,31,32
 179 -337 179 -337 173 -335 c 6,33,-1
 152 -328 l 6,34,35
 8 -288 8 -288 0 -265 c 5,36,37
 0 -254 0 -254 24 -246 c 5,38,-1
 52 -251 l 5,39,-1
 121 -267 l 5,40,-1
 161 -274 l 5,41,-1
 202 -278 l 6,42,43
 233 -278 233 -278 244 -273 c 5,44,-1
 264 -270 l 5,45,-1
 282 -261 l 6,46,47
 410.813 -206.861 410.813 -206.861 532.407 -91.9305 c 132,-1,48
 654 23 654 23 654 113 c 6,0,-1
587 226 m 5,49,-1
 587 235 l 6,50,51
 587 277 587 277 557 307 c 132,-1,52
 527 337 527 337 494 337 c 4,53,54
 454 337 454 337 424 307 c 4,55,56
 388 277 388 277 388 258 c 132,-1,57
 388 239 388 239 428 215 c 5,58,-1
 467 204 l 5,59,-1
 504 200 l 5,60,-1
 521 201 l 5,61,-1
 530 202 l 5,62,-1
 587 226 l 5,49,-1
EndSplineSet
Substitution2: "'fina' Terminal Forms in Arabic lookup 4" wawfinal
EndChar

StartChar: alefmaksura
Encoding: 1609 1609 39
Width: 1139
GlyphClass: 2
Flags: MW
AnchorPoint: "ArabicBelow" 696 -408 basechar 0
AnchorPoint: "ArabicAbove" 732 816 basechar 0
LayerCount: 2
Fore
SplineSet
421 -283 m 0,0,1
 88 -283 88 -283 88 -39 c 0,2,3
 88 102 88 102 133 238 c 128,-1,4
 178 374 178 374 200.5 374 c 128,-1,5
 223 374 223 374 223 347.5 c 128,-1,6
 223 321 223 321 191.5 222 c 128,-1,7
 160 123 160 123 160 76 c 0,8,9
 160 -8 160 -8 260 -62 c 0,10,11
 346 -100 346 -100 455 -100 c 1,12,-1
 629 -68 l 1,13,-1
 699 -53 l 2,14,15
 817 -24 817 -24 867 11 c 1,16,17
 867 30 867 30 700 48.5 c 128,-1,18
 533 67 533 67 533 152 c 0,19,20
 533 276 533 276 656 452 c 0,21,22
 797.4 654 797.4 654 951 654 c 2,23,-1
 975 653 l 2,24,25
 1004.2 653 1004.2 653 1025 637 c 1,26,27
 1051 624 1051 624 1051 581 c 1,28,-1
 1033 500 l 1,29,-1
 1030 481 l 1,30,-1
 1012 424 l 1,31,32
 1008 399 1008 399 1003 387 c 128,-1,33
 998 375 998 375 990 370 c 1,34,35
 990 381 990 381 986 395 c 2,36,-1
 980 424 l 2,37,38
 967 478 967 478 898.5 478 c 128,-1,39
 830 478 830 478 735 407.5 c 128,-1,40
 640 337 640 337 640 292 c 256,41,42
 640 247 640 247 808.5 224.5 c 128,-1,43
 977 202 977 202 977 128 c 1,44,45
 967 70 967 70 951 31 c 2,46,-1
 910 -74 l 1,47,48
 879 -100 879 -100 815 -146 c 0,49,50
 759 -180 759 -180 706 -209 c 0,51,52
 558 -283 558 -283 421 -283 c 0,0,1
EndSplineSet
Substitution2: "'fina' Terminal Forms in Arabic lookup 4" alefmaksurafinal
EndChar

StartChar: yeh
Encoding: 1610 1610 40
Width: 1158
GlyphClass: 2
Flags: MW
AnchorPoint: "ArabicBelow" 516 -648 basechar 0
AnchorPoint: "ArabicAbove" 696 708 basechar 0
LayerCount: 2
Fore
SplineSet
1071 590 m 1,0,-1
 1071 579 l 1,1,-1
 1069 568 l 1,2,3
 1069 559 1069 559 1063 541 c 2,4,-1
 1049 497 l 1,5,-1
 1026 437 l 2,6,7
 1015.88 397.542 1015.88 397.542 1005 383 c 1,8,9
 1005 402 1005 402 1001 410 c 1,10,-1
 995 435 l 2,11,12
 982 487 982 487 912 487 c 128,-1,13
 842 487 842 487 745 415 c 0,14,15
 650 346.277 650 346.277 650 301.138 c 128,-1,16
 650 256 650 256 813.5 228 c 128,-1,17
 977 200 977 200 977 126 c 1,18,-1
 955 19 l 2,19,20
 942 -27 942 -27 911 -89 c 1,21,22
 765.342 -215.584 765.342 -215.584 572 -260 c 2,23,-1
 504 -273 l 2,24,25
 469 -278 469 -278 421.5 -278 c 0,26,27
 319.36 -278 319.36 -278 232 -236 c 0,28,29
 88 -169 88 -169 88 -11 c 0,30,31
 88 67.3333 88 67.3333 99 126 c 2,32,-1
 105 162 l 1,33,34
 105 178.5 105 178.5 142.5 289.75 c 128,-1,35
 180 401 180 401 203 404 c 0,36,37
 221 404 221 404 221 381 c 256,38,39
 221 357 221 357 192 254 c 2,40,-1
 171 165 l 2,41,42
 163 126 163 126 163 102 c 2,43,-1
 163 87 l 2,44,45
 163 -1 163 -1 275 -57 c 0,46,47
 364 -98 364 -98 473 -98 c 2,48,-1
 497 -97 l 2,49,50
 509 -97 509 -97 522 -93 c 2,51,52
 555 -91 555 -91 585 -82 c 2,53,-1
 624 -75 l 1,54,-1
 634 -74 l 1,55,-1
 697 -54 l 2,56,57
 819 -24 819 -24 867 11 c 1,58,59
 867 28 867 28 700.5 53 c 128,-1,60
 534 78 534 78 534 163 c 0,61,62
 534 275 534 275 683.5 469 c 128,-1,63
 833 663 833 663 971 663 c 0,64,65
 1020.9 663 1020.9 663 1043 646 c 1,66,67
 1060.23 636.52 1060.23 636.52 1069 610 c 1,68,-1
 1071 590 l 1,0,-1
736 -415 m 1,69,-1
 686 -478 l 2,70,71
 655 -517 655 -517 650 -518 c 1,72,-1
 633 -510 l 1,73,-1
 557 -466 l 1,74,-1
 530 -448 l 1,75,-1
 479 -497 l 1,76,-1
 465 -515 l 1,77,78
 444 -510 444 -510 400 -483 c 2,79,-1
 366 -461 l 1,80,-1
 345 -446 l 1,81,-1
 415 -361 l 1,82,-1
 425 -353 l 1,83,-1
 434 -344 l 1,84,85
 441 -358 441 -358 486 -383 c 0,86,87
 526 -410 526 -410 541 -410 c 1,88,-1
 548 -406 l 1,89,-1
 614 -342 l 1,90,-1
 736 -415 l 1,69,-1
EndSplineSet
Substitution2: "'fina' Terminal Forms in Arabic lookup 4" yehfinal
Substitution2: "'medi' Medial Forms in Arabic lookup 3" yehmedial
Substitution2: "'init' Initial Forms in Arabic lookup 2" yehinitial
EndChar

StartChar: fathatan
Encoding: 1611 1611 41
Width: -35
VWidth: 1884
GlyphClass: 4
Flags: MW
AnchorPoint: "ArabicAboveLigature" 208.9 1137.3 mark 0
AnchorPoint: "ArabicAbove" 214.3 1136.1 mark 0
LayerCount: 2
Fore
SplineSet
354.7 1595.7 m 1,0,-1
 353.5 1560.9 l 2,1,2
 353.5 1541.7 353.5 1541.7 346.9 1527.9 c 128,-1,3
 340.3 1514.1 340.3 1514.1 303.1 1488.9 c 2,4,-1
 -1.7002 1314.9 l 1,5,6
 -1.7002 1354.5 -1.7002 1354.5 11.5 1383.3 c 1,7,8
 23.5 1401.3 23.5 1401.3 67.9004 1427.7 c 2,9,-1
 354.7 1595.7 l 1,0,-1
354.7 1437.3 m 1,10,-1
 353.5 1404.9 l 2,11,12
 353.5 1384.5 353.5 1384.5 346.9 1371.3 c 128,-1,13
 340.3 1358.1 340.3 1358.1 303.1 1330.5 c 2,14,-1
 -1.7002 1155.3 l 1,15,16
 -1.7002 1202.02 -1.7002 1202.02 9.6997 1221.26 c 128,-1,17
 21.0996 1240.5 21.0996 1240.5 67.9004 1269.3 c 2,18,-1
 354.7 1437.3 l 1,10,-1
EndSplineSet
Ligature2: "'liga' Tashkil Ligatures" fathah fathah
EndChar

StartChar: dammatan
Encoding: 1612 1612 42
Width: -47
VWidth: 1889
GlyphClass: 4
Flags: MW
AnchorPoint: "ArabicAboveLigature" 302.3 1115.3 mark 0
AnchorPoint: "ArabicAbove" 294.5 1114.1 mark 0
LayerCount: 2
Fore
SplineSet
407.3 1364.9 m 1,0,1
 448.1 1335.43 448.1 1335.43 448.1 1289.3 c 2,2,-1
 445.7 1229.3 l 1,3,-1
 386.9 1261.7 l 1,4,-1
 348.5 1289.3 l 1,5,6
 287.6 1228.4 287.6 1228.4 221.3 1182.5 c 0,7,8
 170.9 1151.3 170.9 1151.3 95.2998 1138.1 c 1,9,-1
 128.9 1220.9 l 1,10,11
 136.7 1250.3 l 2,12,13
 139.7 1261.7 139.7 1261.7 139.7 1281.5 c 128,-1,14
 139.7 1301.3 139.7 1301.3 125.3 1316.9 c 128,-1,15
 110.9 1332.5 110.9 1332.5 91.7 1332.5 c 128,-1,16
 72.5 1332.5 72.5 1332.5 59.2998 1315.7 c 1,17,18
 49.7002 1298.9 49.7002 1298.9 36.5 1249.7 c 1,19,-1
 28.0996 1284.5 l 1,20,-1
 26.9004 1309.7 l 2,21,22
 26.9004 1361.3 26.9004 1361.3 50.9004 1392.5 c 128,-1,23
 74.9004 1423.7 74.9004 1423.7 110.9 1423.7 c 0,24,25
 188.9 1423.7 188.9 1423.7 188.9 1301.3 c 0,26,27
 188.9 1266.5 188.9 1266.5 179.3 1218.5 c 1,28,29
 212.9 1234.1 212.9 1234.1 241.7 1252.7 c 128,-1,30
 270.5 1271.3 270.5 1271.3 311.3 1315.7 c 1,31,32
 269.3 1337.3 269.3 1337.3 254.9 1359.5 c 128,-1,33
 240.5 1381.7 240.5 1381.7 240.5 1421.9 c 128,-1,34
 240.5 1462.1 240.5 1462.1 281.3 1515.5 c 128,-1,35
 322.1 1568.9 322.1 1568.9 370.1 1568.9 c 0,36,37
 409.885 1568.9 409.885 1568.9 433.7 1517.3 c 0,38,39
 440.9 1501.7 440.9 1501.7 440.9 1483.7 c 2,40,-1
 439.7 1460.9 l 2,41,42
 439.7 1447.7 439.7 1447.7 436.1 1435.7 c 2,43,-1
 407.3 1364.9 l 1,0,1
370.1 1442.9 m 1,44,45
 368.926 1476.53 368.926 1476.53 350.9 1493.3 c 1,46,-1
 329.3 1501.7 l 1,47,48
 316.1 1501.7 316.1 1501.7 306.5 1492.1 c 1,49,-1
 298.1 1471.7 l 1,50,51
 298.1 1448.23 298.1 1448.23 364.1 1399.7 c 1,52,-1
 367.7 1428.5 l 1,53,-1
 370.1 1442.9 l 1,44,45
EndSplineSet
LCarets2: 1 0 
Ligature2: "'liga' Tashkil Ligatures" dammah dammah
EndChar

StartChar: kasratan
Encoding: 1613 1613 43
Width: -36
VWidth: 2299
GlyphClass: 4
Flags: MW
AnchorPoint: "ArabicBelowLigature" 136.7 -523.4 mark 0
AnchorPoint: "ArabicBelow" 136.7 -581 mark 0
LayerCount: 2
Fore
SplineSet
358.7 -476.6 m 1,0,1
 358.7 -528.2 358.7 -528.2 350.3 -545 c 128,-1,2
 341.9 -561.8 341.9 -561.8 307.1 -582.2 c 2,3,-1
 2.2998 -758.6 l 1,4,5
 2.2998 -719 2.2998 -719 14.2998 -690.2 c 1,6,7
 27.5 -671 27.5 -671 71.9004 -645.8 c 2,8,-1
 358.7 -476.6 l 1,0,1
358.7 -631.4 m 1,9,10
 358.7 -684.2 358.7 -684.2 350.3 -700.4 c 128,-1,11
 341.9 -716.6 341.9 -716.6 307.1 -737 c 2,12,-1
 2.2998 -913.4 l 1,13,14
 2.2998 -873.8 2.2998 -873.8 14.2998 -845 c 1,15,16
 27.5 -825.8 27.5 -825.8 71.9004 -800.6 c 2,17,-1
 358.7 -631.4 l 1,9,10
EndSplineSet
Ligature2: "'liga' Tashkil Ligatures" kasrah kasrah
EndChar

StartChar: fathah
Encoding: 1614 1614 44
Width: -34
VWidth: 1875
GlyphClass: 4
Flags: MW
AnchorPoint: "ArabicAboveLigature" 222.6 1273.5 mark 0
AnchorPoint: "ArabicAbove" 228 1265.7 mark 0
LayerCount: 2
Fore
SplineSet
352.8 1561.5 m 5,0,-1
 351.6 1529.1 l 6,1,2
 351.6 1508.7 351.6 1508.7 344.4 1494.9 c 132,-1,3
 337.2 1481.1 337.2 1481.1 300 1453.5 c 6,4,-1
 -4.7998 1279.5 l 5,5,6
 -4.7998 1324.8 -4.7998 1324.8 6.6001 1344.75 c 132,-1,7
 18 1364.7 18 1364.7 64.7998 1392.3 c 6,8,-1
 352.8 1561.5 l 5,0,-1
EndSplineSet
EndChar

StartChar: dammah
Encoding: 1615 1615 45
Width: -33
VWidth: 1889
GlyphClass: 4
Flags: MW
AnchorPoint: "ArabicAboveLigature" 243.4 1115 mark 0
AnchorPoint: "ArabicAbove" 248.8 1107.2 mark 0
LayerCount: 2
Fore
SplineSet
271 1579.4 m 5,0,1
 341.8 1579.4 341.8 1579.4 341.8 1487 c 4,2,3
 341.8 1458.2 341.8 1458.2 336.4 1438.4 c 132,-1,4
 331 1418.6 331 1418.6 309.4 1363.4 c 5,5,-1
 350.2 1331 l 5,6,-1
 341.8 1227.8 l 5,7,-1
 301 1251.8 l 5,8,-1
 257.8 1281.8 l 5,9,-1
 211 1226.6 l 5,10,-1
 159.4 1178.6 l 6,11,12
 100.6 1130.6 100.6 1130.6 49 1130.6 c 4,13,14
 28.5996 1130.6 28.5996 1130.6 17.7998 1135.4 c 5,15,-1
 -12.2002 1143.8 l 5,16,17
 40.5996 1172.6 40.5996 1172.6 95.7998 1209.8 c 6,18,-1
 212.2 1308.2 l 5,19,20
 177.4 1335.8 177.4 1335.8 161.8 1355 c 5,21,-1
 153.4 1374.2 l 5,22,-1
 149.8 1386.2 l 5,23,24
 149.8 1397 149.8 1397 147.4 1403 c 5,25,26
 147.4 1452.2 147.4 1452.2 187 1519.4 c 4,27,28
 199 1544.6 199 1544.6 225.4 1566.2 c 5,29,-1
 244.6 1574.6 l 5,30,-1
 271 1579.4 l 5,0,1
277 1423.4 m 5,31,32
 277 1442.6 277 1442.6 260.2 1466 c 132,-1,33
 243.4 1489.4 243.4 1489.4 222.4 1489.4 c 132,-1,34
 201.4 1489.4 201.4 1489.4 201.4 1463 c 4,35,36
 201.4 1455.8 201.4 1455.8 214.6 1433 c 5,37,-1
 271 1389.8 l 5,38,-1
 277 1423.4 l 5,31,32
EndSplineSet
EndChar

StartChar: kasrah
Encoding: 1616 1616 46
Width: -35
VWidth: 2307
GlyphClass: 4
Flags: MW
AnchorPoint: "ArabicBelowLigature" 137.5 -659.3 mark 0
AnchorPoint: "ArabicBelow" 166.3 -688.1 mark 0
LayerCount: 2
Fore
SplineSet
354.7 -594.5 m 1,0,1
 354.7 -646.1 354.7 -646.1 346.3 -661.7 c 0,2,3
 340.3 -677.3 340.3 -677.3 303.1 -702.5 c 2,4,-1
 -1.7002 -876.5 l 1,5,6
 -1.7002 -829.7 -1.7002 -829.7 10.2998 -809.9 c 128,-1,7
 22.2998 -790.1 22.2998 -790.1 67.9004 -762.5 c 2,8,-1
 354.7 -594.5 l 1,0,1
EndSplineSet
EndChar

StartChar: shaddah
Encoding: 1617 1617 47
Width: -35
VWidth: 1878
GlyphClass: 4
Flags: MW
AnchorPoint: "ArabicAboveLigature" 195.8 1111.5 mark 0
AnchorPoint: "ArabicAbove" 195.2 1115.7 mark 0
LayerCount: 2
Fore
SplineSet
36.7998 1456.5 m 1,0,1
 36.7998 1340.1 36.7998 1340.1 77.5996 1340.1 c 0,2,3
 108.8 1340.1 108.8 1340.1 140.6 1390.5 c 128,-1,4
 172.4 1440.9 172.4 1440.9 172.4 1510.5 c 1,5,-1
 192.8 1517.7 l 1,6,7
 204.8 1468.5 204.8 1468.5 221.6 1432.5 c 0,8,9
 233.6 1413.3 233.6 1413.3 254 1413.3 c 128,-1,10
 274.4 1413.3 274.4 1413.3 302 1457.7 c 0,11,12
 324.8 1502.1 324.8 1502.1 324.8 1569.3 c 1,13,-1
 347.6 1580.1 l 1,14,-1
 360.8 1528.5 l 2,15,16
 363.2 1509.3 363.2 1509.3 363.2 1452.3 c 128,-1,17
 363.2 1395.3 363.2 1395.3 332.6 1347.9 c 128,-1,18
 302 1300.5 302 1300.5 252.8 1300.5 c 0,19,20
 238.4 1300.5 238.4 1300.5 185.6 1323.3 c 1,21,22
 170 1287.3 170 1287.3 137.6 1251.3 c 1,23,24
 111.2 1230.9 111.2 1230.9 77.6 1230.9 c 128,-1,25
 44 1230.9 44 1230.9 12.7998 1263.3 c 0,26,27
 -11.2002 1295.7 -11.2002 1295.7 -11.2002 1346.1 c 2,28,-1
 -11.2002 1371.3 l 2,29,30
 -11.2002 1385.7 -11.2002 1385.7 -2.7998 1404.9 c 2,31,-1
 12.7998 1452.9 l 1,32,-1
 36.7998 1456.5 l 1,0,1
EndSplineSet
EndChar

StartChar: sukun
Encoding: 1618 1618 48
Width: -27
VWidth: 1877
GlyphClass: 4
Flags: MW
AnchorPoint: "ArabicAboveLigature" 123.9 1162.8 mark 0
AnchorPoint: "ArabicAbove" 122.7 1155 mark 0
LayerCount: 2
Fore
SplineSet
237.3 1527.6 m 128,-1,1
 275.7 1479 275.7 1479 275.7 1414.8 c 128,-1,2
 275.7 1350.6 275.7 1350.6 228.3 1300.2 c 128,-1,3
 180.9 1249.8 180.9 1249.8 116.1 1249.8 c 0,4,5
 3.2998 1249.8 3.2998 1249.8 3.2998 1375.8 c 0,6,7
 3.2998 1463.4 3.2998 1463.4 42.9004 1519.8 c 128,-1,8
 82.5 1576.2 82.5 1576.2 140.7 1576.2 c 128,-1,0
 198.9 1576.2 198.9 1576.2 237.3 1527.6 c 128,-1,1
218.1 1393.8 m 256,9,10
 218.1 1411.8 218.1 1411.8 173.7 1448.4 c 128,-1,11
 129.3 1485 129.3 1485 107.1 1485 c 128,-1,12
 84.9004 1485 84.9004 1485 57.2998 1463.4 c 1,13,14
 38.0996 1440.6 38.0996 1440.6 38.0996 1413 c 0,15,16
 38.0996 1353 38.0996 1353 129.3 1353 c 0,17,18
 167.7 1353 167.7 1353 192.9 1364.4 c 128,-1,19
 218.1 1375.8 218.1 1375.8 218.1 1393.8 c 256,9,10
EndSplineSet
EndChar

StartChar: arabicindicdigitzero
Encoding: 1632 1632 49
Width: 689
GlyphClass: 2
Flags: MW
LayerCount: 2
Fore
SplineSet
465 403 m 1,0,-1
 400 172 l 1,1,-1
 213 287 l 1,2,-1
 279 518 l 1,3,-1
 465 403 l 1,0,-1
EndSplineSet
EndChar

StartChar: arabicindicdigitone
Encoding: 1633 1633 50
Width: 689
GlyphClass: 2
Flags: MW
LayerCount: 2
Fore
SplineSet
481 127 m 2,0,1
 481 -57 481 -57 439 -57 c 0,2,3
 422 -57 422 -57 406 9 c 0,4,5
 369.566 262.012 369.566 262.012 346 317 c 0,6,7
 309.047 422.581 309.047 422.581 263 507 c 2,8,-1
 200 613 l 1,9,-1
 201 634 l 1,10,-1
 208 660 l 2,11,12
 214 681 214 681 220.5 698.5 c 128,-1,13
 227 716 227 716 244.5 764.5 c 0,14,15
 263.2 816.327 263.2 816.327 275.234 816.327 c 128,-1,16
 287.268 816.327 287.268 816.327 335.634 747.164 c 0,17,18
 430.846 611.01 430.846 611.01 466 380 c 0,19,20
 480 288 480 288 480 214 c 2,21,-1
 480 183 l 1,22,-1
 481 127 l 2,0,1
EndSplineSet
EndChar

StartChar: arabicindicdigittwo
Encoding: 1634 1634 51
Width: 689
GlyphClass: 2
Flags: MW
LayerCount: 2
Fore
SplineSet
572 794 m 0,0,1
 584 794 584 794 584 747.5 c 0,2,3
 584 551.225 584 551.225 511 491 c 2,4,-1
 484 474 l 1,5,-1
 450 456 l 1,6,-1
 417 443 l 1,7,-1
 393 435 l 1,8,-1
 415 345 l 1,9,-1
 425 298 l 1,10,-1
 439 214 l 1,11,-1
 445 145 l 1,12,-1
 447 74 l 2,13,14
 447 -68 447 -68 410 -68 c 0,15,16
 384 -68 384 -68 371 9 c 0,17,18
 348.763 140.711 348.763 140.711 322 221 c 2,19,-1
 305 276 l 2,20,21
 251 434 251 434 196 526 c 2,22,-1
 106 655 l 1,23,-1
 116 680 l 1,24,-1
 124 698 l 2,25,26
 134 727 134 727 149 746 c 2,27,-1
 186 794 l 1,28,-1
 254 737 l 1,29,-1
 311 668 l 1,30,-1
 345 665 l 1,31,-1
 388 668 l 1,32,-1
 432 672 l 2,33,34
 477 678 477 678 514 736 c 128,-1,35
 551 794 551 794 572 794 c 0,0,1
EndSplineSet
EndChar

StartChar: arabicindicdigitthree
Encoding: 1635 1635 52
Width: 689
GlyphClass: 2
Flags: MW
LayerCount: 2
Fore
SplineSet
620 735 m 2,0,1
 629 754 629 754 642.5 759 c 128,-1,2
 656 764 656 764 665 754 c 1,3,-1
 671 739 l 1,4,-1
 672 715 l 2,5,6
 672 649 672 649 639.5 567 c 0,7,8
 599.469 466 599.469 466 526 466 c 0,9,10
 492 466 492 466 457 481 c 2,11,-1
 424 493 l 1,12,-1
 406 501 l 1,13,-1
 389 511 l 1,14,15
 342 463 342 463 298 444 c 2,16,-1
 264 434 l 1,17,-1
 279 381 l 1,18,-1
 294 322 l 1,19,-1
 301 268 l 1,20,-1
 305 222 l 1,21,-1
 305 98 l 2,22,23
 305 1 305 1 298 -35.5 c 128,-1,24
 291 -72 291 -72 265 -72 c 256,25,26
 240 -72 240 -72 224.5 57 c 128,-1,27
 209 186 209 186 176 278 c 2,28,-1
 127 403 l 2,29,30
 104 461 104 461 87 494 c 2,31,-1
 11 621 l 1,32,-1
 35 667 l 2,33,34
 61 714 61 714 102 758 c 1,35,-1
 163 691 l 2,36,37
 234 618 234 618 276 618 c 0,38,39
 288 618 288 618 300 624 c 0,40,41
 345 652 345 652 379 700 c 2,42,-1
 443 791 l 1,43,44
 468 791 468 791 468 757 c 2,45,-1
 468 736 l 1,46,-1
 469 714 l 1,47,48
 472 703 472 703 498 682 c 0,49,50
 525 664 525 664 550.5 664 c 128,-1,51
 576 664 576 664 595 683 c 1,52,-1
 620 735 l 2,0,1
EndSplineSet
EndChar

StartChar: arabicindicdigitfour
Encoding: 1636 1636 53
Width: 689
GlyphClass: 2
Flags: MW
LayerCount: 2
Fore
SplineSet
548 124 m 1,0,-1
 487 -52 l 1,1,2
 480 -54 480 -54 453.5 -54 c 128,-1,3
 427 -54 427 -54 319 -19 c 0,4,5
 158 33 158 33 158 111 c 0,6,7
 158 149 158 149 202 217 c 2,8,-1
 304 357 l 1,9,10
 304 365 304 365 255.5 397 c 0,11,12
 181.934 445.538 181.934 445.538 158 476 c 0,13,14
 156 479 156 479 152 507 c 1,15,16
 152 626.048 152 626.048 300 758 c 0,17,18
 393 837 393 837 441 837 c 1,19,-1
 417 683 l 1,20,-1
 356 663 l 2,21,22
 300 636 300 636 292 613 c 1,23,24
 292 603 292 603 350 567 c 2,25,-1
 471 509 l 1,26,-1
 474 491 l 1,27,28
 474 450 474 450 416 376 c 2,29,-1
 345 301 l 2,30,31
 307.606 261.825 307.606 261.825 298 221 c 1,32,-1
 301 214 l 1,33,34
 316 203 316 203 355 186 c 2,35,-1
 447 154 l 1,36,-1
 503 140 l 1,37,-1
 548 124 l 1,0,-1
EndSplineSet
EndChar

StartChar: arabicindicdigitfive
Encoding: 1637 1637 54
Width: 689
GlyphClass: 2
Flags: MW
LayerCount: 2
Fore
SplineSet
596 480 m 1,0,-1
 599 458 l 1,1,-1
 600 439 l 2,2,3
 600 373 600 373 579.5 286.5 c 128,-1,4
 559 200 559 200 530 174 c 0,5,6
 457.272 115.125 457.272 115.125 360 95 c 2,7,-1
 331 91 l 1,8,-1
 301 89 l 2,9,10
 209.785 89 209.785 89 151 153.5 c 0,11,12
 115 193 115 193 115 274 c 0,13,14
 115 406 115 406 204.5 569 c 128,-1,15
 294 732 294 732 374 732 c 0,16,17
 429 732 429 732 494 656.5 c 128,-1,18
 559 581 559 581 596 480 c 1,0,-1
509 328 m 0,19,20
 510.943 329.943 510.943 329.943 510.943 333.783 c 0,21,22
 510.943 355.644 510.943 355.644 439.471 447.822 c 128,-1,23
 368 540 368 540 307 540 c 0,24,25
 291 540 291 540 256 478.5 c 128,-1,26
 221 417 221 417 221 366 c 2,27,-1
 224 332 l 1,28,29
 229 318 229 318 267 296 c 1,30,-1
 284 290 l 1,31,-1
 310 284 l 1,32,-1
 360 280 l 1,33,-1
 379 280 l 1,34,-1
 400 281 l 2,35,36
 415 281 415 281 421 286 c 1,37,-1
 443 292 l 2,38,39
 486 304 486 304 509 328 c 0,19,20
EndSplineSet
EndChar

StartChar: arabicindicdigitsix
Encoding: 1638 1638 55
Width: 689
GlyphClass: 2
Flags: MW
LayerCount: 2
Fore
SplineSet
590 155 m 1,0,-1
 591 143 l 2,1,2
 591 119 591 119 568.5 43.5 c 256,3,4
 546 -32 546 -32 537 -33 c 0,5,6
 513 -33 513 -33 454 61 c 0,7,8
 387 178 387 178 387 311 c 2,9,-1
 388 388 l 1,10,-1
 388 421 l 1,11,-1
 389 454 l 1,12,-1
 390 497 l 1,13,-1
 396 535 l 1,14,-1
 356 528 l 1,15,-1
 301 521 l 1,16,-1
 261 519 l 2,17,18
 190 519 190 519 149 534.5 c 256,19,20
 108 550 108 550 76 598 c 1,21,-1
 69 621 l 1,22,-1
 67 646 l 2,23,24
 67 685 67 685 96 785 c 1,25,-1
 165 746 l 2,26,27
 237 715 237 715 303.5 715 c 256,28,29
 370 715 370 715 454 737 c 2,30,-1
 487 742 l 1,31,-1
 477 693 l 1,32,-1
 467 635 l 1,33,-1
 461 592 l 1,34,-1
 457 521 l 1,35,-1
 458 482 l 1,36,-1
 461 447 l 1,37,-1
 464 422 l 2,38,39
 464 411 464 411 468 403 c 1,40,-1
 480 361 l 2,41,42
 500 289 500 289 537 228 c 2,43,-1
 559 193 l 2,44,45
 570 178 570 178 590 155 c 1,0,-1
EndSplineSet
EndChar

StartChar: arabicindicdigitseven
Encoding: 1639 1639 56
Width: 689
GlyphClass: 2
Flags: MW
LayerCount: 2
Fore
SplineSet
661 665 m 1,0,1
 631 638 631 638 581 553.5 c 128,-1,2
 531 469 531 469 475 326 c 2,3,-1
 397 83 l 2,4,5
 368 -5 368 -5 350 -13 c 1,6,7
 332 -13 332 -13 306 71 c 0,8,9
 271.565 211.87 271.565 211.87 221 313 c 2,10,-1
 186 388 l 2,11,12
 146.268 475.829 146.268 475.829 85 552 c 2,13,-1
 22 621 l 1,14,-1
 46 692 l 2,15,16
 72 760 72 760 96 795 c 1,17,-1
 143 746 l 1,18,-1
 193 672 l 1,19,-1
 233 598 l 1,20,-1
 317 394 l 1,21,-1
 370 255 l 1,22,-1
 429 432 l 1,23,-1
 478 562 l 1,24,-1
 503 618 l 2,25,26
 530 683 530 683 578.516 751.07 c 128,-1,27
 627.031 819.141 627.031 819.141 637.992 819.141 c 0,28,29
 638.531 819.141 638.531 819.141 640.266 818.07 c 128,-1,30
 642 817 642 817 657 737 c 2,31,-1
 661 665 l 1,0,1
EndSplineSet
EndChar

StartChar: arabicindicdigiteight
Encoding: 1640 1640 57
Width: 689
GlyphClass: 2
Flags: MW
LayerCount: 2
Fore
SplineSet
664 143 m 1,0,-1
 650 98 l 2,1,2
 621 1 621 1 595 -35 c 1,3,-1
 548 16 l 2,4,5
 524 47 524 47 502 86 c 2,6,-1
 461 167 l 1,7,-1
 427 243 l 1,8,-1
 326 502 l 1,9,-1
 236 260 l 1,10,-1
 192 154 l 2,11,12
 160 78 160 78 114 10 c 128,-1,13
 68 -58 68 -58 53 -62 c 1,14,15
 34 -49 34 -49 34 61 c 2,16,-1
 33 112 l 1,17,-1
 115 217 l 2,18,19
 161 297 161 297 215 434 c 2,20,-1
 279 621 l 2,21,22
 326 770 326 770 345 770 c 0,23,24
 368 770 368 770 393 687 c 0,25,26
 423.854 547.128 423.854 547.128 474 454 c 0,27,28
 533 322 533 322 578 255 c 2,29,-1
 664 143 l 1,0,-1
EndSplineSet
EndChar

StartChar: arabicindicdigitnine
Encoding: 1641 1641 58
Width: 689
GlyphClass: 2
Flags: MW
LayerCount: 2
Fore
SplineSet
599 118 m 1,0,-1
 600 107 l 2,1,2
 600 80 600 80 577.5 -0.5 c 128,-1,3
 555 -81 555 -81 546 -84 c 1,4,5
 517 -79 517 -79 461 52 c 2,6,-1
 440 107 l 1,7,-1
 422 168 l 2,8,9
 406 230 406 230 393 311 c 1,10,-1
 380 314 l 1,11,-1
 339 319 l 2,12,13
 208.317 319 208.317 319 145 378 c 0,14,15
 105 410 105 410 100 435 c 1,16,-1
 98 476 l 2,17,18
 98 574 98 574 182 703 c 128,-1,19
 266 832 266 832 329.5 832 c 128,-1,20
 393 832 393 832 440 742 c 128,-1,21
 487 652 487 652 487 481 c 0,22,23
 487 312.133 487 312.133 543 202 c 0,24,25
 548 189 548 189 554.5 179 c 128,-1,26
 561 169 561 169 564 163 c 1,27,-1
 583 136 l 1,28,-1
 599 118 l 1,0,-1
372 509 m 1,29,30
 367 540 367 540 365.5 552 c 128,-1,31
 364 564 364 564 357 576 c 1,32,33
 336 641 336 641 294 650 c 1,34,35
 278 650 278 650 251 616.5 c 128,-1,36
 224 583 224 583 224 565 c 1,37,38
 228 561 228 561 292 526 c 1,39,40
 348 509 348 509 363 507 c 1,41,-1
 372 509 l 1,29,30
EndSplineSet
EndChar

StartChar: arabicpercentsign
Encoding: 1642 1642 59
Width: 689
GlyphClass: 2
Flags: MW
LayerCount: 2
Fore
SplineSet
222 682 m 1,0,-1
 180 534 l 1,1,-1
 61 609 l 1,2,-1
 104 752 l 1,3,-1
 222 682 l 1,0,-1
563 876 m 1,4,-1
 264 56 l 1,5,-1
 246 19 l 2,6,7
 239 4 239 4 227 -10.5 c 0,8,9
 210.346 -29.9192 210.346 -29.9192 167 -48 c 2,10,-1
 150 -54 l 1,11,-1
 453 761 l 2,12,13
 458 780 458 780 476 810 c 1,14,-1
 493 830 l 1,15,-1
 501 837 l 2,16,17
 530.656 857.844 530.656 857.844 563 876 c 1,4,-1
626 200 m 1,18,-1
 584 52 l 1,19,-1
 465 126 l 1,20,-1
 506 270 l 1,21,-1
 626 200 l 1,18,-1
EndSplineSet
EndChar

StartChar: arabicfivepointedstar
Encoding: 1645 1645 60
Width: 716
GlyphClass: 2
Flags: MW
LayerCount: 2
Fore
SplineSet
662 565 m 1,0,-1
 470 424 l 1,1,-1
 542 196 l 1,2,-1
 348 335 l 1,3,-1
 154 196 l 1,4,-1
 226 424 l 1,5,-1
 34 565 l 1,6,-1
 272 565 l 1,7,-1
 348 794 l 1,8,-1
 424 565 l 1,9,-1
 662 565 l 1,0,-1
EndSplineSet
EndChar

StartChar: ornateleftparenthesis
Encoding: 64830 64830 61
Width: 840
GlyphClass: 2
Flags: MW
LayerCount: 2
Fore
SplineSet
258 611 m 1,0,1
 259.63 625.524 259.63 625.524 287 622 c 2,2,-1
 381 608 l 1,3,4
 419 718 419 718 505 828 c 2,5,-1
 539 868 l 2,6,7
 556 889 556 889 570 902 c 2,8,-1
 607 937 l 1,9,-1
 647 971 l 2,10,11
 703 1017 703 1017 721 1022 c 1,12,13
 733 1022 733 1022 738 1009 c 1,14,-1
 735 1002 l 1,15,-1
 722 984 l 1,16,-1
 653 904 l 2,17,18
 612 856 612 856 561.5 759 c 128,-1,19
 511 662 511 662 511 620 c 2,20,-1
 512 608 l 1,21,-1
 577 615 l 2,22,23
 589 615 589 615 592 613 c 1,24,-1
 599 604 l 1,25,26
 594.429 592.571 594.429 592.571 583 574 c 1,27,-1
 492 471 l 1,28,-1
 486 456 l 1,29,30
 486 443 486 443 501 443 c 1,31,-1
 518 448 l 1,32,-1
 627 530 l 2,33,34
 644 543 644 543 655 543 c 128,-1,35
 666 543 666 543 666 524 c 2,36,-1
 666 444 l 1,37,38
 679 441 679 441 693 433 c 2,39,-1
 720 417 l 2,40,41
 780.45 373.226 780.45 373.226 720 326 c 1,42,-1
 697 313 l 1,43,-1
 666 298 l 1,44,-1
 666 218 l 2,45,46
 666 197 666 197 655 193 c 1,47,48
 647 193 647 193 634 204 c 2,49,-1
 523 287 l 2,50,51
 516 292 516 292 498 296 c 1,52,53
 491 296 491 296 483 285 c 1,54,55
 483 279 483 279 487 272 c 1,56,-1
 592 154 l 1,57,-1
 596 144 l 1,58,-1
 599 135 l 1,59,60
 599 126 599 126 569 126 c 2,61,-1
 505 134 l 1,62,-1
 504 124 l 2,63,64
 504 80 504 80 560 -28 c 2,65,-1
 584 -71 l 1,66,-1
 606 -106 l 2,67,68
 621 -131 621 -131 649 -165 c 2,69,-1
 697 -220 l 2,70,71
 728 -252 728 -252 733 -265 c 1,72,73
 733 -272 733 -272 720 -280 c 1,74,75
 703 -280 703 -280 649 -235 c 0,76,77
 450.357 -69.4643 450.357 -69.4643 375 134 c 1,78,-1
 277 115 l 2,79,80
 273 114.5 273 114.5 269.667 114.5 c 0,81,82
 253 114.5 253 114.5 253 124.25 c 128,-1,83
 253 134 253 134 262 149 c 2,84,-1
 345 263 l 1,85,86
 349 266 349 266 357 287 c 1,87,88
 357 294 357 294 344 302 c 1,89,90
 330 302 330 302 312 287 c 2,91,-1
 218 204 l 2,92,93
 214 200 214 200 192 189 c 1,94,95
 174 189 174 189 174 222 c 2,96,-1
 174 298 l 1,97,98
 157 301 157 301 124 324 c 128,-1,99
 91 347 91 347 89.5 367.5 c 128,-1,100
 88 388 88 388 116 410 c 2,101,-1
 136 423 l 1,102,-1
 174 443 l 1,103,-1
 174 526 l 2,104,105
 174 548 174 548 192 550 c 0,106,107
 198 550 198 550 214 540 c 1,108,-1
 318 448 l 2,109,110
 321 446 321 446 342 439 c 1,111,112
 349 439 349 439 357 453 c 1,113,114
 357 461 357 461 351 469 c 2,115,-1
 268 585 l 2,116,117
 260 598 260 598 258 611 c 1,0,1
547 580 m 1,118,-1
 544 583 l 1,119,-1
 455 567 l 1,120,-1
 476 642 l 1,121,-1
 490 685 l 1,122,-1
 505 717 l 1,123,-1
 505 788 l 1,124,125
 484 766 484 766 439 679 c 2,126,-1
 408 611 l 2,127,128
 398 584 398 584 398 570 c 1,129,-1
 305 590 l 1,130,-1
 368 491 l 1,131,-1
 374 491 l 1,132,-1
 374 534 l 1,133,-1
 407 534 l 1,134,-1
 433 578 l 1,135,-1
 435 534 l 1,136,-1
 466 534 l 1,137,-1
 466 496 l 1,138,-1
 547 580 l 1,118,-1
633 370 m 1,139,140
 613.457 362.043 613.457 362.043 592 356 c 1,141,-1
 592 328 l 1,142,-1
 531 328 l 1,143,-1
 526 324 l 1,144,-1
 633 248 l 1,145,-1
 633 324 l 1,146,147
 641 324 641 324 676.5 340 c 128,-1,148
 712 356 712 356 718 370 c 1,149,150
 718 381 718 381 684 399 c 128,-1,151
 650 417 650 417 633 417 c 1,152,-1
 633 496 l 1,153,-1
 531 419 l 1,154,-1
 592 417 l 1,155,-1
 592 388 l 1,156,157
 612 388 612 388 633 370 c 1,139,140
471 324.5 m 128,-1,159
 494 345 494 345 494 373 c 0,160,161
 494 429.909 494 429.909 422 443 c 1,162,163
 398 443 398 443 375 422.5 c 128,-1,164
 352 402 352 402 352 373.5 c 128,-1,165
 352 345 352 345 371 323 c 1,166,167
 393 304 393 304 420.5 304 c 128,-1,158
 448 304 448 304 471 324.5 c 128,-1,159
314 415 m 1,168,-1
 207 497 l 1,169,-1
 207 417 l 1,170,171
 192 417 192 417 159.5 401.5 c 128,-1,172
 127 386 127 386 122 372 c 1,173,174
 122 359 122 359 156 341 c 1,175,-1
 207 324 l 1,176,-1
 207 246 l 1,177,-1
 311 323 l 1,178,-1
 249 324 l 1,179,-1
 249 354 l 1,180,181
 230 354 230 354 207 372 c 1,182,183
 217 374 217 374 229 382 c 1,184,-1
 249 387 l 1,185,-1
 249 415 l 1,186,-1
 314 415 l 1,168,-1
548 163 m 1,187,-1
 468 246 l 1,188,-1
 468 208 l 1,189,-1
 436 208 l 1,190,-1
 436 163 l 1,191,-1
 407 208 l 1,192,-1
 375 208 l 1,193,-1
 375 250 l 1,194,-1
 307 152 l 1,195,-1
 399 172 l 1,196,197
 399 140 399 140 428.5 81 c 0,198,199
 477 -16 477 -16 507 -46 c 1,200,-1
 507 25 l 1,201,-1
 490 67 l 1,202,-1
 473 118 l 1,203,-1
 457 176 l 1,204,-1
 546 159 l 1,205,-1
 548 163 l 1,187,-1
EndSplineSet
EndChar

StartChar: ornaterightparenthesis
Encoding: 64831 64831 62
Width: 841
GlyphClass: 2
Flags: MW
LayerCount: 2
Fore
SplineSet
724 411 m 2,0,1
 778.6 374.6 778.6 374.6 721 326 c 2,2,-1
 693 308 l 1,3,-1
 668 298 l 1,4,-1
 668 222 l 2,5,6
 668 197 668 197 650 189 c 1,7,8
 638 189 638 189 623 204 c 2,9,-1
 529 287 l 1,10,-1
 512 297 l 1,11,-1
 498 302 l 1,12,13
 485 302 485 302 485 287 c 0,14,15
 485 279 485 279 487 275 c 2,16,-1
 577 149 l 1,17,18
 585 141 585 141 586 127 c 0,19,20
 586 115 586 115 564 115 c 1,21,-1
 466 134 l 1,22,23
 434 37 434 37 360.5 -59.5 c 128,-1,24
 287 -156 287 -156 214.5 -218 c 128,-1,25
 142 -280 142 -280 125.5 -280 c 128,-1,26
 109 -280 109 -280 109 -265 c 1,27,-1
 111 -258 l 1,28,-1
 116 -250 l 1,29,-1
 192 -165 l 1,30,-1
 231 -108 l 1,31,-1
 279 -28 l 2,32,33
 308 25 308 25 322 71.5 c 128,-1,34
 336 118 336 118 336 134 c 1,35,-1
 272 126 l 1,36,-1
 260 124 l 1,37,38
 250 124 250 124 243 135 c 1,39,40
 243 142 243 142 249 154 c 1,41,-1
 340 257 l 2,42,43
 356 276.556 356 276.556 356 288 c 1,44,45
 352 292 352 292 343 296 c 1,46,47
 330 296 330 296 318 287 c 2,48,-1
 206 204 l 1,49,-1
 187 195 l 1,50,51
 183 195 183 195 175 218 c 1,52,-1
 175 298 l 1,53,54
 139 311 139 311 124 323 c 2,55,-1
 99 344 l 1,56,57
 91 354 91 354 89.5 370.5 c 128,-1,58
 88 387 88 387 114 409 c 128,-1,59
 140 431 140 431 175 444 c 1,60,-1
 175 524 l 2,61,62
 175 535 175 535 188 543 c 1,63,64
 196 543 196 543 214 530 c 2,65,-1
 325 450 l 1,66,-1
 334 446 l 1,67,-1
 342 444 l 1,68,69
 349 444 349 444 357 457 c 1,70,-1
 349 471 l 1,71,-1
 259 574 l 1,72,-1
 248 589 l 1,73,-1
 243 602 l 1,74,75
 243 613 243 613 264 613 c 2,76,-1
 330 608 l 1,77,-1
 330 621 l 2,78,79
 330 661 330 661 281 756 c 128,-1,80
 232 851 232 851 188 904 c 2,81,-1
 120 983 l 1,82,-1
 110 996 l 1,83,-1
 103 1009 l 1,84,85
 103 1022 103 1022 117 1022 c 128,-1,86
 131 1022 131 1022 181 981 c 128,-1,87
 231 940 231 940 266 905 c 2,88,-1
 320 846 l 1,89,-1
 334 828 l 2,90,91
 415 732 415 732 460 608 c 1,92,-1
 555 624 l 2,93,94
 558.316 624.474 558.316 624.474 567.789 624.474 c 128,-1,95
 577.263 624.474 577.263 624.474 584 611 c 1,96,-1
 573 585 l 1,97,-1
 490 469 l 1,98,-1
 486 461 l 1,99,-1
 485 453 l 2,100,101
 485 439 485 439 498 439 c 128,-1,102
 511 439 511 439 523 448 c 2,103,-1
 628 540 l 2,104,105
 637 548 637 548 651 550 c 1,106,107
 660 550 660 550 668 526 c 1,108,-1
 668 443 l 1,109,-1
 700 426 l 1,110,-1
 724 411 l 2,0,1
536 590 m 1,111,-1
 444 570 l 1,112,113
 444 599 444 599 404 680.5 c 128,-1,114
 364 762 364 762 336 788 c 1,115,-1
 336 717 l 1,116,-1
 351 679 l 1,117,-1
 370 624 l 1,118,-1
 379 587 l 1,119,-1
 386 567 l 1,120,-1
 297 583 l 1,121,-1
 294 580 l 1,122,-1
 375 496 l 1,123,-1
 375 534 l 1,124,-1
 405 534 l 1,125,-1
 405 578 l 1,126,-1
 435 534 l 1,127,-1
 467 534 l 1,128,-1
 467 491 l 1,129,-1
 536 590 l 1,111,-1
720 373 m 0,130,131
 720 377 720 377 683 398 c 2,132,-1
 652 412 l 2,133,134
 640 417 640 417 632 417 c 1,135,-1
 632 497 l 1,136,-1
 527 417 l 1,137,-1
 591 415 l 1,138,-1
 591 387 l 1,139,140
 602 387 602 387 614 381 c 1,141,142
 620 381 620 381 632 372 c 1,143,144
 621 364 621 364 591 354 c 1,145,-1
 591 324 l 1,146,-1
 531 324 l 1,147,-1
 632 246 l 1,148,-1
 632 324 l 1,149,-1
 646 324 l 1,150,-1
 660 329 l 1,151,152
 681.633 331.404 681.633 331.404 700.817 347.202 c 128,-1,153
 720 363 720 363 720 373 c 0,130,131
418 304 m 0,154,155
 477.273 304 477.273 304 490 374 c 1,156,157
 490 396 490 396 468 422 c 0,158,159
 447 443 447 443 421.5 443 c 128,-1,160
 396 443 396 443 371.5 422.5 c 128,-1,161
 347 402 347 402 347 374 c 256,162,163
 347 345 347 345 367 324 c 1,164,-1
 389 310 l 1,165,166
 403 306 403 306 418 304 c 0,154,155
314 324 m 1,167,-1
 311 328 l 1,168,-1
 250 328 l 1,169,-1
 250 356 l 1,170,171
 237 356 237 356 227 361 c 2,172,-1
 209 370 l 1,173,174
 221 378 221 378 250 388 c 1,175,-1
 250 417 l 1,176,-1
 309 417 l 1,177,-1
 209 496 l 1,178,-1
 209 417 l 1,179,180
 187 417 187 417 158 403 c 256,181,182
 129 389 129 389 123 370 c 1,183,184
 123 364 123 364 175 337 c 2,185,-1
 209 324 l 1,186,-1
 209 248 l 1,187,-1
 314 324 l 1,167,-1
535 152 m 1,188,-1
 468 250 l 1,189,-1
 466 208 l 1,190,-1
 433 208 l 1,191,-1
 407 163 l 1,192,-1
 405 208 l 1,193,-1
 374 208 l 1,194,-1
 374 246 l 1,195,-1
 293 163 l 1,196,-1
 296 159 l 1,197,-1
 384 176 l 1,198,-1
 364 100 l 1,199,-1
 348 54 l 1,200,-1
 334 25 l 1,201,-1
 334 -46 l 1,202,203
 360 -22 360 -22 401 60 c 128,-1,204
 442 142 442 142 442 172 c 1,205,-1
 535 152 l 1,188,-1
EndSplineSet
EndChar

StartChar: allahisolated
Encoding: 65010 65010 63
Width: 1465
GlyphClass: 3
Flags: MW
LayerCount: 2
Fore
SplineSet
836.611 1154.34 m 1,0,1
 836.611 1058.21 836.611 1058.21 870.307 1058.21 c 0,2,3
 896.074 1058.21 896.074 1058.21 922.337 1099.83 c 128,-1,4
 948.6 1141.45 948.6 1141.45 948.6 1198.93 c 1,5,-1
 965.448 1204.88 l 1,6,7
 975.358 1164.25 975.358 1164.25 989.233 1134.52 c 0,8,9
 999.145 1118.66 999.145 1118.66 1015.99 1118.66 c 128,-1,10
 1032.84 1118.66 1032.84 1118.66 1055.63 1155.33 c 0,11,12
 1074.46 1192 1074.46 1192 1074.46 1247.5 c 1,13,-1
 1093.29 1256.41 l 1,14,-1
 1104.2 1213.8 l 2,15,16
 1106.18 1197.94 1106.18 1197.94 1106.18 1150.86 c 128,-1,17
 1106.18 1103.79 1106.18 1103.79 1080.91 1064.65 c 128,-1,18
 1055.63 1025.5 1055.63 1025.5 1015 1025.5 c 0,19,20
 1003.11 1025.5 1003.11 1025.5 959.502 1044.33 c 1,21,22
 946.618 1014.6 946.618 1014.6 919.859 984.867 c 1,23,24
 898.057 968.02 898.057 968.02 870.307 968.02 c 128,-1,25
 842.558 968.02 842.558 968.02 816.79 994.777 c 0,26,27
 796.97 1021.54 796.97 1021.54 796.97 1063.16 c 2,28,-1
 796.97 1083.97 l 2,29,30
 796.97 1095.86 796.97 1095.86 803.907 1111.72 c 2,31,-1
 816.79 1151.36 l 1,32,-1
 836.611 1154.34 l 1,0,1
930.83 1299.59 m 1,33,34
 934.413 1317.17 934.413 1317.17 937.997 1343.54 c 1,35,36
 935.145 1380.25 935.145 1380.25 925.108 1425.37 c 2,37,-1
 903.084 1513.47 l 1,38,-1
 930.352 1548.19 l 1,39,-1
 950.352 1577.19 l 1,40,-1
 962.863 1593.7 l 1,41,-1
 973.352 1560.19 l 1,42,-1
 978.852 1533.19 l 1,43,-1
 981.74 1508.75 l 1,44,-1
 984.352 1473.19 l 1,45,-1
 985.352 1437.19 l 1,46,-1
 981.74 1389.19 l 2,47,48
 976.973 1335.79 976.973 1335.79 945 1282.5 c 1,49,50
 933.664 1285.92 933.664 1285.92 930.83 1299.59 c 1,33,34
1377 295 m 2,51,52
 1377 243 1377 243 1348 148.5 c 128,-1,53
 1319 54 1319 54 1279 19 c 1,54,55
 1221 -7 1221 -7 1160 -7 c 0,56,57
 1031.71 -7 1031.71 -7 977 53 c 2,58,-1
 961 74 l 1,59,-1
 942 104 l 1,60,61
 932 62 932 62 879 30 c 0,62,63
 821 0 821 0 794 0 c 2,64,-1
 621 0 l 2,65,66
 569 0 569 0 533 67 c 0,67,68
 517.067 107.511 517.067 107.511 501 196 c 1,69,-1
 490 192 l 1,70,71
 472 181 472 181 438 118 c 128,-1,72
 404 55 404 55 380 55 c 1,73,-1
 368 57 l 1,74,-1
 320 69 l 2,75,76
 245 85 245 85 243 87 c 1,77,-1
 158 103 l 1,78,-1
 88 115 l 1,79,80
 101 168 101 168 134 243 c 0,81,82
 172 342 172 342 203 370 c 0,83,84
 214 379 214 379 333 447 c 0,85,86
 439 504 439 504 449 513 c 1,87,-1
 448 541 l 2,88,89
 448 553 448 553 447 557.5 c 128,-1,90
 446 562 446 562 440 576 c 1,91,-1
 445 585 l 1,92,-1
 454 599 l 1,93,-1
 468 618 l 1,94,-1
 492 646 l 1,95,-1
 541 717 l 1,96,-1
 566 526 l 2,97,98
 598 223 598 223 603 211 c 1,99,100
 616 190 616 190 630.5 185 c 128,-1,101
 645 180 645 180 666 180 c 2,102,-1
 693 179 l 1,103,-1
 731 177 l 1,104,-1
 781 176 l 2,105,106
 835 176 835 176 885 200 c 1,107,-1
 918 224 l 2,108,109
 923 227 923 227 923 264 c 128,-1,110
 923 301 923 301 901 429 c 2,111,-1
 854 694 l 1,112,-1
 852 710 l 1,113,-1
 845 737 l 1,114,-1
 868 779 l 1,115,-1
 901 829 l 2,116,117
 959 918 959 918 979 921 c 1,118,-1
 1040 242 l 1,119,120
 1097.48 176 1097.48 176 1188 176 c 2,121,-1
 1218 177 l 2,122,123
 1259.88 177 1259.88 177 1281 221 c 1,124,-1
 1171 604 l 1,125,-1
 1216 704 l 1,126,-1
 1242 756 l 2,127,128
 1259 783 1259 783 1281 810 c 1,129,-1
 1357 438 l 1,130,-1
 1368 365 l 1,131,-1
 1377 295 l 2,51,52
494 242 m 1,132,-1
 466 476 l 1,133,134
 442.183 465.324 442.183 465.324 412 406 c 2,135,-1
 402 389 l 1,136,-1
 394 378 l 1,137,138
 301.874 350.703 301.874 350.703 237 276 c 1,139,-1
 272 265 l 1,140,-1
 352 250 l 1,141,-1
 386 245 l 1,142,-1
 420 243 l 1,143,-1
 450 243 l 2,144,145
 474 243 474 243 477 242 c 1,146,-1
 494 242 l 1,132,-1
EndSplineSet
LCarets2: 2 0 0 
Ligature2: "'liga' Ligatures without tashkil" laminitial lammedial hehfinal
EndChar

StartChar: hamzaisolated
Encoding: 65152 65152 64
Width: 705
GlyphClass: 2
Flags: MW
AnchorPoint: "ArabicBelow" 348 -192 basechar 0
AnchorPoint: "ArabicAbove" 300 564 basechar 0
LayerCount: 2
Fore
SplineSet
618 170 m 1,0,-1
 528 34 l 1,1,2
 468 34 468 34 420 24 c 2,3,-1
 366 8 l 1,4,-1
 320 -4 l 2,5,6
 301 -8 301 -8 163 -94 c 2,7,-1
 132 -109 l 1,8,-1
 105 -124 l 1,9,10
 105 -95 105 -95 147 -43 c 0,11,12
 181 -4 181 -4 248 35 c 2,13,-1
 268 46 l 1,14,15
 171 58 171 58 159 63 c 0,16,17
 88 83 88 83 88 128 c 0,18,19
 88 229 88 229 176 339.5 c 128,-1,20
 264 450 264 450 410 450 c 0,21,22
 442 450 442 450 476 424 c 0,23,24
 512 391 512 391 512 354 c 1,25,-1
 438 250 l 1,26,-1
 403 278 l 2,27,28
 362.051 303.593 362.051 303.593 314 310 c 0,29,30
 280.5 310 280.5 310 246 289 c 0,31,32
 207 272 207 272 207 240 c 128,-1,33
 207 208 207 208 318 189 c 2,34,-1
 448 175 l 1,35,-1
 529 172 l 1,36,-1
 618 170 l 1,0,-1
EndSplineSet
EndChar

StartChar: alefwithmaddaaboveisolated
Encoding: 65153 65153 65
Width: 551
GlyphClass: 2
Flags: MW
AnchorPoint: "ArabicBelow" 264 -192 basechar 0
AnchorPoint: "ArabicAbove" 264 1056 basechar 0
LayerCount: 2
Fore
SplineSet
156 841 m 1,0,1
 119.879 768.757 119.879 768.757 91.5676 768.757 c 2,2,-1
 88 769 l 1,3,-1
 134 866 l 1,4,-1
 160 911 l 1,5,6
 181 898 181 898 214 884 c 2,7,-1
 258 870 l 2,8,9
 279 865 279 865 307.5 865 c 128,-1,10
 336 865 336 865 391.5 893 c 128,-1,11
 447 921 447 921 464 921 c 1,12,-1
 410 857 l 1,13,14
 336 802 336 802 292 802 c 128,-1,15
 248 802 248 802 216 810 c 2,16,-1
 188 821 l 1,17,-1
 156 841 l 1,0,1
310 267 m 2,18,19
 310 75.7895 310 75.7895 221 -46 c 1,20,-1
 156 546 l 2,21,22
 156 565 156 565 221 672 c 2,23,-1
 272 760 l 1,24,25
 277 728 277 728 296 556 c 2,26,-1
 307 413 l 1,27,-1
 310 267 l 2,18,19
EndSplineSet
EndChar

StartChar: alefwithmaddaabovefinal
Encoding: 65154 65154 66
Width: 506
GlyphClass: 2
Flags: MW
AnchorPoint: "ArabicBelow" 336 -204 basechar 0
AnchorPoint: "ArabicAbove" 288 1212 basechar 0
LayerCount: 2
Fore
SplineSet
95.2486 896.457 m 0,0,1
 90.7805 896.457 90.7805 896.457 90.7805 901.082 c 128,-1,2
 90.7805 905.707 90.7805 905.707 126 978 c 2,3,-1
 142 1009 l 1,4,-1
 169 1055 l 1,5,-1
 251 1020 l 2,6,7
 291 1006 291 1006 327 1006 c 128,-1,8
 363 1006 363 1006 428.079 1035.73 c 128,-1,9
 493.158 1065.47 493.158 1065.47 499.026 1065.47 c 128,-1,10
 504.895 1065.47 504.895 1065.47 506 1065 c 1,11,-1
 446 996 l 1,12,13
 365 935 365 935 315 935 c 2,14,-1
 261 936 l 1,15,-1
 226 944 l 2,16,17
 205 949 205 949 165 978 c 1,18,-1
 139 933 l 2,19,20
 113.152 896.457 113.152 896.457 95.2486 896.457 c 0,0,1
504 0 m 1,21,-1
 251 0 l 1,22,-1
 186 763 l 1,23,-1
 298 900 l 1,24,25
 298 787 298 787 328.5 511 c 128,-1,26
 359 235 359 235 367 221 c 1,27,28
 367 213 367 213 369 211 c 1,29,-1
 378 193 l 2,30,31
 381 188 381 188 399 183 c 1,32,-1
 428 180 l 1,33,-1
 504 180 l 1,34,-1
 504 0 l 1,21,-1
EndSplineSet
EndChar

StartChar: alefwithhamzaaboveisolated
Encoding: 65155 65155 67
Width: 445
GlyphClass: 2
Flags: MW
AnchorPoint: "ArabicBelow" 276 -228 basechar 0
AnchorPoint: "ArabicAbove" 228 1104 basechar 0
LayerCount: 2
Fore
SplineSet
187 787 m 1,0,-1
 162 787 l 1,1,-1
 150 788 l 1,2,-1
 136 792 l 1,3,-1
 119 798 l 2,4,5
 88 810 88 810 88 828 c 0,6,7
 88 873 88 873 134 928 c 128,-1,8
 180 983 180 983 242 983 c 0,9,10
 258 983 258 983 260 981 c 1,11,12
 277.673 971.324 277.673 971.324 284 946 c 1,13,14
 279.574 925.272 279.574 925.272 261 896 c 1,15,16
 245 926 245 926 209 926 c 2,17,-1
 188 925 l 2,18,19
 158.429 925 158.429 925 131 893 c 1,20,-1
 130 884 l 2,21,22
 130 872 130 872 142 863 c 1,23,24
 161 855 161 855 187 850 c 1,25,-1
 208 850 l 2,26,27
 225 850 225 850 227 848 c 1,28,-1
 342 848 l 1,29,-1
 358 850 l 1,30,-1
 327 788 l 1,31,-1
 274 782 l 2,32,33
 253 782 253 782 224 769 c 2,34,-1
 198 756 l 1,35,-1
 135 713 l 1,36,-1
 119 705 l 1,37,38
 116 708 116 708 116 717 c 128,-1,39
 116 726 116 726 142 750 c 2,40,-1
 187 787 l 1,0,-1
309 254 m 2,41,42
 309 139 309 139 284.5 68 c 128,-1,43
 260 -3 260 -3 220 -61 c 1,44,-1
 144 535 l 1,45,-1
 155 565 l 1,46,-1
 188 630 l 1,47,-1
 261 750 l 1,48,-1
 290 543 l 1,49,-1
 304 397 l 1,50,-1
 307 323 l 1,51,-1
 309 254 l 2,41,42
EndSplineSet
EndChar

StartChar: alefwithhamzaabovefinal
Encoding: 65156 65156 68
Width: 450
GlyphClass: 2
Flags: MW
AnchorPoint: "ArabicBelow" 300 -204 basechar 0
AnchorPoint: "ArabicAbove" 204 1224 basechar 0
LayerCount: 2
Fore
SplineSet
325 911 m 1,0,-1
 274 907 l 2,1,2
 257 907 257 907 239 899 c 2,3,4
 204.5 883 l 2,5,6
 188 875 188 875 171 863 c 2,7,-1
 113 828 l 1,8,9
 111.957 829.936 111.957 829.936 111.957 838.224 c 128,-1,10
 111.957 846.511 111.957 846.511 146 878 c 2,11,-1
 188 911 l 1,12,-1
 156 914 l 2,13,14
 147 914 147 914 140 918 c 1,15,-1
 122 924 l 2,16,17
 88 934 88 934 88 948 c 0,18,19
 88 994 88 994 133 1050.5 c 128,-1,20
 178 1107 178 1107 238 1107 c 0,21,22
 250 1107 250 1107 254 1106 c 128,-1,23
 258 1105 258 1105 269.5 1095 c 128,-1,24
 281 1085 281 1085 281 1072 c 1,25,-1
 277 1058 l 1,26,-1
 258 1022 l 1,27,28
 247 1052 247 1052 207 1052 c 2,29,-1
 185 1049 l 2,30,31
 176 1048 176 1048 174 1046 c 1,32,33
 144.236 1036.76 144.236 1036.76 127 1015 c 1,34,35
 126.319 1011.89 126.319 1011.89 126.319 1009.01 c 0,36,37
 126.319 982.319 126.319 982.319 185 976 c 2,38,-1
 220 972 l 1,39,-1
 270 971 l 1,40,-1
 312 971 l 1,41,-1
 355 972 l 1,42,-1
 325 911 l 1,0,-1
451 0 m 1,43,-1
 214 0 l 1,44,-1
 153 733 l 1,45,-1
 265 869 l 1,46,47
 265 751 265 751 293.5 496.5 c 128,-1,48
 322 242 322 242 329 221 c 1,49,-1
 330 211 l 1,50,-1
 338 193 l 1,51,52
 343 188 343 188 359 183 c 1,53,-1
 389 180 l 1,54,-1
 451 180 l 1,55,-1
 451 0 l 1,43,-1
EndSplineSet
EndChar

StartChar: wawwithhamzaaboveisolated
Encoding: 65157 65157 69
Width: 805
GlyphClass: 2
Flags: MW
AnchorPoint: "ArabicBelow" 464 -528 basechar 0
AnchorPoint: "ArabicAbove" 380 936 basechar 0
LayerCount: 2
Fore
SplineSet
455 737 m 1,0,1
 433.824 773 433.824 773 379 773 c 0,2,3
 367 773 367 773 322 750 c 1,4,5
 306 737 306 737 300 726 c 1,6,7
 300 705 300 705 335 692 c 0,8,9
 383 680 383 680 477 680 c 2,10,-1
 566 680 l 1,11,-1
 555 661 l 1,12,-1
 527 621 l 1,13,-1
 518 606 l 1,14,15
 453 606 453 606 381 576 c 2,16,-1
 271 513 l 1,17,18
 268.673 514.745 268.673 514.745 268.673 520.872 c 128,-1,19
 268.673 527 268.673 527 285.336 550.5 c 128,-1,20
 302 574 302 574 361 604 c 1,21,-1
 306 620 l 2,22,23
 252 633 252 633 252 656 c 0,24,25
 252 716.577 252 716.577 299 769 c 0,26,27
 357 843 357 843 435 843 c 0,28,29
 460 843 460 843 471 832 c 128,-1,30
 482 821 482 821 489 789 c 1,31,-1
 476 772 l 1,32,-1
 455 737 l 1,0,1
641 113 m 2,33,-1
 641 130 l 1,34,-1
 640 136 l 1,35,-1
 634 161 l 1,36,37
 634 170 634 170 625 193 c 1,38,-1
 616 167 l 2,39,40
 584 102 584 102 568 76 c 0,41,42
 532 24 532 24 435 24 c 0,43,44
 374 24 374 24 336 74 c 0,45,46
 323 95 323 95 317 120 c 2,47,-1
 313 147 l 1,48,-1
 311 180 l 1,49,-1
 312 215 l 2,50,51
 312 273 312 273 375.5 366 c 128,-1,52
 439 459 439 459 476 490 c 128,-1,53
 513 521 513 521 546 521 c 0,54,55
 593 521 593 521 656 413 c 0,56,57
 718 301.828 718 301.828 718 204.914 c 0,58,59
 718 4.97619 718 4.97619 635 -163 c 0,60,61
 540 -370 540 -370 405 -370 c 0,62,63
 305.435 -370 305.435 -370 163 -328 c 0,64,65
 0 -287 0 -287 0 -266.5 c 128,-1,66
 0 -246 0 -246 25 -246 c 2,67,-1
 50 -249 l 1,68,-1
 137 -267 l 1,69,-1
 180 -274 l 1,70,-1
 222 -278 l 2,71,72
 308 -278 308 -278 424 -192 c 0,73,74
 549.746 -98.7745 549.746 -98.7745 612 15 c 0,75,76
 641 68 641 68 641 113 c 2,33,-1
572 222 m 1,77,-1
 572 232 l 2,78,79
 572 274 572 274 542 303.5 c 128,-1,80
 512 333 512 333 480 333 c 128,-1,81
 448 333 448 333 415.5 310 c 0,82,83
 379.944 286.657 379.944 286.657 373 250 c 1,84,-1
 377 243 l 1,85,-1
 401 225 l 1,86,-1
 424 211 l 1,87,-1
 452 204 l 2,88,89
 474 200 474 200 489 200 c 2,90,-1
 505 200 l 2,91,92
 535 200 535 200 563 221 c 1,93,-1
 572 222 l 1,77,-1
EndSplineSet
EndChar

StartChar: wawwithhamzaabovefinal
Encoding: 65158 65158 70
Width: 742
GlyphClass: 2
Flags: MW
AnchorPoint: "ArabicBelow" 428 -516 basechar 0
AnchorPoint: "ArabicAbove" 416 972 basechar 0
LayerCount: 2
Fore
SplineSet
599 691 m 1,0,-1
 586 665 l 1,1,-1
 572 642 l 1,2,-1
 552 615 l 1,3,-1
 525 615 l 1,4,-1
 499 611 l 1,5,6
 488 611 488 611 450.5 598 c 128,-1,7
 413 585 413 585 361 552 c 2,8,-1
 276 500 l 1,9,10
 276 507 276 507 303.5 549 c 128,-1,11
 331 591 331 591 385 613 c 1,12,-1
 319 633 l 2,13,14
 270 649 270 649 270 688 c 128,-1,15
 270 727 270 727 320 800 c 0,16,17
 380 878 380 878 462 878 c 0,18,19
 512 878 512 878 512 824 c 1,20,-1
 482 766 l 1,21,22
 477 777 477 777 447 794 c 1,23,-1
 426 801 l 1,24,-1
 404 804 l 1,25,-1
 389 802 l 1,26,-1
 356 787 l 2,27,28
 324 771 324 771 322 755 c 0,29,30
 322 714 322 714 459 695 c 2,31,-1
 599 691 l 1,0,-1
554 0 m 2,32,33
 278 0 278 0 278 134 c 0,34,35
 278 193 278 193 347 338 c 0,36,37
 431 518 431 518 517 518 c 0,38,39
 583 518 583 518 648 365 c 0,40,41
 692 247 692 247 692 192 c 2,42,-1
 692 180 l 1,43,-1
 743 180 l 1,44,-1
 743 0 l 1,45,-1
 671 0 l 1,46,47
 642 -110 642 -110 546 -232 c 128,-1,48
 450 -354 450 -354 351 -354 c 0,49,50
 295 -354 295 -354 150 -290.5 c 128,-1,51
 5 -227 5 -227 0 -204 c 1,52,53
 0 -191 0 -191 17 -187 c 1,54,-1
 106 -214 l 1,55,-1
 139 -222 l 2,56,57
 160 -228 160 -228 183 -228 c 0,58,59
 240.5 -228 240.5 -228 294.75 -213 c 0,60,61
 371.556 -191.763 371.556 -191.763 521 -61 c 2,62,-1
 554 -28 l 1,63,-1
 566 -15 l 1,64,-1
 577 0 l 1,65,-1
 554 0 l 2,32,33
556 211 m 1,66,-1
 540 261 l 1,67,-1
 532 279 l 1,68,-1
 518 300 l 2,69,70
 489 342 489 342 457 342 c 128,-1,71
 425 342 425 342 397 308 c 2,72,-1
 375 273 l 1,73,74
 375 242 375 242 415 211 c 1,75,76
 459 187 459 187 499.5 187 c 128,-1,77
 540 187 540 187 556 211 c 1,66,-1
EndSplineSet
EndChar

StartChar: alefwithhamzabelowisolated
Encoding: 65159 65159 71
Width: 445
GlyphClass: 2
Flags: MW
AnchorPoint: "ArabicBelow" 240 -384 basechar 0
AnchorPoint: "ArabicAbove" 240 1020 basechar 0
LayerCount: 2
Fore
SplineSet
340 282 m 2,0,1
 340 92.1579 340 92.1579 250 -31 c 1,2,-1
 171 668 l 2,3,4
 171 676 171 676 181 700 c 2,5,-1
 199 735 l 1,6,-1
 288 882 l 1,7,-1
 321 611 l 1,8,-1
 335 429 l 1,9,-1
 337 349 l 1,10,-1
 340 282 l 2,0,1
358 -191 m 1,11,-1
 327 -250 l 1,12,-1
 275 -255 l 2,13,14
 233 -260 233 -260 171 -301 c 2,15,-1
 115 -337 l 1,16,17
 113.667 -334.333 113.667 -334.333 113.667 -324.5 c 128,-1,18
 113.667 -314.667 113.667 -314.667 147 -283 c 2,19,-1
 188 -250 l 1,20,-1
 154 -247 l 1,21,-1
 137 -243 l 1,22,-1
 119 -237 l 2,23,24
 88 -230 88 -230 88 -214 c 0,25,26
 88 -174 88 -174 130 -117 c 0,27,28
 179 -56 179 -56 243 -56 c 0,29,30
 274.667 -56 274.667 -56 284 -91 c 1,31,32
 276.748 -122.252 276.748 -122.252 260 -139 c 1,33,34
 244 -108 244 -108 210.5 -108 c 0,35,36
 149.952 -108 149.952 -108 129 -148 c 1,37,-1
 127 -156 l 1,38,39
 127 -172 127 -172 160 -181 c 2,40,-1
 207 -188 l 1,41,-1
 278 -191 l 1,42,-1
 358 -191 l 1,11,-1
EndSplineSet
EndChar

StartChar: alefwithhamzabelowfinal
Encoding: 65160 65160 72
Width: 399
GlyphClass: 2
Flags: MW
AnchorPoint: "ArabicBelow" 240 -492 basechar 0
AnchorPoint: "ArabicAbove" 240 1056 basechar 0
LayerCount: 2
Fore
SplineSet
395 0 m 1,0,-1
 156 0 l 1,1,-1
 88 782 l 1,2,-1
 203 919 l 1,3,-1
 205 882 l 1,4,-1
 207 830 l 1,5,-1
 209 769 l 1,6,-1
 242 431 l 1,7,-1
 250 369 l 2,8,9
 265 235 265 235 271 221 c 1,10,11
 271 213 271 213 272 211 c 2,12,-1
 281 193 l 2,13,14
 284 188 284 188 301 183 c 1,15,-1
 331 180 l 1,16,-1
 395 180 l 1,17,-1
 395 0 l 1,0,-1
399 -280 m 1,18,-1
 367 -342 l 1,19,-1
 314 -350 l 1,20,-1
 290 -352 l 1,21,-1
 258 -364 l 1,22,-1
 233 -376 l 1,23,-1
 173 -414 l 1,24,-1
 144 -434 l 1,25,26
 142.694 -431.551 142.694 -431.551 142.694 -422.01 c 128,-1,27
 142.694 -412.469 142.694 -412.469 177 -379 c 2,28,-1
 222 -342 l 1,29,-1
 183 -339 l 1,30,-1
 168 -337 l 1,31,-1
 149 -330 l 1,32,33
 116 -323 116 -323 116 -305 c 0,34,35
 116 -257 116 -257 149 -216.5 c 128,-1,36
 182 -176 182 -176 215 -154 c 0,37,38
 243 -139 243 -139 279 -139 c 0,39,40
 310.417 -137.312 310.417 -137.312 321 -177 c 1,41,-1
 316 -192 l 1,42,-1
 307 -209 l 1,43,-1
 296 -226 l 1,44,45
 280 -195 280 -195 240 -195 c 0,46,47
 222 -195 222 -195 214 -200 c 2,48,49
 176 -210 176 -210 160 -236 c 1,50,-1
 158 -245 l 1,51,52
 158 -264 158 -264 192 -272 c 2,53,-1
 243 -279 l 1,54,-1
 309 -282 l 1,55,-1
 347 -280 l 1,56,-1
 399 -280 l 1,18,-1
EndSplineSet
EndChar

StartChar: yehwithhamzaaboveisolated
Encoding: 65161 65161 73
Width: 1084
GlyphClass: 2
Flags: MW
AnchorPoint: "ArabicBelow" 672 -372 basechar 0
AnchorPoint: "ArabicAbove" 312 912 basechar 0
LayerCount: 2
Fore
SplineSet
377 722 m 1,0,1
 358.905 760 358.905 760 299 760 c 0,2,3
 292 760 292 760 250 742 c 0,4,5
 221 726 221 726 218 711 c 1,6,7
 218 668 218 668 355 650 c 2,8,-1
 424 647 l 1,9,-1
 494 645 l 1,10,-1
 483 626 l 1,11,-1
 446 571 l 1,12,13
 361 571 361 571 255 507 c 2,14,-1
 170 456 l 1,15,16
 170 464 170 464 183 485 c 0,17,18
 217 538 217 538 281 567 c 1,19,-1
 233 581 l 2,20,21
 163 599 163 599 163 637 c 2,22,-1
 166 664 l 1,23,-1
 170 679 l 2,24,25
 179.896 709.13 179.896 709.13 215 755 c 0,26,27
 278 833 278 833 357 833 c 2,28,-1
 376 831 l 1,29,30
 407 820 407 820 407 779 c 1,31,-1
 377 722 l 1,0,1
997 531 m 1,32,-1
 978 444 l 2,33,34
 975 422 975 422 960 379 c 2,35,-1
 953 354 l 2,36,37
 943 328 943 328 938 328 c 1,38,-1
 938 338 l 2,39,40
 938 343 938 343 936 348 c 1,41,-1
 929 379 l 2,42,43
 916 431 916 431 848.5 431 c 128,-1,44
 781 431 781 431 691.5 362 c 128,-1,45
 602 293 602 293 602 246 c 0,46,47
 602 207 602 207 756.5 187 c 128,-1,48
 911 167 911 167 911 94 c 1,49,50
 901 35 901 35 879 -18 c 2,51,-1
 846 -98 l 1,52,53
 696.048 -234.003 696.048 -234.003 533 -276 c 2,54,-1
 468 -289 l 2,55,56
 431.75 -294 431.75 -294 405 -294 c 0,57,58
 283 -294 283 -294 219.5 -269 c 0,59,60
 88 -217.228 88 -217.228 88 -65 c 0,61,62
 88 61 88 61 130 196.5 c 128,-1,63
 172 332 172 332 193 332 c 0,64,65
 207 332 207 332 207 313 c 128,-1,66
 207 294 207 294 172 163 c 2,67,-1
 159 103 l 1,68,-1
 155 59 l 2,69,70
 155 -18 155 -18 250 -68 c 0,71,72
 342 -111 342 -111 438 -111 c 1,73,-1
 653 -76 l 2,74,75
 751 -52 751 -52 805 -18 c 1,76,77
 805 4 805 4 659 19.5 c 128,-1,78
 513 35 513 35 513 118 c 0,79,80
 513 236 513 236 633.5 418 c 128,-1,81
 754 600 754 600 901 600 c 0,82,83
 949 600 949 600 973 585.5 c 128,-1,84
 997 571 997 571 997 531 c 1,32,-1
EndSplineSet
EndChar

StartChar: yehwithhamzaabovefinal
Encoding: 65162 65162 74
Width: 963
GlyphClass: 2
Flags: MW
AnchorPoint: "ArabicBelow" 540 -444 basechar 0
AnchorPoint: "ArabicAbove" 468 924 basechar 0
LayerCount: 2
Fore
SplineSet
625 645 m 1,0,-1
 605 609 l 1,1,-1
 589 591 l 1,2,-1
 577 571 l 1,3,4
 492 571 492 571 386 507 c 2,5,-1
 301 456 l 1,6,7
 301 464 301 464 314 485 c 0,8,9
 348 538 348 538 412 567 c 1,10,-1
 345 587 l 2,11,12
 296 603 296 603 296 637 c 2,13,-1
 299 664 l 1,14,-1
 302 679 l 2,15,16
 312.648 709.277 312.648 709.277 348 755 c 0,17,18
 410 833 410 833 490 833 c 0,19,20
 511 833 511 833 524.5 819 c 128,-1,21
 538 805 538 805 538 779 c 1,22,-1
 510 722 l 1,23,24
 500 741 500 741 476 751 c 2,25,-1
 454 758 l 1,26,-1
 431 760 l 2,27,28
 423 760 423 760 381 742 c 0,29,30
 352 726 352 726 349 711 c 1,31,32
 349 668 349 668 486 650 c 2,33,-1
 555 647 l 1,34,-1
 625 645 l 1,0,-1
963 0 m 1,35,-1
 918 0 l 1,36,-1
 868 -96 l 2,37,38
 811 -193 811 -193 761 -226 c 1,39,-1
 644 -270 l 2,40,41
 504 -315 504 -315 384.5 -315 c 128,-1,42
 265 -315 265 -315 185 -267 c 0,43,44
 88 -209 88 -209 88 -88 c 128,-1,45
 88 33 88 33 203 200 c 1,46,-1
 338 328 l 1,47,-1
 243 185 l 2,48,49
 190 103 190 103 190 23.5 c 128,-1,50
 190 -56 190 -56 281 -111 c 0,51,52
 315 -129 315 -129 359 -142 c 2,53,-1
 403 -153 l 1,54,-1
 445 -156 l 2,55,56
 547.231 -156 547.231 -156 664 -133 c 2,57,-1
 783 -102 l 1,58,-1
 795 -98 l 1,59,60
 770 -66 770 -66 753 -50 c 0,61,62
 695 0 695 0 613 0 c 2,63,-1
 562 6 l 1,64,-1
 492 11 l 1,65,-1
 511 49 l 1,66,-1
 573 149 l 1,67,-1
 596 180 l 1,68,-1
 963 180 l 1,69,-1
 963 0 l 1,35,-1
EndSplineSet
EndChar

StartChar: yehwithhamzaaboveinitial
Encoding: 65163 65163 75
Width: 648
GlyphClass: 2
Flags: MW
AnchorPoint: "ArabicBelow" 240 -180 basechar 0
AnchorPoint: "ArabicAbove" 336 1032 basechar 0
LayerCount: 2
Fore
SplineSet
529 732 m 1,0,-1
 510 696 l 1,1,-1
 483 659 l 1,2,3
 404 659 404 659 303 600 c 2,4,-1
 222 552 l 1,5,6
 222 558 222 558 246 595 c 0,7,8
 275 632 275 632 327 657 c 1,9,-1
 262 678 l 2,10,11
 215 691 215 691 215 728.5 c 128,-1,12
 215 766 215 766 265 835 c 0,13,14
 323 909 323 909 400 909 c 0,15,16
 446 909 446 909 446 857 c 1,17,-1
 420 802 l 1,18,19
 412 819 412 819 390 829 c 128,-1,20
 368 839 368 839 348.5 839 c 128,-1,21
 329 839 329 839 290 817 c 0,22,23
 273 805 273 805 268 794 c 1,24,25
 268 754 268 754 357 741 c 2,26,-1
 426 735 l 1,27,-1
 529 732 l 1,0,-1
0 180 m 1,28,-1
 461 180 l 1,29,30
 445.928 247.335 445.928 247.335 378 353 c 2,31,-1
 359 380 l 1,32,-1
 339 404 l 1,33,-1
 433 565 l 1,34,35
 454 542 454 542 495.5 472.5 c 0,36,37
 561 362.807 561 362.807 561 279 c 2,38,-1
 561 236 l 1,39,-1
 557 216 l 1,40,-1
 555 194 l 1,41,-1
 538 88 l 1,42,-1
 522 0 l 1,43,-1
 0 0 l 1,44,-1
 0 180 l 1,28,-1
EndSplineSet
EndChar

StartChar: yehwithhamzaabovemedial
Encoding: 65164 65164 76
Width: 592
GlyphClass: 2
Flags: MW
AnchorPoint: "ArabicBelow" 204 -192 basechar 0
AnchorPoint: "ArabicAbove" 360 960 basechar 0
LayerCount: 2
Fore
SplineSet
533 633 m 1,0,1
 526 611 526 611 509 589 c 2,2,-1
 488 561 l 1,3,4
 410 561 410 561 308 502 c 2,5,-1
 227 453 l 1,6,7
 227 459 227 459 229 462 c 2,8,-1
 239 480 l 2,9,10
 264 525 264 525 331 558 c 1,11,-1
 266 578 l 2,12,13
 220 592 220 592 220 630 c 128,-1,14
 220 668 220 668 270 737 c 0,15,16
 328 810 328 810 404 810 c 0,17,18
 451 810 451 810 451 758 c 1,19,-1
 425 704 l 1,20,21
 414 722 414 722 390 730 c 2,22,-1
 370 737 l 1,23,-1
 349 741 l 1,24,25
 333 741 333 741 294 719 c 0,26,27
 278 707 278 707 272 695 c 1,28,29
 272 656 272 656 361 642 c 2,30,-1
 432 635 l 1,31,-1
 533 633 l 1,0,1
0 180 m 1,32,-1
 364 180 l 1,33,-1
 371 204 l 1,34,-1
 374 241 l 1,35,-1
 379 326 l 1,36,-1
 492 466 l 1,37,-1
 494 447 l 1,38,-1
 496 413 l 1,39,-1
 495 384 l 1,40,-1
 495 362 l 1,41,-1
 491 345 l 1,42,-1
 489 308 l 1,43,-1
 481 263 l 1,44,-1
 480 250 l 2,45,46
 480 230 480 230 501 204 c 1,47,48
 529 180 529 180 563 180 c 2,49,-1
 592 180 l 1,50,-1
 592 0 l 1,51,-1
 507 0 l 2,52,53
 466 0 466 0 429 26 c 1,54,55
 407 48 407 48 383 113 c 1,56,-1
 367 82 l 1,57,-1
 352 56 l 2,58,59
 338 25 338 25 318 0 c 1,60,-1
 0 0 l 1,61,-1
 0 180 l 1,32,-1
EndSplineSet
EndChar

StartChar: alefisolated
Encoding: 65165 65165 77
Width: 345
GlyphClass: 2
Flags: MW
AnchorPoint: "ArabicBelow" 204 -240 basechar 0
AnchorPoint: "ArabicAbove" 216 984 basechar 0
LayerCount: 2
Fore
SplineSet
231 698 m 2,0,1
 258 437 258 437 258 294.5 c 128,-1,2
 258 152 258 152 232.5 79 c 128,-1,3
 207 6 207 6 168 -46 c 1,4,-1
 88 654 l 2,5,6
 88 664 88 664 135 748 c 2,7,-1
 210 867 l 1,8,-1
 231 698 l 2,0,1
EndSplineSet
EndChar

StartChar: aleffinal
Encoding: 65166 65166 78
Width: 396
GlyphClass: 2
Flags: MW
AnchorPoint: "ArabicBelow" 240 -204 basechar 0
AnchorPoint: "ArabicAbove" 204 1044 basechar 0
LayerCount: 2
Fore
SplineSet
396 0 m 1,0,-1
 157 0 l 1,1,-1
 88 782 l 1,2,-1
 203 919 l 1,3,4
 203 807 203 807 234 536 c 2,5,-1
 259 308 l 2,6,7
 267 232 267 232 272 221 c 1,8,9
 272 213 272 213 274 211 c 1,10,-1
 283 193 l 2,11,12
 286 188 286 188 303 183 c 1,13,-1
 333 180 l 1,14,-1
 396 180 l 1,15,-1
 396 0 l 1,0,-1
EndSplineSet
EndChar

StartChar: behisolated
Encoding: 65167 65167 79
Width: 1143
GlyphClass: 2
Flags: MW
AnchorPoint: "ArabicBelow" 600 -528 basechar 0
AnchorPoint: "ArabicAbove" 564 576 basechar 0
LayerCount: 2
Fore
SplineSet
1056 328 m 2,0,-1
 1056 292 l 1,1,-1
 1054 277 l 2,2,3
 1054 258 1054 258 1050 241 c 2,4,-1
 1044 214 l 1,5,-1
 1043 198 l 2,6,7
 1043 192 1043 192 1036 178 c 2,8,-1
 1012 120 l 2,9,10
 976 13 976 13 961 0 c 1,11,-1
 300 0 l 1,12,-1
 259 3 l 2,13,14
 251 3 251 3 242 6 c 2,15,-1
 222 12 l 2,16,17
 192 23 192 23 153 52 c 0,18,19
 88 105 88 105 88 184 c 128,-1,20
 88 263 88 263 123.5 387.5 c 128,-1,21
 159 512 159 512 190 512 c 1,22,-1
 197 494 l 1,23,-1
 196 476 l 1,24,-1
 191 446 l 2,25,26
 178 367 178 367 178 333 c 2,27,-1
 178 308 l 1,28,-1
 180 287 l 1,29,-1
 185 272 l 1,30,-1
 199 254 l 2,31,32
 258 180 258 180 367 180 c 2,33,-1
 936 180 l 1,34,35
 947 190 947 190 947 206.5 c 128,-1,36
 947 223 947 223 946 225 c 2,37,-1
 940 243 l 1,38,39
 938 264 938 264 927 283 c 2,40,41
 922 307 922 307 899 333 c 2,42,-1
 874 370 l 1,43,-1
 966 531 l 1,44,-1
 1020 446 l 2,45,46
 1056 377.789 1056 377.789 1056 328 c 2,0,-1
731 -279 m 1,47,48
 731 -286 731 -286 678 -329 c 2,49,-1
 636 -359 l 2,50,51
 623 -369 623 -369 614.5 -369.5 c 128,-1,52
 606 -370 606 -370 553 -328 c 2,53,-1
 523 -303 l 2,54,55
 504 -287 504 -287 503 -279.5 c 128,-1,56
 502 -272 502 -272 551 -224.5 c 128,-1,57
 600 -177 600 -177 616 -174 c 1,58,-1
 654 -202 l 1,59,-1
 677 -221 l 2,60,61
 722 -265 722 -265 731 -279 c 1,47,48
EndSplineSet
EndChar

StartChar: behfinal
Encoding: 65168 65168 80
Width: 1160
GlyphClass: 2
Flags: MW
AnchorPoint: "ArabicBelow" 600 -528 basechar 0
AnchorPoint: "ArabicAbove" 588 528 basechar 0
LayerCount: 2
Fore
SplineSet
1032 396 m 2,0,1
 1030.2 358.194 1030.2 358.194 1018 269 c 0,2,3
 1018 237 1018 237 1040 215.5 c 128,-1,4
 1062 194 1062 194 1080 187 c 2,5,-1
 1099 182 l 1,6,-1
 1119 180 l 1,7,-1
 1160 180 l 1,8,-1
 1160 0 l 1,9,-1
 1060 0 l 2,10,11
 1000 0 1000 0 961 50 c 0,12,13
 947 69 947 69 933 118 c 1,14,-1
 899 71 l 1,15,-1
 853 0 l 1,16,-1
 256 0 l 2,17,18
 177 0 177 0 132.5 51 c 128,-1,19
 88 102 88 102 88 182.5 c 128,-1,20
 88 263 88 263 123.5 380 c 128,-1,21
 159 497 159 497 190 497 c 1,22,-1
 184 439 l 2,23,24
 164 343 164 343 164 323 c 2,25,-1
 164 306 l 1,26,-1
 166 287 l 2,27,28
 168.949 265.777 168.949 265.777 184 254 c 1,29,-1
 223 209 l 1,30,31
 257 180 257 180 309 180 c 2,32,-1
 905 180 l 1,33,-1
 908 186 l 1,34,-1
 916 221 l 1,35,-1
 925 282 l 1,36,-1
 925 319 l 1,37,-1
 927 352 l 1,38,-1
 1034 484 l 1,39,-1
 1034 460 l 1,40,-1
 1032 396 l 2,0,1
716 -298 m 1,41,42
 716 -308 716 -308 667 -346 c 128,-1,43
 618 -384 618 -384 601 -389 c 1,44,45
 591 -389 591 -389 543 -349 c 128,-1,46
 495 -309 495 -309 495 -301.5 c 128,-1,47
 495 -294 495 -294 543 -245 c 2,48,-1
 581 -210 l 1,49,-1
 601 -198 l 1,50,-1
 716 -298 l 1,41,42
EndSplineSet
EndChar

StartChar: behinitial
Encoding: 65169 65169 81
Width: 608
GlyphClass: 2
Flags: MW
AnchorPoint: "ArabicBelow" 276 -516 basechar 0
AnchorPoint: "ArabicAbove" 216 612 basechar 0
LayerCount: 2
Fore
SplineSet
0 180 m 1,0,-1
 427 181 l 1,1,2
 420 205 420 205 408 233 c 2,3,-1
 395 263 l 2,4,5
 389 277 389 277 377 294 c 0,6,7
 345 354 345 354 311 394 c 1,8,-1
 404 546 l 1,9,10
 452.426 489.503 452.426 489.503 481.713 422.251 c 128,-1,11
 511 355 511 355 516 326 c 2,12,-1
 519 303 l 1,13,-1
 520 267 l 1,14,-1
 520 250 l 1,15,-1
 518 207 l 2,16,17
 518 185 518 185 512 170 c 1,18,-1
 500 90 l 2,19,20
 493 17 493 17 485 0 c 1,21,-1
 0 0 l 1,22,-1
 0 180 l 1,0,-1
389 -298 m 1,23,24
 389 -308 389 -308 345.5 -348.5 c 128,-1,25
 302 -389 302 -389 291 -389 c 128,-1,26
 280 -389 280 -389 225.5 -352.5 c 128,-1,27
 171 -316 171 -316 161 -300 c 1,28,-1
 164 -292 l 1,29,-1
 172 -279 l 1,30,-1
 207 -242 l 2,31,32
 249 -202 249 -202 265 -195 c 1,33,-1
 282 -206 l 1,34,-1
 301 -220 l 1,35,-1
 327 -242 l 2,36,37
 375 -282 375 -282 389 -298 c 1,23,24
EndSplineSet
EndChar

StartChar: behmedial
Encoding: 65170 65170 82
Width: 578
GlyphClass: 2
Flags: MW
AnchorPoint: "ArabicBelow" 340 -525 basechar 0
AnchorPoint: "ArabicAbove" 216 516 basechar 0
LayerCount: 2
Fore
SplineSet
0 180 m 1,0,-1
 351 180 l 1,1,-1
 358 204 l 1,2,-1
 361 241 l 1,3,-1
 366 326 l 1,4,-1
 418 394 l 2,5,6
 468 455 468 455 479 466 c 1,7,-1
 481 447 l 1,8,-1
 483 413 l 1,9,-1
 482 384 l 1,10,-1
 482 362 l 1,11,-1
 478 345 l 1,12,-1
 475 307 l 1,13,-1
 468 268 l 1,14,-1
 467 250 l 2,15,16
 467 230 467 230 488 204 c 1,17,18
 516 180 516 180 550 180 c 2,19,-1
 578 180 l 1,20,-1
 578 0 l 1,21,-1
 492 0 l 2,22,23
 432 0 432 0 396 48 c 1,24,-1
 382 74 l 1,25,-1
 370 113 l 1,26,-1
 354 80 l 1,27,-1
 340 56 l 1,28,-1
 323 23 l 1,29,-1
 309 0 l 1,30,-1
 0 0 l 1,31,-1
 0 180 l 1,0,-1
470 -276 m 1,32,33
 470 -285 470 -285 411.5 -331.5 c 128,-1,34
 353 -378 353 -378 343.5 -378 c 128,-1,35
 334 -378 334 -378 276 -333 c 128,-1,36
 218 -288 218 -288 215 -278 c 1,37,38
 215 -272 215 -272 270 -217.5 c 128,-1,39
 325 -163 325 -163 342 -159 c 1,40,-1
 405 -214 l 2,41,42
 435.885 -236.462 435.885 -236.462 453 -257 c 2,43,-1
 470 -276 l 1,32,33
EndSplineSet
EndChar

StartChar: tehmarbutaisolated
Encoding: 65171 65171 83
Width: 665
GlyphClass: 2
Flags: MW
AnchorPoint: "ArabicBelow" 276 -192 basechar 0
AnchorPoint: "ArabicAbove" 288 984 basechar 0
LayerCount: 2
Fore
SplineSet
548 788 m 1,0,-1
 526 757 l 1,1,-1
 494 722 l 2,2,3
 464 689 464 689 449 680 c 1,4,-1
 311 752 l 1,5,-1
 242 682 l 1,6,7
 210 689 210 689 161.5 715.5 c 128,-1,8
 113 742 113 742 105 757 c 1,9,-1
 172 829 l 1,10,-1
 203 859 l 1,11,-1
 266 816 l 2,12,13
 313 789 313 789 327 789 c 1,14,-1
 338 797 l 1,15,-1
 366 822 l 2,16,17
 390 846 390 846 411 860 c 1,18,-1
 548 788 l 1,0,-1
575 261 m 1,19,-1
 531 130 l 2,20,21
 512 80 512 80 482 54 c 0,22,23
 475 48 475 48 388 11 c 2,24,-1
 323 -9 l 1,25,-1
 303 -12 l 1,26,-1
 284 -16 l 1,27,28
 192 -16 192 -16 163 -6 c 0,29,30
 88 14 88 14 88 84 c 128,-1,31
 88 154 88 154 153 270 c 2,32,-1
 229 391 l 2,33,34
 286.658 494.386 286.658 494.386 355 567 c 1,35,-1
 475 467 l 1,36,-1
 523 424 l 1,37,-1
 547 396 l 1,38,-1
 564 361 l 2,39,40
 577 330 577 330 577 296 c 2,41,-1
 577 286 l 1,42,-1
 575 261 l 1,19,-1
490 177 m 1,43,44
 490 214 490 214 410.5 301 c 128,-1,45
 331 388 331 388 314 388 c 1,46,-1
 258 310 l 2,47,48
 219 254 219 254 214 232 c 1,49,50
 214 191 214 191 238 174.5 c 128,-1,51
 262 158 262 158 320 158 c 128,-1,52
 378 158 378 158 427 167 c 2,53,-1
 490 177 l 1,43,44
EndSplineSet
EndChar

StartChar: tehmarbutafinal
Encoding: 65172 65172 84
Width: 754
GlyphClass: 2
Flags: MW
AnchorPoint: "ArabicBelow" 432 -192 basechar 0
AnchorPoint: "ArabicAbove" 312 1020 basechar 0
LayerCount: 2
Fore
SplineSet
420 737 m 1,0,1
 340.788 771.089 340.788 771.089 287 806 c 1,2,-1
 270 789 l 1,3,-1
 253 774 l 2,4,5
 222 748 222 748 221 741 c 1,6,7
 202 745 202 745 186 752 c 2,8,-1
 146 773 l 1,9,-1
 117 790 l 2,10,11
 97 802 97 802 88 811 c 1,12,-1
 183 911 l 1,13,14
 195 901 195 901 241 872 c 128,-1,15
 287 843 287 843 298 843 c 128,-1,16
 309 843 309 843 327 860 c 2,17,-1
 381 911 l 1,18,-1
 515 838 l 1,19,-1
 459 774 l 2,20,21
 427 740 427 740 420 737 c 1,0,1
755 0 m 1,22,-1
 644 0 l 2,23,24
 587 0 587 0 561 100 c 0,25,26
 551 179 551 179 546 192 c 2,27,-1
 544 200 l 1,28,-1
 533 198 l 1,29,30
 513 187 513 187 481 120.5 c 128,-1,31
 449 54 449 54 417 54 c 0,32,33
 404 54 404 54 288 81 c 2,34,-1
 192 101 l 1,35,-1
 162 106 l 1,36,-1
 140 108 l 1,37,38
 140 140 140 140 174 237.5 c 128,-1,39
 208 335 208 335 236.5 361.5 c 128,-1,40
 265 388 265 388 329 426 c 2,41,-1
 478 518 l 1,42,43
 478 528 478 528 469 548 c 1,44,-1
 461 576 l 1,45,-1
 497 630 l 1,46,-1
 553 732 l 1,47,-1
 569 651 l 1,48,-1
 583 571 l 1,49,-1
 616 337 l 2,50,51
 632 230 632 230 640 211 c 1,52,-1
 655 189 l 1,53,54
 664 180 664 180 687 180 c 2,55,-1
 755 180 l 1,56,-1
 755 0 l 1,22,-1
535 267 m 1,57,-1
 535 290 l 1,58,-1
 531 322 l 2,59,60
 531 334 531 334 527 345 c 2,61,-1
 520 376 l 2,62,63
 507 454 507 454 500 461 c 1,64,65
 479 446 479 446 464 420 c 2,66,-1
 441 374 l 2,67,68
 424 349 424 349 379 326 c 2,69,-1
 287 280 l 1,70,-1
 350 263 l 1,71,-1
 381 258 l 2,72,73
 407 255 407 255 413 250 c 1,74,-1
 463 245 l 1,75,-1
 507 245 l 1,76,-1
 533 246 l 1,77,-1
 535 267 l 1,57,-1
EndSplineSet
EndChar

StartChar: tehisolated
Encoding: 65173 65173 85
Width: 1143
GlyphClass: 2
Flags: MW
AnchorPoint: "ArabicBelow" 516 -156 basechar 0
AnchorPoint: "ArabicAbove" 540 936 basechar 0
LayerCount: 2
Fore
SplineSet
791 732 m 1,0,-1
 737 670 l 1,1,-1
 697 631 l 1,2,3
 690 631 690 631 630 664 c 2,4,-1
 566 700 l 1,5,-1
 533 668 l 2,6,7
 502 642 502 642 501 635 c 1,8,9
 475 640 475 640 433 662.5 c 128,-1,10
 391 685 391 685 369 704 c 1,11,-1
 400 738 l 2,12,13
 417 758 417 758 433 772 c 2,14,-1
 465 802 l 1,15,16
 474 791 474 791 522.5 764 c 128,-1,17
 571 737 571 737 579.5 737 c 128,-1,18
 588 737 588 737 611.5 759.5 c 2,19,-1
 644.5 790.5 l 2,20,21
 654 799 654 799 660 802 c 1,22,-1
 791 732 l 1,0,-1
1056 328 m 2,23,-1
 1056 292 l 1,24,-1
 1054 277 l 2,25,26
 1054 258 1054 258 1050 241 c 2,27,-1
 1044 214 l 1,28,-1
 1043 198 l 2,29,30
 1043 192 1043 192 1036 178 c 2,31,-1
 1012 120 l 2,32,33
 976 13 976 13 961 0 c 1,34,-1
 300 0 l 1,35,-1
 259 3 l 2,36,37
 251 3 251 3 242 6 c 2,38,-1
 222 12 l 2,39,40
 192 23 192 23 153 52 c 0,41,42
 88 105 88 105 88 184 c 128,-1,43
 88 263 88 263 123.5 387.5 c 128,-1,44
 159 512 159 512 190 512 c 1,45,-1
 197 494 l 1,46,-1
 196 471 l 1,47,-1
 191 447 l 2,48,49
 178 367 178 367 178 333 c 2,50,-1
 178 308 l 1,51,-1
 180 287 l 1,52,-1
 185 272 l 1,53,-1
 199 254 l 2,54,55
 258 180 258 180 367 180 c 2,56,-1
 936 180 l 1,57,58
 947 190 947 190 947 206.5 c 128,-1,59
 947 223 947 223 946 225 c 2,60,-1
 940 243 l 1,61,62
 938 264 938 264 927 283 c 2,63,64
 922 307 922 307 899 333 c 2,65,-1
 874 370 l 1,66,-1
 966 531 l 1,67,-1
 1020 446 l 2,68,69
 1056 377.789 1056 377.789 1056 328 c 2,23,-1
EndSplineSet
EndChar

StartChar: tehfinal
Encoding: 65174 65174 86
Width: 1160
GlyphClass: 2
Flags: MW
AnchorPoint: "ArabicBelow" 519 -169 basechar 0
AnchorPoint: "ArabicAbove" 588 840 basechar 0
LayerCount: 2
Fore
SplineSet
834 661 m 1,0,-1
 778 596 l 2,1,2
 749 564 749 564 738 559 c 1,3,4
 732 559 732 559 673 590 c 2,5,-1
 604 628 l 1,6,-1
 569 596 l 2,7,8
 537 567 537 567 533 561 c 1,9,10
 514 566 514 566 455 598 c 2,11,-1
 438 606 l 1,12,-1
 420 618 l 1,13,-1
 399 635 l 1,14,15
 441 682 441 682 467 705 c 2,16,-1
 497 733 l 1,17,18
 511 721 511 721 557 693 c 2,19,-1
 596 672 l 2,20,21
 607 667 607 667 614.5 666 c 128,-1,22
 622 665 622 665 644 685 c 2,23,-1
 699 737 l 1,24,-1
 834 661 l 1,0,-1
1032 396 m 2,25,26
 1030.2 358.194 1030.2 358.194 1018 269 c 0,27,28
 1018 237 1018 237 1040 215.5 c 128,-1,29
 1062 194 1062 194 1080 187 c 2,30,-1
 1099 182 l 1,31,-1
 1119 180 l 1,32,-1
 1160 180 l 1,33,-1
 1160 0 l 1,34,-1
 1060 0 l 2,35,36
 1000 0 1000 0 961 50 c 0,37,38
 947 69 947 69 933 118 c 1,39,-1
 899 71 l 1,40,-1
 853 0 l 1,41,-1
 256 0 l 2,42,43
 177 0 177 0 132.5 51 c 128,-1,44
 88 102 88 102 88 182.5 c 128,-1,45
 88 263 88 263 123.5 380 c 128,-1,46
 159 497 159 497 190 497 c 1,47,-1
 184 439 l 2,48,49
 164 343 164 343 164 323 c 2,50,-1
 164 306 l 1,51,-1
 166 287 l 2,52,53
 168.949 265.777 168.949 265.777 184 254 c 1,54,-1
 223 209 l 1,55,56
 257 180 257 180 309 180 c 2,57,-1
 905 180 l 1,58,-1
 908 186 l 1,59,-1
 916 221 l 1,60,-1
 925 282 l 1,61,-1
 925 319 l 1,62,-1
 927 352 l 1,63,-1
 1034 484 l 1,64,-1
 1034 460 l 1,65,-1
 1032 396 l 2,25,26
EndSplineSet
EndChar

StartChar: tehinitial
Encoding: 65175 65175 87
Width: 621
GlyphClass: 2
Flags: MW
AnchorPoint: "ArabicBelow" 222 -169 basechar 0
AnchorPoint: "ArabicAbove" 276 948 basechar 0
LayerCount: 2
Fore
SplineSet
533 789 m 1,0,-1
 470 715 l 1,1,-1
 433 679 l 1,2,-1
 292 752 l 1,3,-1
 262 729 l 2,4,5
 233 702 233 702 216 683 c 1,6,-1
 183 696 l 1,7,-1
 101 740 l 1,8,-1
 74 758 l 1,9,10
 124 816 124 816 144 833 c 2,11,-1
 177 861 l 1,12,-1
 236 816 l 2,13,14
 263 795 263 795 290 788 c 1,15,16
 300 788 300 788 339 822 c 2,17,-1
 386 867 l 1,18,-1
 533 789 l 1,0,-1
0 180 m 1,19,-1
 404 180 l 1,20,-1
 395 228 l 2,21,22
 366 330 366 330 289 411 c 1,23,-1
 388 581 l 1,24,25
 407 562 407 562 437.5 513 c 128,-1,26
 468 464 468 464 482 432 c 2,27,-1
 507 367 l 1,28,-1
 514 332 l 1,29,-1
 516 283 l 1,30,-1
 514 230 l 1,31,-1
 513 193 l 1,32,-1
 496 118 l 1,33,-1
 478 61 l 1,34,-1
 461 0 l 1,35,-1
 0 0 l 1,36,-1
 0 180 l 1,19,-1
EndSplineSet
EndChar

StartChar: tehmedial
Encoding: 65176 65176 88
Width: 604
GlyphClass: 2
Flags: MW
AnchorPoint: "ArabicBelow" 222 -212 basechar 0
AnchorPoint: "ArabicAbove" 264 948 basechar 0
LayerCount: 2
Fore
SplineSet
525 761 m 1,0,1
 515 747 515 747 464 692 c 2,2,-1
 420 650 l 1,3,4
 415 650 415 650 351 683 c 2,5,-1
 277 726 l 1,6,-1
 224 678 l 1,7,-1
 203 654 l 1,8,9
 176 659 176 659 121.5 688 c 128,-1,10
 67 717 67 717 59 730 c 1,11,-1
 101 777 l 1,12,-1
 163 838 l 1,13,14
 171 831 171 831 229 794 c 2,15,-1
 266 775 l 1,16,-1
 292 766 l 1,17,18
 300 766 300 766 331.5 797 c 128,-1,19
 363 828 363 828 379 839 c 1,20,-1
 525 761 l 1,0,1
519 0 m 2,21,22
 420 0 420 0 386 120 c 1,23,-1
 320 0 l 1,24,-1
 0 0 l 1,25,-1
 0 180 l 1,26,-1
 366 180 l 1,27,-1
 376 208 l 1,28,-1
 381 230 l 1,29,-1
 381 255 l 1,30,-1
 386 352 l 1,31,-1
 494 481 l 1,32,-1
 494 458 l 1,33,-1
 491 393 l 1,34,-1
 489 345 l 1,35,-1
 489 331 l 1,36,-1
 485 318 l 1,37,-1
 479 283 l 1,38,-1
 478 272 l 2,39,40
 478 237 478 237 505 209 c 0,41,42
 539 180 539 180 581 180 c 2,43,-1
 605 180 l 1,44,-1
 605 0 l 1,45,-1
 519 0 l 2,21,22
EndSplineSet
EndChar

StartChar: thehisolated
Encoding: 65177 65177 89
Width: 1143
GlyphClass: 2
Flags: MW
AnchorPoint: "ArabicBelow" 540 -148 basechar 0
AnchorPoint: "ArabicAbove" 540 948 basechar 0
LayerCount: 2
Fore
SplineSet
654 737 m 1,0,1
 654 729 654 729 624.5 705.5 c 128,-1,2
 595 682 595 682 569 672 c 1,3,4
 560 672 560 672 519 700 c 2,5,-1
 490 722 l 2,6,7
 479 731 479 731 477 735 c 1,8,-1
 517 780 l 1,9,-1
 546 806 l 1,10,-1
 562 817 l 1,11,12
 644.714 759.286 644.714 759.286 654 737 c 1,0,1
766 567 m 1,13,14
 763 561 763 561 751 545.5 c 2,15,-1
 719 504 l 2,16,17
 693 475 693 475 682 469 c 1,18,-1
 583 522 l 1,19,-1
 562 535 l 1,20,-1
 549 519 l 1,21,-1
 506 469 l 1,22,-1
 475 482 l 1,23,-1
 438 503 l 2,24,25
 403 522 403 522 387 540 c 1,26,-1
 446 608 l 1,27,-1
 475 636 l 1,28,29
 476 631 476 631 525 598 c 0,30,31
 562 577 562 577 579 574 c 1,32,-1
 585 578 l 1,33,-1
 651 641 l 1,34,-1
 766 567 l 1,13,14
1056 328 m 2,35,-1
 1056 292 l 1,36,-1
 1054 277 l 2,37,38
 1054 258 1054 258 1050 241 c 2,39,-1
 1044 214 l 1,40,-1
 1043 198 l 2,41,42
 1043 192 1043 192 1036 178 c 2,43,-1
 1012 120 l 2,44,45
 976 13 976 13 961 0 c 1,46,-1
 300 0 l 1,47,-1
 259 3 l 2,48,49
 251 3 251 3 242 6 c 2,50,-1
 222 12 l 2,51,52
 192 23 192 23 153 52 c 0,53,54
 88 105 88 105 88 184 c 128,-1,55
 88 263 88 263 123.5 387.5 c 128,-1,56
 159 512 159 512 190 512 c 1,57,-1
 197 494 l 1,58,-1
 196 471 l 1,59,-1
 191 447 l 2,60,61
 178 367 178 367 178 333 c 2,62,-1
 178 308 l 1,63,-1
 180 287 l 1,64,-1
 185 272 l 1,65,-1
 199 254 l 2,66,67
 258 180 258 180 367 180 c 2,68,-1
 936 180 l 1,69,70
 947 190 947 190 947 206.5 c 128,-1,71
 947 223 947 223 946 225 c 2,72,-1
 940 243 l 1,73,74
 938 264 938 264 927 283 c 2,75,76
 922 307 922 307 899 333 c 2,77,-1
 874 370 l 1,78,-1
 966 531 l 1,79,-1
 1020 446 l 2,80,81
 1056 377.789 1056 377.789 1056 328 c 2,35,-1
EndSplineSet
EndChar

StartChar: thehfinal
Encoding: 65178 65178 90
Width: 1160
GlyphClass: 2
Flags: MW
AnchorPoint: "ArabicBelow" 529 -148 basechar 0
AnchorPoint: "ArabicAbove" 588 948 basechar 0
LayerCount: 2
Fore
SplineSet
690 737 m 1,0,1
 690 717.818 690 717.818 606 672 c 1,2,3
 598 672 598 672 541 711 c 2,4,-1
 525 722 l 1,5,-1
 512 735 l 1,6,7
 512 743 512 743 551 779 c 128,-1,8
 590 815 590 815 599 817 c 1,9,-1
 644 780 l 1,10,-1
 690 737 l 1,0,1
803 598 m 1,11,-1
 754 533 l 2,12,13
 728 498 728 498 718 497 c 1,14,-1
 702 504 l 1,15,-1
 640 538 l 1,16,-1
 601 563 l 1,17,-1
 571 533 l 1,18,-1
 548 505 l 1,19,-1
 542 497 l 1,20,-1
 458 542 l 1,21,-1
 443 553 l 1,22,-1
 424 570 l 1,23,-1
 457 611 l 1,24,-1
 482 639 l 1,25,-1
 508 665 l 1,26,-1
 562 627 l 1,27,-1
 592 612 l 1,28,-1
 616 604 l 1,29,-1
 636 621 l 1,30,-1
 686 670 l 1,31,-1
 803 598 l 1,11,-1
1032 396 m 2,32,33
 1030.2 358.194 1030.2 358.194 1018 269 c 0,34,35
 1018 237 1018 237 1040 215.5 c 128,-1,36
 1062 194 1062 194 1080 187 c 2,37,-1
 1099 182 l 1,38,-1
 1119 180 l 1,39,-1
 1160 180 l 1,40,-1
 1160 0 l 1,41,-1
 1060 0 l 2,42,43
 1000 0 1000 0 961 50 c 0,44,45
 947 69 947 69 933 118 c 1,46,-1
 899 71 l 1,47,-1
 853 0 l 1,48,-1
 256 0 l 2,49,50
 177 0 177 0 132.5 51 c 128,-1,51
 88 102 88 102 88 182.5 c 128,-1,52
 88 263 88 263 123.5 380 c 128,-1,53
 159 497 159 497 190 497 c 1,54,-1
 184 439 l 2,55,56
 164 343 164 343 164 323 c 2,57,-1
 164 306 l 1,58,-1
 166 287 l 2,59,60
 168.949 265.777 168.949 265.777 184 254 c 1,61,-1
 223 209 l 1,62,63
 257 180 257 180 309 180 c 2,64,-1
 905 180 l 1,65,-1
 908 186 l 1,66,-1
 916 221 l 1,67,-1
 925 282 l 1,68,-1
 925 319 l 1,69,-1
 927 352 l 1,70,-1
 1034 484 l 1,71,-1
 1034 460 l 1,72,-1
 1032 396 l 2,32,33
EndSplineSet
EndChar

StartChar: thehinitial
Encoding: 65179 65179 91
Width: 707
GlyphClass: 2
Flags: MW
AnchorPoint: "ArabicBelow" 254 -191 basechar 0
AnchorPoint: "ArabicAbove" 252 1008 basechar 0
LayerCount: 2
Fore
SplineSet
403 824 m 1,0,-1
 301 739 l 1,1,-1
 187 820 l 1,2,-1
 292 907 l 1,3,-1
 403 824 l 1,0,-1
541 682 m 1,4,5
 519 643 519 643 488 608 c 1,6,7
 485 599 485 599 473 590 c 1,8,-1
 457 571 l 1,9,10
 453 571 453 571 405 598 c 2,11,-1
 314 659 l 1,12,13
 308 657 308 657 305 652 c 1,14,-1
 280 626 l 1,15,-1
 235 568 l 1,16,-1
 198 584 l 1,17,-1
 149 611 l 2,18,19
 92 642 92 642 83 654 c 1,20,-1
 149 730 l 1,21,-1
 175 757 l 1,22,-1
 252 708 l 2,23,24
 296 682 296 682 307 682 c 0,25,26
 324 682 324 682 357 715 c 0,27,28
 386 750 386 750 404 765 c 1,29,-1
 541 682 l 1,4,5
0 180 m 1,30,-1
 512 180 l 1,31,-1
 509 199 l 1,32,-1
 483 276 l 1,33,-1
 472 300 l 1,34,-1
 451 335 l 1,35,36
 446 348 446 348 414 382 c 1,37,-1
 427 417 l 1,38,-1
 471 503 l 1,39,-1
 497 546 l 1,40,41
 520 518 520 518 559 449 c 128,-1,42
 598 380 598 380 611 326 c 2,43,-1
 618 279 l 1,44,-1
 618 257 l 1,45,-1
 620 230 l 1,46,-1
 619 207 l 2,47,48
 619 191 619 191 617 187 c 1,49,-1
 613 168 l 1,50,-1
 611 150 l 2,51,52
 606.186 121.212 606.186 121.212 599 98 c 2,53,-1
 572 0 l 1,54,-1
 0 0 l 1,55,-1
 0 180 l 1,30,-1
EndSplineSet
EndChar

StartChar: thehmedial
Encoding: 65180 65180 92
Width: 621
GlyphClass: 2
Flags: MW
AnchorPoint: "ArabicBelow" 222 -169 basechar 0
AnchorPoint: "ArabicAbove" 264 1008 basechar 0
LayerCount: 2
Fore
SplineSet
376 815 m 1,0,-1
 289 735 l 1,1,-1
 191 813 l 1,2,-1
 282 897 l 1,3,-1
 376 815 l 1,0,-1
504 665 m 1,4,-1
 439 583 l 1,5,-1
 421 562 l 1,6,-1
 357 602 l 2,7,8
 294 642 294 642 284 642 c 1,9,-1
 254 615 l 1,10,-1
 208 565 l 1,11,12
 143.2 591.325 143.2 591.325 91 637 c 1,13,-1
 129 683 l 1,14,-1
 163 720 l 1,15,-1
 176 732 l 1,16,-1
 239 691 l 2,17,18
 280 668 280 668 298 664 c 1,19,20
 308 664 308 664 352 707 c 2,21,-1
 384 737 l 1,22,-1
 504 665 l 1,4,-1
0 180 m 1,23,-1
 363 180 l 1,24,-1
 370 204 l 1,25,-1
 374 241 l 1,26,-1
 378 326 l 1,27,-1
 491 466 l 1,28,-1
 493 447 l 1,29,-1
 495 413 l 1,30,-1
 494 384 l 1,31,-1
 494 362 l 1,32,-1
 490 345 l 1,33,-1
 488 308 l 1,34,-1
 480 263 l 1,35,-1
 479 250 l 2,36,37
 479 230 479 230 500 204 c 1,38,39
 528 180 528 180 562 180 c 2,40,-1
 621 180 l 1,41,-1
 621 0 l 1,42,-1
 506 0 l 2,43,44
 465 0 465 0 428 26 c 1,45,46
 406 48 406 48 382 113 c 1,47,-1
 352 56 l 2,48,49
 338 25 338 25 317 0 c 1,50,-1
 0 0 l 1,51,-1
 0 180 l 1,23,-1
EndSplineSet
EndChar

StartChar: jeemisolated
Encoding: 65181 65181 93
Width: 986
GlyphClass: 2
Flags: MW
AnchorPoint: "ArabicBelow" 476 -709 basechar 0
AnchorPoint: "ArabicAbove" 540 696 basechar 0
LayerCount: 2
Fore
SplineSet
898 -441 m 1,0,1
 859 -490 859 -490 769 -535.5 c 128,-1,2
 679 -581 679 -581 507 -581 c 128,-1,3
 335 -581 335 -581 224 -487 c 128,-1,4
 113 -393 113 -393 113 -250 c 0,5,6
 113 -60.4444 113 -60.4444 181 68 c 0,7,8
 239 188 239 188 361 300 c 1,9,10
 337 308 337 308 301 316 c 2,11,-1
 260 321 l 1,12,-1
 212 322 l 2,13,14
 174 322 174 322 146.5 298.5 c 128,-1,15
 119 275 119 275 88 272 c 1,16,-1
 120 383 l 1,17,18
 173 496 173 496 249 496 c 2,19,-1
 288 496 l 1,20,-1
 314 492 l 1,21,22
 328 492 328 492 345 489 c 2,23,-1
 444 468 l 1,24,-1
 527 453 l 1,25,-1
 584 446 l 1,26,-1
 624 444 l 1,27,-1
 816 444 l 1,28,-1
 777 361 l 1,29,-1
 744 282 l 1,30,-1
 722 281 l 1,31,-1
 706 280 l 2,32,33
 689.923 280 689.923 280 611 261 c 0,34,35
 570 256 570 256 522 243 c 2,36,-1
 484 231 l 1,37,-1
 446 217 l 2,38,39
 339.785 174.514 339.785 174.514 270 68 c 0,40,41
 194 -44 194 -44 194 -143.5 c 128,-1,42
 194 -243 194 -243 287 -323 c 0,43,44
 357 -379 357 -379 501 -415 c 2,45,-1
 577 -429 l 1,46,-1
 619 -433 l 1,47,-1
 661 -435 l 1,48,-1
 826 -441 l 1,49,-1
 898 -441 l 1,0,1
642 -117 m 1,50,51
 642 -126 642 -126 592 -183 c 2,52,-1
 568 -212 l 1,53,-1
 548 -232 l 1,54,-1
 435 -142 l 1,55,-1
 470 -87 l 2,56,57
 504 -40 504 -40 523 -35 c 1,58,-1
 583 -74 l 2,59,60
 638 -111 638 -111 642 -117 c 1,50,51
EndSplineSet
EndChar

StartChar: jeemfinal
Encoding: 65182 65182 94
Width: 996
GlyphClass: 2
Flags: MW
AnchorPoint: "ArabicBelow" 476 -635 basechar 0
AnchorPoint: "ArabicAbove" 576 648 basechar 0
LayerCount: 2
Fore
SplineSet
523 -503 m 2,0,-1
 500 -503 l 1,1,-1
 466 -502 l 2,2,3
 448 -502 448 -502 434 -498 c 2,4,5
 408.429 -498 408.429 -498 346.714 -480 c 128,-1,6
 285 -462 285 -462 227 -417 c 0,7,8
 119 -333 119 -333 119 -179.5 c 128,-1,9
 119 -26 119 -26 206 118 c 0,10,11
 257.093 199.97 257.093 199.97 373 315 c 1,12,-1
 361 320 l 1,13,-1
 309 332 l 1,14,-1
 274 336 l 1,15,-1
 237 337 l 1,16,-1
 218 337 l 2,17,18
 191 337 191 337 164 328 c 2,19,-1
 147 320 l 1,20,-1
 94 287 l 1,21,22
 89 292 89 292 88 306 c 0,23,24
 88 346 88 346 141 428.5 c 128,-1,25
 194 511 194 511 255 511 c 2,26,-1
 294 511 l 1,27,-1
 320 507 l 1,28,29
 334 507 334 507 351 504 c 2,30,-1
 466 480 l 1,31,-1
 533 468 l 1,32,-1
 586 461 l 1,33,-1
 629 459 l 1,34,-1
 821 459 l 1,35,-1
 759 321 l 1,36,-1
 749 296 l 1,37,-1
 677 285 l 1,38,-1
 671 246 l 1,39,40
 671 200.366 671 200.366 734 185 c 2,41,-1
 770 180 l 1,42,-1
 997 180 l 1,43,-1
 997 0 l 1,44,-1
 783 0 l 2,45,46
 655.5 0 655.5 0 610 63 c 1,47,-1
 596 95 l 1,48,-1
 592 117 l 1,49,-1
 590 139 l 1,50,-1
 590 157 l 2,51,52
 590 171 590 171 592 175 c 1,53,-1
 595 192 l 1,54,-1
 601 211 l 2,55,56
 606 236 606 236 629 276 c 1,57,-1
 556 264 l 1,58,-1
 452 240 l 2,59,60
 435 237 435 237 431 233 c 1,61,62
 333 182 333 182 270 96.5 c 128,-1,63
 207 11 207 11 207 -76 c 0,64,65
 207 -210 207 -210 353 -287 c 2,66,-1
 407 -308 l 1,67,-1
 476 -328 l 2,68,69
 504 -333 504 -333 559 -341.5 c 2,70,-1
 655 -356 l 1,71,-1
 904 -363 l 1,72,73
 885 -387 885 -387 864.5 -404 c 128,-1,74
 844 -421 844 -421 795 -447 c 0,75,76
 684 -503 684 -503 523 -503 c 2,0,-1
622 -148 m 1,77,78
 622 -153 622 -153 570 -195 c 128,-1,79
 518 -237 518 -237 508.5 -237 c 128,-1,80
 499 -237 499 -237 447 -197.5 c 128,-1,81
 395 -158 395 -158 395 -149 c 1,82,-1
 407 -134 l 2,83,84
 466.439 -59.7018 466.439 -59.7018 507 -43 c 1,85,-1
 568 -91 l 2,86,87
 613 -134 613 -134 622 -148 c 1,77,78
EndSplineSet
EndChar

StartChar: jeeminitial
Encoding: 65183 65183 95
Width: 1146
GlyphClass: 2
Flags: MW
AnchorPoint: "ArabicBelow" 582 -498 basechar 0
AnchorPoint: "ArabicAbove" 612 648 basechar 0
LayerCount: 2
Fore
SplineSet
0 180 m 1,0,-1
 359 180 l 1,1,-1
 392 181 l 1,2,-1
 411 181 l 1,3,-1
 425 185 l 1,4,-1
 443 185 l 1,5,-1
 499 200 l 1,6,-1
 533 213 l 1,7,-1
 578 237 l 1,8,-1
 482 285 l 2,9,10
 370.727 333 370.727 333 319.364 333 c 128,-1,11
 268 333 268 333 231 317 c 128,-1,12
 194 301 194 301 185 300 c 1,13,-1
 247 402 l 1,14,15
 337 504 337 504 391.5 504 c 0,16,17
 493.907 504 493.907 504 626 424 c 2,18,-1
 709 375 l 1,19,-1
 778 341 l 1,20,-1
 934 279 l 1,21,-1
 998 261 l 1,22,-1
 1058 248 l 1,23,-1
 947 96 l 1,24,-1
 794 109 l 1,25,-1
 652 115 l 2,26,27
 594 115 594 115 484 57.5 c 128,-1,28
 374 0 374 0 326 0 c 2,29,-1
 0 0 l 1,30,-1
 0 180 l 1,0,-1
734 -207 m 1,31,-1
 695 -232 l 1,32,-1
 598 -335 l 1,33,-1
 431 -239 l 1,34,-1
 561 -112 l 1,35,-1
 700 -193 l 1,36,-1
 734 -207 l 1,31,-1
EndSplineSet
EndChar

StartChar: jeemmedial
Encoding: 65184 65184 96
Width: 1173
GlyphClass: 2
Flags: MW
AnchorPoint: "ArabicBelow" 519 -529 basechar 0
AnchorPoint: "ArabicAbove" 636 672 basechar 0
LayerCount: 2
Fore
SplineSet
0 180 m 1,0,-1
 384 180 l 1,1,-1
 413 181 l 2,2,3
 425 181 425 181 433.5 183.5 c 128,-1,4
 442 186 442 186 458 189 c 128,-1,5
 474 192 474 192 538.5 217.5 c 128,-1,6
 603 243 603 243 604 254 c 1,7,-1
 472 300 l 2,8,9
 359 337 359 337 314 337 c 128,-1,10
 269 337 269 337 243 322 c 2,11,-1
 187 285 l 1,12,-1
 243 389 l 2,13,14
 316 495 316 495 397 503 c 2,15,-1
 428 504 l 2,16,17
 504 504 504 504 631 446 c 128,-1,18
 758 388 758 388 812 370 c 2,19,-1
 881 353 l 1,20,-1
 952 339 l 2,21,22
 1031 326 1031 326 1086 326 c 1,23,-1
 1063 259 l 1,24,-1
 1048 211 l 2,25,26
 1045 197 1045 197 1037 180 c 1,27,-1
 1173 180 l 1,28,-1
 1173 0 l 1,29,-1
 934 0 l 1,30,-1
 913 135 l 1,31,-1
 875 135 l 1,32,-1
 835 139 l 1,33,-1
 766 140 l 1,34,-1
 698 140 l 2,35,36
 638.711 140 638.711 140 521 69 c 0,37,38
 397.276 -7.62939e-06 397.276 -7.62939e-06 348 0 c 2,39,-1
 0 0 l 1,40,-1
 0 180 l 1,0,-1
647 -259 m 1,41,-1
 600 -317 l 2,42,43
 554 -369 554 -369 537 -374 c 1,44,-1
 469 -339 l 2,45,46
 408 -305 408 -305 400 -292 c 1,47,-1
 450 -233 l 2,48,49
 499 -186 499 -186 509 -183 c 1,50,-1
 574 -221 l 2,51,52
 633 -258 633 -258 647 -259 c 1,41,-1
EndSplineSet
EndChar

StartChar: hahisolated
Encoding: 65185 65185 97
Width: 986
GlyphClass: 2
Flags: MW
AnchorPoint: "ArabicBelow" 529 -731 basechar 0
AnchorPoint: "ArabicAbove" 528 648 basechar 0
LayerCount: 2
Fore
SplineSet
898 -441 m 1,0,1
 859 -490 859 -490 769 -535.5 c 128,-1,2
 679 -581 679 -581 507 -581 c 128,-1,3
 335 -581 335 -581 224 -487 c 128,-1,4
 113 -393 113 -393 113 -250 c 0,5,6
 113 -60.4444 113 -60.4444 181 68 c 0,7,8
 239 188 239 188 361 300 c 1,9,10
 337 308 337 308 301 316 c 2,11,-1
 260 321 l 1,12,-1
 212 322 l 2,13,14
 174 322 174 322 146.5 298.5 c 128,-1,15
 119 275 119 275 88 272 c 1,16,-1
 120 383 l 1,17,18
 173 496 173 496 249 496 c 2,19,-1
 288 496 l 1,20,-1
 314 492 l 1,21,22
 328 492 328 492 345 489 c 2,23,-1
 444 468 l 1,24,-1
 527 453 l 1,25,-1
 584 446 l 1,26,-1
 624 444 l 1,27,-1
 816 444 l 1,28,-1
 777 361 l 1,29,-1
 744 282 l 1,30,-1
 722 281 l 1,31,-1
 706 280 l 2,32,33
 689.923 280 689.923 280 611 261 c 0,34,35
 570 256 570 256 522 243 c 2,36,-1
 484 231 l 1,37,-1
 446 217 l 2,38,39
 339.785 174.514 339.785 174.514 270 68 c 0,40,41
 194 -44 194 -44 194 -143.5 c 128,-1,42
 194 -243 194 -243 287 -323 c 0,43,44
 357 -379 357 -379 501 -415 c 2,45,-1
 577 -429 l 1,46,-1
 619 -433 l 1,47,-1
 661 -435 l 1,48,-1
 826 -441 l 1,49,-1
 898 -441 l 1,0,1
EndSplineSet
EndChar

StartChar: hahfinal
Encoding: 65186 65186 98
Width: 983
GlyphClass: 2
Flags: MW
AnchorPoint: "ArabicBelow" 540 -678 basechar 0
AnchorPoint: "ArabicAbove" 504 648 basechar 0
LayerCount: 2
Fore
SplineSet
983 0 m 1,0,-1
 700 0 l 1,1,-1
 690 2 l 2,2,3
 669.983 3.4794 669.983 3.4794 655 11 c 0,4,5
 559 48.2245 559 48.2245 559 142 c 0,6,7
 559 177 559 177 568 202 c 2,8,-1
 578 232 l 1,9,-1
 596 269 l 1,10,-1
 535 253 l 1,11,-1
 506 243 l 1,12,-1
 482 233 l 2,13,14
 366 183 366 183 286.5 71.5 c 128,-1,15
 207 -40 207 -40 207 -140.5 c 128,-1,16
 207 -241 207 -241 312 -317 c 0,17,18
 396 -370 396 -370 547 -402 c 2,19,-1
 599 -410 l 1,20,-1
 644 -413 l 1,21,-1
 764 -416 l 1,22,-1
 831 -415 l 1,23,-1
 896 -415 l 2,24,25
 968 -415 968 -415 975 -425 c 1,26,27
 975 -456 975 -456 881 -498.5 c 128,-1,28
 787 -541 787 -541 712.5 -556.5 c 128,-1,29
 638 -572 638 -572 551 -572 c 0,30,31
 356 -572 356 -572 236 -487.5 c 128,-1,32
 116 -403 116 -403 116 -250 c 0,33,34
 116 -108.312 116 -108.312 163 18 c 2,35,-1
 176 47 l 2,36,37
 239.621 191.592 239.621 191.592 367 289 c 2,38,-1
 383 302 l 1,39,-1
 326 319 l 1,40,-1
 270 323 l 1,41,-1
 234 324 l 1,42,-1
 214 324 l 2,43,44
 163 324 163 324 147 308 c 1,45,-1
 88 274 l 1,46,-1
 120 387 l 1,47,48
 173 500 173 500 252 500 c 0,49,50
 274 500 274 500 332 492 c 2,51,-1
 480 466 l 1,52,-1
 568 453 l 1,53,-1
 644 448 l 1,54,-1
 853 448 l 1,55,-1
 785 300 l 1,56,57
 729 300 729 300 646 280 c 1,58,-1
 642 264 l 1,59,-1
 640 246 l 2,60,61
 640 234 640 234 651 215 c 128,-1,62
 662 196 662 196 698 187 c 2,63,-1
 734 182 l 1,64,-1
 783 180 l 1,65,-1
 983 180 l 1,66,-1
 983 0 l 1,0,-1
EndSplineSet
EndChar

StartChar: hahinitial
Encoding: 65187 65187 99
Width: 1146
GlyphClass: 2
Flags: MW
AnchorPoint: "ArabicBelow" 540 -180 basechar 0
AnchorPoint: "ArabicAbove" 600 684 basechar 0
LayerCount: 2
Fore
SplineSet
0 180 m 1,0,-1
 359 180 l 1,1,-1
 392 181 l 1,2,-1
 411 181 l 1,3,-1
 425 185 l 1,4,-1
 443 185 l 1,5,-1
 499 200 l 1,6,-1
 533 213 l 1,7,-1
 578 237 l 1,8,-1
 482 285 l 2,9,10
 370.727 333 370.727 333 319.364 333 c 128,-1,11
 268 333 268 333 231 317 c 128,-1,12
 194 301 194 301 185 300 c 1,13,-1
 247 402 l 1,14,15
 337 504 337 504 391.5 504 c 0,16,17
 493.907 504 493.907 504 626 424 c 2,18,-1
 709 375 l 1,19,-1
 778 341 l 1,20,-1
 934 279 l 1,21,-1
 998 261 l 1,22,-1
 1058 248 l 1,23,-1
 947 96 l 1,24,-1
 794 109 l 1,25,-1
 652 115 l 2,26,27
 594 115 594 115 484 57.5 c 128,-1,28
 374 0 374 0 326 0 c 2,29,-1
 0 0 l 1,30,-1
 0 180 l 1,0,-1
EndSplineSet
EndChar

StartChar: hahmedial
Encoding: 65188 65188 100
Width: 1180
GlyphClass: 2
Flags: MW
AnchorPoint: "ArabicBelow" 561 -180 basechar 0
AnchorPoint: "ArabicAbove" 564 648 basechar 0
LayerCount: 2
Fore
SplineSet
0 180 m 1,0,-1
 391 180 l 1,1,-1
 420 181 l 2,2,3
 432 181 432 181 440.5 183.5 c 128,-1,4
 449 186 449 186 465 189 c 128,-1,5
 481 192 481 192 545.5 217.5 c 128,-1,6
 610 243 610 243 611 254 c 1,7,-1
 479 300 l 2,8,9
 366 337 366 337 321 337 c 128,-1,10
 276 337 276 337 250 322 c 2,11,-1
 194 285 l 1,12,-1
 250 389 l 2,13,14
 323 495 323 495 404 503 c 2,15,-1
 435 504 l 2,16,17
 512 504 512 504 639 446 c 128,-1,18
 766 388 766 388 819 370 c 2,19,-1
 888 353 l 1,20,-1
 959 339 l 2,21,22
 1038 326 1038 326 1093 326 c 1,23,-1
 1070 259 l 1,24,-1
 1055 211 l 2,25,26
 1052 197 1052 197 1044 180 c 1,27,-1
 1180 180 l 1,28,-1
 1180 0 l 1,29,-1
 941 0 l 1,30,-1
 920 135 l 1,31,-1
 882 135 l 1,32,-1
 842 139 l 1,33,-1
 773 140 l 1,34,-1
 705 140 l 2,35,36
 645.711 140 645.711 140 528 69 c 0,37,38
 404.276 -7.62939e-06 404.276 -7.62939e-06 355 0 c 2,39,-1
 0 0 l 1,40,-1
 0 180 l 1,0,-1
EndSplineSet
EndChar

StartChar: khahisolated
Encoding: 65189 65189 101
Width: 986
GlyphClass: 2
Flags: MW
AnchorPoint: "ArabicBelow" 561 -709 basechar 0
AnchorPoint: "ArabicAbove" 348 960 basechar 0
LayerCount: 2
Fore
SplineSet
424 802.5 m 128,-1,1
 474 768 474 768 475.5 756.5 c 128,-1,2
 477 745 477 745 471 736 c 2,3,-1
 461 719 l 1,4,-1
 415 665 l 1,5,-1
 386 639 l 1,6,-1
 333 680 l 2,7,8
 285 719 285 719 279 730 c 1,9,10
 279 746 279 746 324 804 c 0,11,12
 348 833 348 833 366 837 c 1,13,0
 374 837 374 837 424 802.5 c 128,-1,1
898 -441 m 1,14,15
 859 -490 859 -490 769 -535.5 c 128,-1,16
 679 -581 679 -581 507 -581 c 128,-1,17
 335 -581 335 -581 224 -487 c 128,-1,18
 113 -393 113 -393 113 -250 c 0,19,20
 113 -60.4444 113 -60.4444 181 68 c 0,21,22
 239 188 239 188 361 300 c 1,23,24
 337 308 337 308 301 316 c 2,25,-1
 260 321 l 1,26,-1
 212 322 l 2,27,28
 174 322 174 322 146.5 298.5 c 128,-1,29
 119 275 119 275 88 272 c 1,30,-1
 120 383 l 1,31,32
 173 496 173 496 249 496 c 2,33,-1
 288 496 l 1,34,-1
 314 492 l 1,35,36
 328 492 328 492 345 489 c 2,37,-1
 444 468 l 1,38,-1
 527 453 l 1,39,-1
 584 446 l 1,40,-1
 624 444 l 1,41,-1
 816 444 l 1,42,-1
 777 361 l 1,43,-1
 744 282 l 1,44,-1
 722 281 l 1,45,-1
 706 280 l 2,46,47
 689.923 280 689.923 280 611 261 c 0,48,49
 570 256 570 256 522 243 c 2,50,-1
 484 231 l 1,51,-1
 446 217 l 2,52,53
 339.785 174.514 339.785 174.514 270 68 c 0,54,55
 194 -44 194 -44 194 -143.5 c 128,-1,56
 194 -243 194 -243 287 -323 c 0,57,58
 357 -379 357 -379 501 -415 c 2,59,-1
 577 -429 l 1,60,-1
 619 -433 l 1,61,-1
 661 -435 l 1,62,-1
 826 -441 l 1,63,-1
 898 -441 l 1,14,15
EndSplineSet
EndChar

StartChar: khahfinal
Encoding: 65190 65190 102
Width: 979
GlyphClass: 2
Flags: MW
AnchorPoint: "ArabicBelow" 614 -678 basechar 0
AnchorPoint: "ArabicAbove" 360 948 basechar 0
LayerCount: 2
Fore
SplineSet
497 708 m 1,0,-1
 495 704 l 1,1,-1
 485 692 l 1,2,-1
 446 658 l 2,3,4
 395 618 395 618 385 618 c 128,-1,5
 375 618 375 618 325.5 654.5 c 128,-1,6
 276 691 276 691 271 707 c 1,7,8
 271 717 271 717 319 762.5 c 128,-1,9
 367 808 367 808 382 813 c 1,10,-1
 443 765 l 2,11,12
 490 721 490 721 497 708 c 1,0,-1
980 0 m 1,13,-1
 753 0 l 2,14,15
 683 0 683 0 644.5 15 c 128,-1,16
 606 30 606 30 583 64.5 c 128,-1,17
 560 99 560 99 560 140 c 2,18,-1
 560 161 l 2,19,20
 560 200.833 560 200.833 595 265 c 1,21,22
 529 250 529 250 483 230 c 2,23,-1
 458 219 l 1,24,-1
 427 201 l 1,25,-1
 402 184.5 l 2,26,27
 348.324 148.077 348.324 148.077 284 68 c 0,28,29
 202 -42 202 -42 202 -144.5 c 128,-1,30
 202 -247 202 -247 312 -315 c 0,31,32
 385.838 -361.988 385.838 -361.988 548 -397 c 2,33,-1
 591 -403 l 1,34,-1
 643 -407 l 1,35,-1
 763 -410 l 1,36,-1
 878 -410 l 2,37,38
 970 -410 970 -410 971 -420 c 0,39,40
 971 -449 971 -449 856 -503 c 0,41,42
 784 -533 784 -533 709 -550 c 2,43,-1
 672 -557 l 1,44,-1
 632 -562 l 1,45,-1
 579 -566 l 1,46,-1
 552 -567 l 2,47,48
 367 -567 367 -567 244 -482 c 128,-1,49
 121 -397 121 -397 121 -248 c 0,50,51
 121 -64 121 -64 206 96 c 0,52,53
 268 207 268 207 369 287 c 2,54,-1
 387 300 l 1,55,-1
 375 305 l 1,56,-1
 327 316 l 1,57,-1
 280 321 l 1,58,-1
 236 322 l 1,59,-1
 217 322 l 2,60,61
 180 322 180 322 147 305 c 2,62,-1
 93 272 l 1,63,64
 88 279 88 279 88 291 c 0,65,66
 88 332 88 332 149 426 c 0,67,68
 195 496 195 496 256 496 c 0,69,70
 279 496 279 496 335 488 c 2,71,-1
 482 461 l 1,72,-1
 567 448 l 1,73,-1
 643 444 l 1,74,-1
 852 444 l 1,75,-1
 802 343 l 1,76,-1
 782 296 l 1,77,-1
 757 296 l 1,78,-1
 723 294 l 1,79,-1
 688 288 l 1,80,-1
 643 278 l 1,81,-1
 639 246 l 2,82,83
 639 234 639 234 645 221 c 1,84,85
 664 195 664 195 704 185 c 2,86,-1
 740 180 l 1,87,-1
 980 180 l 1,88,-1
 980 0 l 1,13,-1
EndSplineSet
EndChar

StartChar: khahinitial
Encoding: 65191 65191 103
Width: 1146
GlyphClass: 2
Flags: MW
AnchorPoint: "ArabicBelow" 593 -138 basechar 0
AnchorPoint: "ArabicAbove" 432 936 basechar 0
LayerCount: 2
Fore
SplineSet
589 744 m 1,0,-1
 556 700 l 1,1,-1
 541 683 l 2,2,3
 490 627 490 627 475 621 c 1,4,5
 343.19 684.269 343.19 684.269 330 709 c 1,6,-1
 342 724 l 2,7,8
 352 737 352 737 391 777 c 128,-1,9
 430 817 430 817 445 824 c 1,10,-1
 513 783 l 2,11,12
 581 744 581 744 589 744 c 1,0,-1
0 180 m 1,13,-1
 359 180 l 1,14,-1
 392 181 l 1,15,-1
 411 181 l 1,16,-1
 425 185 l 1,17,-1
 443 185 l 1,18,-1
 499 200 l 1,19,-1
 533 213 l 1,20,-1
 578 237 l 1,21,-1
 482 285 l 2,22,23
 370.727 333 370.727 333 319.364 333 c 128,-1,24
 268 333 268 333 231 317 c 128,-1,25
 194 301 194 301 185 300 c 1,26,-1
 247 402 l 1,27,28
 337 504 337 504 391.5 504 c 0,29,30
 493.907 504 493.907 504 626 424 c 2,31,-1
 709 375 l 1,32,-1
 778 341 l 1,33,-1
 934 279 l 1,34,-1
 998 261 l 1,35,-1
 1058 248 l 1,36,-1
 947 96 l 1,37,-1
 794 109 l 1,38,-1
 652 115 l 2,39,40
 594 115 594 115 484 57.5 c 128,-1,41
 374 0 374 0 326 0 c 2,42,-1
 0 0 l 1,43,-1
 0 180 l 1,13,-1
EndSplineSet
EndChar

StartChar: khahmedial
Encoding: 65192 65192 104
Width: 1180
GlyphClass: 2
Flags: MW
AnchorPoint: "ArabicBelow" 614 -138 basechar 0
AnchorPoint: "ArabicAbove" 456 924 basechar 0
LayerCount: 2
Fore
SplineSet
581 741 m 1,0,-1
 535 683 l 2,1,2
 488 632 488 632 472 626 c 1,3,-1
 404 661 l 2,4,5
 343 697 343 697 335 708 c 1,6,7
 335 716 335 716 384 764.5 c 128,-1,8
 433 813 433 813 444 817 c 1,9,-1
 509 779 l 2,10,11
 562 748 562 748 581 741 c 1,0,-1
0 180 m 1,12,-1
 391 180 l 1,13,-1
 420 181 l 2,14,15
 432 181 432 181 440.5 183.5 c 128,-1,16
 449 186 449 186 465 189 c 128,-1,17
 481 192 481 192 545.5 217.5 c 128,-1,18
 610 243 610 243 611 254 c 1,19,-1
 479 300 l 2,20,21
 366 337 366 337 321 337 c 128,-1,22
 276 337 276 337 250 322 c 2,23,-1
 194 285 l 1,24,-1
 250 389 l 2,25,26
 323 495 323 495 404 503 c 2,27,-1
 435 504 l 2,28,29
 512 504 512 504 639 446 c 128,-1,30
 766 388 766 388 819 370 c 2,31,-1
 888 353 l 1,32,-1
 959 339 l 2,33,34
 1038 326 1038 326 1093 326 c 1,35,-1
 1070 259 l 1,36,-1
 1055 211 l 2,37,38
 1052 197 1052 197 1044 180 c 1,39,-1
 1180 180 l 1,40,-1
 1180 0 l 1,41,-1
 941 0 l 1,42,-1
 920 135 l 1,43,-1
 882 135 l 1,44,-1
 842 139 l 1,45,-1
 773 140 l 1,46,-1
 705 140 l 2,47,48
 645.711 140 645.711 140 528 69 c 0,49,50
 404.276 -7.62939e-06 404.276 -7.62939e-06 355 0 c 2,51,-1
 0 0 l 1,52,-1
 0 180 l 1,12,-1
EndSplineSet
EndChar

StartChar: dalisolated
Encoding: 65193 65193 105
Width: 654
GlyphClass: 2
Flags: MW
AnchorPoint: "ArabicBelow" 307 -191 basechar 0
AnchorPoint: "ArabicAbove" 348 780 basechar 0
LayerCount: 2
Fore
SplineSet
507 -2 m 2,0,-1
 88 -2 l 1,1,-1
 100 136 l 2,2,3
 100 152 100 152 102 157 c 1,4,-1
 107 180 l 1,5,-1
 471 180 l 1,6,-1
 471 192 l 2,7,8
 471 236 471 236 436.5 290.5 c 128,-1,9
 402 345 402 345 356 374 c 2,10,-1
 310 402 l 1,11,-1
 265 424 l 1,12,-1
 293 546 l 2,13,14
 303 598 303 598 309 613 c 1,15,16
 325 608 325 608 344 595 c 2,17,-1
 364 583 l 1,18,-1
 386 567 l 2,19,20
 468.22 504.916 468.22 504.916 516 417 c 2,21,-1
 533 378 l 1,22,-1
 549 335 l 1,23,-1
 556 309 l 1,24,-1
 567 259 l 1,25,-1
 567 217 l 2,26,27
 567 123 567 123 558 76 c 0,28,29
 546 -2 546 -2 507 -2 c 2,0,-1
EndSplineSet
EndChar

StartChar: dalfinal
Encoding: 65194 65194 106
Width: 791
GlyphClass: 2
Flags: MW
AnchorPoint: "ArabicBelow" 371 -212 basechar 0
AnchorPoint: "ArabicAbove" 480 840 basechar 0
LayerCount: 2
Fore
SplineSet
587 180 m 1,0,-1
 590 204 l 2,1,2
 590 250 590 250 572 307 c 2,3,-1
 520 487 l 1,4,-1
 606 664 l 1,5,-1
 685 360 l 1,6,-1
 711 250 l 2,7,8
 729 180 729 180 755 180 c 2,9,-1
 792 180 l 1,10,-1
 792 0 l 1,11,-1
 668 0 l 2,12,13
 667.154 -0.230769 667.154 -0.230769 666.29 -0.230769 c 0,14,15
 655.923 -0.230769 655.923 -0.230769 643 33 c 2,16,-1
 628 83 l 1,17,18
 628 90 628 90 621 99 c 1,19,-1
 609 126 l 1,20,21
 584.084 117.203 584.084 117.203 559.101 58.5251 c 128,-1,22
 534.119 -0.152542 534.119 -0.152542 515.039 -0.152542 c 0,23,24
 514.017 -0.152542 514.017 -0.152542 513 0 c 2,25,-1
 125 0 l 2,26,27
 112 0 112 0 98 11 c 1,28,29
 91 21 91 21 88 39 c 1,30,-1
 98 133 l 2,31,32
 112 226 112 226 125 264 c 2,33,-1
 129 284 l 1,34,-1
 137 304 l 2,35,36
 150 344 150 344 161 344 c 1,37,38
 164.752 336.252 164.752 336.252 166 326 c 1,39,-1
 165 305 l 1,40,-1
 165 294 l 1,41,-1
 163 283 l 1,42,-1
 163 267 l 2,43,44
 163 256 163 256 162.5 237.5 c 128,-1,45
 162 219 162 219 172.5 199.5 c 128,-1,46
 183 180 183 180 211 180 c 2,47,-1
 587 180 l 1,0,-1
EndSplineSet
EndChar

StartChar: thalisolated
Encoding: 65195 65195 107
Width: 654
GlyphClass: 2
Flags: MW
AnchorPoint: "ArabicBelow" 318 -180 basechar 0
AnchorPoint: "ArabicAbove" 240 1008 basechar 0
LayerCount: 2
Fore
SplineSet
299 796 m 1,0,1
 299 791 299 791 265 750 c 2,2,-1
 208 698 l 1,3,-1
 154 732 l 2,4,5
 107 761 107 761 99 776 c 1,6,-1
 116 805 l 1,7,-1
 132 828 l 2,8,9
 168 879 168 879 190 879 c 0,10,11
 198 879 198 879 247 845.5 c 128,-1,12
 296 812 296 812 299 796 c 1,0,1
507 -2 m 2,13,-1
 88 -2 l 1,14,-1
 100 136 l 2,15,16
 100 152 100 152 102 157 c 1,17,-1
 107 180 l 1,18,-1
 471 180 l 1,19,-1
 471 192 l 2,20,21
 471 236 471 236 436.5 290.5 c 128,-1,22
 402 345 402 345 356 374 c 2,23,-1
 310 402 l 1,24,-1
 265 424 l 1,25,-1
 293 546 l 2,26,27
 303 598 303 598 309 613 c 1,28,29
 325 608 325 608 344 595 c 2,30,-1
 364 583 l 1,31,-1
 386 567 l 2,32,33
 468.22 504.916 468.22 504.916 516 417 c 2,34,-1
 533 378 l 1,35,-1
 549 335 l 1,36,-1
 556 309 l 1,37,-1
 567 259 l 1,38,-1
 567 217 l 2,39,40
 567 123 567 123 558 76 c 0,41,42
 546 -2 546 -2 507 -2 c 2,13,-1
EndSplineSet
EndChar

StartChar: thalfinal
Encoding: 65196 65196 108
Width: 791
GlyphClass: 2
Flags: MW
AnchorPoint: "ArabicBelow" 392 -201 basechar 0
AnchorPoint: "ArabicAbove" 420 1044 basechar 0
LayerCount: 2
Fore
SplineSet
420 748 m 1,0,1
 420 741 420 741 372 700 c 0,2,3
 323 665 323 665 314.5 665 c 128,-1,4
 306 665 306 665 263 699 c 128,-1,5
 220 733 220 733 212 744 c 1,6,7
 212 753 212 753 258 796 c 0,8,9
 302 841 302 841 313 841 c 1,10,-1
 404 765 l 1,11,-1
 420 748 l 1,0,1
587 180 m 1,12,-1
 590 204 l 2,13,14
 590 250 590 250 572 307 c 2,15,-1
 520 487 l 1,16,-1
 606 664 l 1,17,-1
 685 360 l 1,18,-1
 711 250 l 2,19,20
 729 180 729 180 755 180 c 2,21,-1
 792 180 l 1,22,-1
 792 0 l 1,23,-1
 668 0 l 2,24,25
 667.154 -0.230769 667.154 -0.230769 666.29 -0.230769 c 0,26,27
 655.923 -0.230769 655.923 -0.230769 643 33 c 2,28,-1
 628 83 l 1,29,30
 628 90 628 90 621 99 c 1,31,-1
 609 126 l 1,32,33
 584.084 117.203 584.084 117.203 559.101 58.5251 c 128,-1,34
 534.119 -0.152542 534.119 -0.152542 515.039 -0.152542 c 0,35,36
 514.017 -0.152542 514.017 -0.152542 513 0 c 2,37,-1
 125 0 l 2,38,39
 112 0 112 0 98 11 c 1,40,41
 91 21 91 21 88 39 c 1,42,-1
 98 133 l 2,43,44
 112 226 112 226 125 264 c 2,45,-1
 129 284 l 1,46,-1
 137 304 l 2,47,48
 150 344 150 344 161 344 c 1,49,50
 164.752 336.252 164.752 336.252 166 326 c 1,51,-1
 165 305 l 1,52,-1
 165 294 l 1,53,-1
 163 283 l 1,54,-1
 163 267 l 2,55,56
 163 256 163 256 162.5 237.5 c 128,-1,57
 162 219 162 219 172.5 199.5 c 128,-1,58
 183 180 183 180 211 180 c 2,59,-1
 587 180 l 1,12,-1
EndSplineSet
EndChar

StartChar: rehisolated
Encoding: 65197 65197 109
Width: 792
GlyphClass: 2
Flags: MW
AnchorPoint: "ArabicBelow" 434 -519 basechar 0
AnchorPoint: "ArabicAbove" 502 648 basechar 0
LayerCount: 2
Fore
SplineSet
705 118 m 0,0,1
 705 76 705 76 685 -15 c 128,-1,2
 665 -106 665 -106 600 -213 c 0,3,4
 506 -367 506 -367 394 -367 c 0,5,6
 337 -367 337 -367 175.5 -304.5 c 128,-1,7
 14 -242 14 -242 14 -215 c 0,8,9
 14 -202 14 -202 29 -202 c 1,10,-1
 87 -219 l 1,11,-1
 118 -227 l 1,12,-1
 142 -236 l 2,13,14
 207 -254 207 -254 243.5 -254 c 0,15,16
 324.239 -254 324.239 -254 472 -122 c 0,17,18
 622 6 622 6 622 89 c 0,19,20
 622 120 622 120 564 179.5 c 128,-1,21
 506 239 506 239 449 282 c 1,22,-1
 511 463 l 1,23,24
 575 429 575 429 628 354 c 0,25,26
 705 246 705 246 705 118 c 0,0,1
EndSplineSet
EndChar

StartChar: rehfinal
Encoding: 65198 65198 110
Width: 847
GlyphClass: 2
Flags: MW
AnchorPoint: "ArabicBelow" 394 -529 basechar 0
AnchorPoint: "ArabicAbove" 518 576 basechar 0
LayerCount: 2
Fore
SplineSet
740 0 m 6,0,1
 719 0 719 0 687 40 c 5,2,3
 674 -72 674 -72 570 -218.5 c 132,-1,4
 466 -365 466 -365 360 -365 c 4,5,6
 306 -365 306 -365 156 -298.5 c 132,-1,7
 6 -232 6 -232 6 -205 c 4,8,9
 6 -197 6 -197 17 -193 c 5,10,-1
 112 -229 l 5,11,-1
 153 -242 l 5,12,-1
 187 -246 l 6,13,14
 238 -246 238 -246 278 -228 c 132,-1,15
 318 -210 318 -210 410 -145 c 6,16,-1
 471 -93 l 6,17,18
 505 -64 505 -64 525 -41 c 4,19,20
 595 33 595 33 595 76 c 4,21,22
 595 97 595 97 553 155.5 c 132,-1,23
 511 214 511 214 480 250 c 5,24,-1
 575 410 l 5,25,-1
 626 330 l 5,26,-1
 669 270 l 6,27,28
 732 180 732 180 800 180 c 6,29,-1
 848 180 l 5,30,-1
 848 0 l 5,31,-1
 826 0 l 5,32,-1
 761 -2 l 5,33,-1
 750 -2 l 6,34,35
 742 -2 742 -2 740 0 c 6,0,1
EndSplineSet
EndChar

StartChar: zainisolated
Encoding: 65199 65199 111
Width: 791
GlyphClass: 2
Flags: MW
AnchorPoint: "ArabicBelow" 476 -508 basechar 0
AnchorPoint: "ArabicAbove" 393 960 basechar 0
LayerCount: 2
Fore
SplineSet
545 708 m 5,0,1
 545 695 545 695 513 656 c 132,-1,2
 481 617 481 617 453 595 c 5,3,-1
 400 635 l 5,4,-1
 365 665 l 5,5,-1
 345 687 l 5,6,7
 360 716 360 716 378 739 c 4,8,9
 408 783 408 783 434 791 c 5,10,11
 443 791 443 791 492.5 756.5 c 132,-1,12
 542 722 542 722 545 708 c 5,0,1
704 118 m 4,13,14
 704 76 704 76 684 -15 c 132,-1,15
 664 -106 664 -106 599 -213 c 4,16,17
 505 -367 505 -367 393 -367 c 4,18,19
 336 -367 336 -367 174.5 -304.5 c 132,-1,20
 13 -242 13 -242 13 -215 c 4,21,22
 13 -202 13 -202 28 -202 c 5,23,-1
 86 -219 l 5,24,-1
 117 -227 l 5,25,-1
 141 -236 l 6,26,27
 206 -254 206 -254 242.5 -254 c 4,28,29
 323.239 -254 323.239 -254 471 -122 c 4,30,31
 621 6 621 6 621 89 c 4,32,33
 621 120 621 120 563 179.5 c 132,-1,34
 505 239 505 239 448 282 c 5,35,-1
 510 463 l 5,36,37
 574 429 574 429 627 354 c 4,38,39
 704 246 704 246 704 118 c 4,13,14
EndSplineSet
EndChar

StartChar: zainfinal
Encoding: 65200 65200 112
Width: 853
GlyphClass: 2
Flags: MW
AnchorPoint: "ArabicBelow" 453 -487 basechar 0
AnchorPoint: "ArabicAbove" 524 996 basechar 0
LayerCount: 2
Fore
SplineSet
662 723 m 5,0,-1
 599 667 l 6,1,2
 539 623 539 623 527 620 c 5,3,-1
 403 720 l 5,4,-1
 527 839 l 5,5,-1
 662 723 l 5,0,-1
746 0 m 6,6,7
 725 0 725 0 693 40 c 5,8,9
 680 -72 680 -72 576 -218.5 c 132,-1,10
 472 -365 472 -365 366 -365 c 4,11,12
 312 -365 312 -365 162 -298.5 c 132,-1,13
 12 -232 12 -232 12 -205 c 4,14,15
 12 -197 12 -197 23 -193 c 5,16,-1
 118 -229 l 5,17,-1
 159 -242 l 5,18,-1
 193 -246 l 6,19,20
 244 -246 244 -246 284 -228 c 132,-1,21
 324 -210 324 -210 416 -145 c 6,22,-1
 477 -93 l 6,23,24
 511 -64 511 -64 531 -41 c 4,25,26
 601 33 601 33 601 76 c 4,27,28
 601 97 601 97 559 155.5 c 132,-1,29
 517 214 517 214 486 250 c 5,30,-1
 581 410 l 5,31,-1
 632 330 l 5,32,-1
 675 270 l 6,33,34
 738 180 738 180 806 180 c 6,35,-1
 854 180 l 5,36,-1
 854 0 l 5,37,-1
 830 0 l 5,38,-1
 767 -2 l 5,39,-1
 756 -2 l 6,40,41
 748 -2 748 -2 746 0 c 6,6,7
EndSplineSet
EndChar

StartChar: seenisolated
Encoding: 65201 65201 113
Width: 1575
GlyphClass: 2
Flags: MW
AnchorPoint: "ArabicBelow" 1104 -252 basechar 0
AnchorPoint: "ArabicAbove" 1104 612 basechar 0
LayerCount: 2
Fore
SplineSet
1228 201 m 1,0,1
 1229.11 190.324 1229.11 190.324 1232 180 c 1,2,-1
 1402 180 l 1,3,-1
 1389 226 l 2,4,5
 1375 275 1375 275 1375 291 c 1,6,-1
 1399 329 l 2,7,8
 1447 397 1447 397 1488 439 c 1,9,-1
 1488 237 l 2,10,11
 1488 179 1488 179 1479 142 c 2,12,-1
 1470 118 l 1,13,-1
 1449 71 l 2,14,15
 1426 17 1426 17 1423 -2 c 1,16,-1
 1179 0 l 1,17,-1
 1177 9 l 1,18,-1
 1168 25 l 2,19,20
 1156 43 1156 43 1151 44 c 1,21,-1
 1145 39 l 1,22,-1
 1121 11 l 1,23,-1
 1110 0 l 1,24,-1
 865 0 l 1,25,-1
 865 -11 l 2,26,27
 865 -34 865 -34 827.5 -121.5 c 128,-1,28
 790 -209 790 -209 756 -236 c 0,29,30
 706 -284 706 -284 591 -330 c 128,-1,31
 476 -376 476 -376 414 -376 c 2,32,-1
 345 -374 l 1,33,-1
 323 -373 l 1,34,-1
 284 -365 l 2,35,36
 223 -354 223 -354 186 -329 c 0,37,38
 88 -272 88 -272 88 -145 c 2,39,-1
 88 -105 l 1,40,-1
 94 -46 l 1,41,-1
 103 -10 l 2,42,43
 116 51 116 51 153 139 c 0,44,45
 211 285 211 285 250 285 c 0,46,47
 258 285 258 285 258 275.5 c 128,-1,48
 258 266 258 266 218.5 167.5 c 128,-1,49
 179 69 179 69 179 9 c 0,50,51
 179 -86 179 -86 245 -143 c 0,52,53
 315.087 -195 315.087 -195 446 -195 c 0,54,55
 502 -195 502 -195 630 -149.5 c 128,-1,56
 758 -104 758 -104 782 -63 c 1,57,58
 782 -22 782 -22 764.5 41.5 c 0,59,60
 732.455 157.779 732.455 157.779 677 237 c 1,61,-1
 687 261 l 1,62,-1
 778 404 l 1,63,-1
 845 252 l 2,64,65
 874 186 874 186 927 180 c 2,66,-1
 966 177 l 1,67,-1
 1017 178 l 1,68,-1
 1075 178 l 1,69,-1
 1112 179 l 2,70,71
 1135 179 1135 179 1149 183 c 1,72,-1
 1150 209 l 1,73,-1
 1150 227 l 1,74,-1
 1154 249 l 2,75,76
 1157.39 265.945 1157.39 265.945 1166 278 c 2,77,-1
 1212 338 l 2,78,79
 1251 388 1251 388 1278 411 c 1,80,-1
 1239 264 l 1,81,-1
 1231 229 l 1,82,-1
 1228 201 l 1,0,1
EndSplineSet
EndChar

StartChar: seenfinal
Encoding: 65202 65202 114
Width: 1568
GlyphClass: 2
Flags: MW
AnchorPoint: "ArabicBelow" 1128 -228 basechar 0
AnchorPoint: "ArabicAbove" 1164 552 basechar 0
LayerCount: 2
Fore
SplineSet
1240 289 m 1,0,1
 1218.82 201.629 1218.82 201.629 1227 180 c 1,2,-1
 1401 180 l 1,3,-1
 1401 193 l 1,4,-1
 1398 226 l 2,5,6
 1393 274 1393 274 1376 300 c 1,7,-1
 1435 383 l 1,8,-1
 1470 426 l 1,9,-1
 1486 444 l 1,10,-1
 1486 291 l 1,11,-1
 1487 251 l 1,12,-1
 1494 222 l 2,13,14
 1499 204 1499 204 1509 200 c 1,15,-1
 1522 187 l 1,16,-1
 1538 180 l 1,17,-1
 1569 180 l 1,18,-1
 1569 0 l 1,19,-1
 1485 0 l 1,20,-1
 1442 56 l 1,21,-1
 1427 24 l 1,22,-1
 1422 -2 l 1,23,-1
 1174 0 l 1,24,-1
 1160 22 l 2,25,26
 1150 43 1150 43 1143 44 c 1,27,-1
 1127 28 l 1,28,-1
 1112 11 l 1,29,-1
 1101 0 l 1,30,-1
 838 0 l 1,31,-1
 838 -11 l 2,32,33
 838 -28 838 -28 818 -78 c 0,34,35
 779 -182 779 -182 733 -228 c 0,36,37
 686 -267 686 -267 570 -312 c 128,-1,38
 454 -357 454 -357 403 -357 c 0,39,40
 255 -357 255 -357 184 -320 c 0,41,42
 88 -271 88 -271 88 -155.5 c 128,-1,43
 88 -40 88 -40 148.5 117 c 128,-1,44
 209 274 209 274 246 274 c 1,45,-1
 253 264 l 1,46,-1
 201 121 l 1,47,-1
 183 59 l 1,48,-1
 177 11 l 2,49,50
 177 -78 177 -78 244.5 -129.5 c 128,-1,51
 312 -181 312 -181 435 -181 c 2,52,-1
 451 -181 l 1,53,-1
 470 -179 l 1,54,-1
 506 -172 l 1,55,-1
 555 -160 l 2,56,57
 581.654 -155.154 581.654 -155.154 609 -143 c 0,58,59
 736 -102 736 -102 758 -62 c 1,60,61
 758 -26.7143 758 -26.7143 731.5 56.6429 c 128,-1,62
 705 140 705 140 655 224 c 1,63,-1
 665 249 l 1,64,-1
 673 264 l 1,65,-1
 717 338 l 1,66,-1
 733 367 l 1,67,-1
 753 398 l 1,68,-1
 820 265 l 2,69,70
 853 202 853 202 889 186 c 1,71,-1
 948 185 l 1,72,-1
 1014 185 l 1,73,-1
 1143 180 l 1,74,-1
 1143 207 l 1,75,-1
 1144 224 l 2,76,77
 1144 240 1144 240 1149 253 c 2,78,79
 1151 272 1151 272 1161.5 287.5 c 128,-1,80
 1172 303 1172 303 1208 344 c 0,81,82
 1223 365 1223 365 1244 385 c 2,83,-1
 1274 416 l 1,84,-1
 1254 339 l 1,85,-1
 1248 313 l 2,86,87
 1245 300 1245 300 1240 289 c 1,0,1
EndSplineSet
EndChar

StartChar: seeninitial
Encoding: 65203 65203 115
Width: 1095
GlyphClass: 2
Flags: MW
AnchorPoint: "ArabicBelow" 600 -192 basechar 0
AnchorPoint: "ArabicAbove" 720 600 basechar 0
LayerCount: 2
Fore
SplineSet
0 180 m 1,0,-1
 256 180 l 2,1,2
 284 180 284 180 302 222 c 1,3,4
 307 242 307 242 307 278 c 1,5,6
 312 294 312 294 358 339 c 0,7,8
 392 379 392 379 441 428 c 1,9,10
 441 394 441 394 415 305 c 2,11,-1
 403 271 l 2,12,13
 398 254 398 254 389 241 c 1,14,-1
 378 205 l 1,15,16
 378 194 378 194 421 180 c 1,17,-1
 467 174 l 1,18,-1
 523 171 l 1,19,-1
 546 171 l 1,20,-1
 602 174 l 1,21,-1
 651 183 l 1,22,-1
 652 211 l 2,23,24
 652 260 652 260 670 287 c 1,25,26
 673 294 673 294 723 350 c 2,27,-1
 797 422 l 1,28,-1
 767 313 l 1,29,-1
 756 263 l 2,30,31
 748 226 748 226 748 209 c 128,-1,32
 748 192 748 192 751 185 c 1,33,-1
 906 180 l 1,34,-1
 898 207 l 1,35,-1
 895 228 l 1,36,-1
 887 267 l 1,37,-1
 882 295 l 1,38,39
 882 302 882 302 916.5 346 c 128,-1,40
 951 390 951 390 971 412 c 2,41,-1
 1008 450 l 1,42,-1
 1008 239 l 2,43,44
 1008 180 1008 180 999 137 c 2,45,-1
 991 111 l 1,46,-1
 969 68 l 1,47,-1
 952 30 l 1,48,-1
 941 -2 l 1,49,-1
 700 0 l 1,50,-1
 693 10 l 1,51,52
 685.765 31.9497 685.765 31.9497 670 46 c 1,53,-1
 665 43 l 1,54,-1
 635 7 l 1,55,-1
 564 -3 l 1,56,-1
 519 -6 l 1,57,-1
 477 -7 l 1,58,-1
 455 -7 l 2,59,60
 336 -7 336 -7 313 16 c 1,61,-1
 289 63 l 1,62,63
 271.634 37.0974 271.634 37.0974 241 15 c 2,64,-1
 222 5 l 1,65,-1
 201 0 l 1,66,-1
 0 0 l 1,67,-1
 0 180 l 1,0,-1
EndSplineSet
EndChar

StartChar: seenmedial
Encoding: 65204 65204 116
Width: 1059
GlyphClass: 2
Flags: MW
AnchorPoint: "ArabicBelow" 624 -216 basechar 0
AnchorPoint: "ArabicAbove" 684 576 basechar 0
LayerCount: 2
Fore
SplineSet
0 180 m 1,0,-1
 227 180 l 2,1,2
 261 180 261 180 274 230 c 2,3,-1
 278 264 l 1,4,-1
 279 292 l 1,5,-1
 398 443 l 1,6,7
 398 391 398 391 372 305 c 2,8,-1
 361 274 l 1,9,-1
 345 235 l 1,10,-1
 333 208 l 1,11,12
 338 195 338 195 392 185 c 2,13,-1
 446 180 l 1,14,-1
 509 178 l 1,15,-1
 616 178 l 1,16,-1
 628 179 l 1,17,-1
 642 179 l 1,18,19
 650 182 650 182 652 183 c 1,20,-1
 653 211 l 2,21,22
 653 260 653 260 671 287 c 2,23,-1
 716 348 l 1,24,-1
 753 392 l 1,25,-1
 783 422 l 1,26,-1
 753 313 l 1,27,-1
 740 249 l 2,28,29
 735 220 735 220 735 204 c 2,30,-1
 737 185 l 1,31,-1
 907 180 l 1,32,-1
 899 207 l 1,33,-1
 896 228 l 1,34,-1
 888 267 l 1,35,-1
 883 295 l 1,36,-1
 923 363 l 1,37,-1
 961 413 l 1,38,-1
 994 450 l 1,39,-1
 994 239 l 1,40,-1
 991 180 l 1,41,-1
 1059 180 l 1,42,-1
 1059 0 l 1,43,-1
 966 0 l 1,44,-1
 951 56 l 1,45,-1
 928 0 l 1,46,-1
 686 0 l 1,47,-1
 679 10 l 1,48,49
 672.097 31.5107 672.097 31.5107 657 46 c 1,50,-1
 613 0 l 1,51,-1
 303 0 l 2,52,53
 287 0 287 0 271 31 c 1,54,-1
 261 63 l 1,55,-1
 233 34 l 1,56,-1
 211 16 l 2,57,58
 191 3 191 3 172 0 c 1,59,-1
 0 0 l 1,60,-1
 0 180 l 1,0,-1
EndSplineSet
EndChar

StartChar: sheenisolated
Encoding: 65205 65205 117
Width: 1575
GlyphClass: 2
Flags: MW
AnchorPoint: "ArabicBelow" 1152 -204 basechar 0
AnchorPoint: "ArabicAbove" 1104 1044 basechar 0
LayerCount: 2
Fore
SplineSet
1223 806 m 1,0,-1
 1127 724 l 1,1,-1
 1029 804 l 1,2,-1
 1123 894 l 1,3,-1
 1223 806 l 1,0,-1
1377 650 m 1,4,-1
 1317 580 l 1,5,-1
 1280 543 l 1,6,-1
 1127 626 l 1,7,-1
 1067 572 l 1,8,-1
 1039 550 l 1,9,-1
 1023 554 l 1,10,-1
 1007 560 l 1,11,-1
 989 568 l 1,12,-1
 926 603 l 2,13,14
 904 613 904 613 897 622 c 1,15,-1
 954 682 l 1,16,-1
 999 723 l 1,17,-1
 1042 694 l 1,18,-1
 1076 674 l 2,19,20
 1125 651 1125 651 1140 650 c 1,21,22
 1146 651 1146 651 1187 686 c 2,23,-1
 1236 730 l 1,24,-1
 1377 650 l 1,4,-1
1228 201 m 1,25,26
 1229.11 190.324 1229.11 190.324 1232 180 c 1,27,-1
 1402 180 l 1,28,-1
 1389 226 l 2,29,30
 1375 275 1375 275 1375 291 c 1,31,-1
 1399 329 l 2,32,33
 1447 397 1447 397 1488 439 c 1,34,-1
 1488 237 l 2,35,36
 1488 179 1488 179 1479 142 c 2,37,-1
 1470 118 l 1,38,-1
 1432 30 l 1,39,-1
 1421 0 l 1,40,-1
 1179 0 l 1,41,-1
 1177 9 l 1,42,-1
 1168 25 l 2,43,44
 1156 43 1156 43 1151 44 c 1,45,-1
 1145 39 l 1,46,-1
 1121 11 l 1,47,-1
 1110 0 l 1,48,-1
 865 0 l 1,49,-1
 865 -11 l 2,50,51
 865 -34 865 -34 827.5 -121.5 c 128,-1,52
 790 -209 790 -209 756 -236 c 0,53,54
 706 -284 706 -284 591 -330 c 128,-1,55
 476 -376 476 -376 414 -376 c 2,56,-1
 345 -374 l 1,57,-1
 323 -373 l 1,58,-1
 284 -365 l 2,59,60
 223 -354 223 -354 186 -329 c 0,61,62
 88 -272 88 -272 88 -145 c 2,63,-1
 88 -105 l 1,64,-1
 94 -46 l 1,65,-1
 103 -10 l 2,66,67
 116 51 116 51 153 139 c 0,68,69
 211 285 211 285 250 285 c 0,70,71
 258 285 258 285 258 275.5 c 128,-1,72
 258 266 258 266 218.5 167.5 c 128,-1,73
 179 69 179 69 179 9 c 0,74,75
 179 -86 179 -86 245 -143 c 0,76,77
 315.087 -195 315.087 -195 446 -195 c 0,78,79
 502 -195 502 -195 630 -149.5 c 128,-1,80
 758 -104 758 -104 782 -63 c 1,81,82
 782 -22 782 -22 764.5 41.5 c 0,83,84
 732.455 157.779 732.455 157.779 677 237 c 1,85,-1
 687 261 l 1,86,-1
 778 404 l 1,87,-1
 845 252 l 2,88,89
 874 186 874 186 927 180 c 2,90,-1
 966 177 l 1,91,-1
 1017 178 l 1,92,-1
 1075 178 l 1,93,-1
 1112 179 l 2,94,95
 1135 179 1135 179 1149 183 c 1,96,-1
 1150 209 l 1,97,-1
 1150 227 l 1,98,-1
 1154 249 l 2,99,100
 1157.39 265.945 1157.39 265.945 1166 278 c 2,101,-1
 1212 338 l 2,102,103
 1251 388 1251 388 1278 411 c 1,104,-1
 1239 264 l 1,105,-1
 1231 229 l 1,106,-1
 1228 201 l 1,25,26
EndSplineSet
EndChar

StartChar: sheenfinal
Encoding: 65206 65206 118
Width: 1568
GlyphClass: 2
Flags: MW
AnchorPoint: "ArabicBelow" 1128 -240 basechar 0
AnchorPoint: "ArabicAbove" 1128 1044 basechar 0
LayerCount: 2
Fore
SplineSet
1238 806 m 1,0,-1
 1143 724 l 1,1,-1
 1046 804 l 1,2,-1
 1140 894 l 1,3,-1
 1238 806 l 1,0,-1
1395 650 m 1,4,-1
 1298 543 l 1,5,-1
 1143 626 l 1,6,-1
 1057 550 l 1,7,-1
 1027 558 l 1,8,-1
 1007 567 l 2,9,10
 961.067 588.2 961.067 588.2 916 622 c 1,11,-1
 972 682 l 1,12,-1
 1018 723 l 1,13,-1
 1045 703 l 1,14,-1
 1090 676 l 2,15,16
 1139 650 1139 650 1156 650 c 1,17,18
 1162 651 1162 651 1218 700 c 2,19,-1
 1253 730 l 1,20,-1
 1395 650 l 1,4,-1
1240 289 m 1,21,22
 1218.82 201.629 1218.82 201.629 1227 180 c 1,23,-1
 1401 180 l 1,24,-1
 1401 193 l 1,25,-1
 1398 226 l 2,26,27
 1393 274 1393 274 1376 300 c 1,28,-1
 1435 383 l 1,29,-1
 1470 426 l 1,30,-1
 1486 444 l 1,31,-1
 1486 291 l 1,32,-1
 1487 251 l 1,33,-1
 1494 222 l 2,34,35
 1499 204 1499 204 1509 200 c 1,36,-1
 1522 187 l 1,37,-1
 1538 180 l 1,38,-1
 1569 180 l 1,39,-1
 1569 0 l 1,40,-1
 1485 0 l 1,41,-1
 1442 56 l 1,42,-1
 1427 24 l 1,43,-1
 1423 0 l 1,44,-1
 1174 0 l 1,45,-1
 1160 22 l 2,46,47
 1150 43 1150 43 1143 44 c 1,48,-1
 1127 28 l 1,49,-1
 1112 11 l 1,50,-1
 1101 0 l 1,51,-1
 838 0 l 1,52,-1
 838 -11 l 2,53,54
 838 -28 838 -28 818 -78 c 0,55,56
 779 -182 779 -182 733 -228 c 0,57,58
 686 -267 686 -267 570 -312 c 128,-1,59
 454 -357 454 -357 403 -357 c 0,60,61
 255 -357 255 -357 184 -320 c 0,62,63
 88 -271 88 -271 88 -155.5 c 128,-1,64
 88 -40 88 -40 148.5 117 c 128,-1,65
 209 274 209 274 246 274 c 1,66,-1
 253 264 l 1,67,-1
 201 121 l 1,68,-1
 183 59 l 1,69,-1
 177 11 l 2,70,71
 177 -78 177 -78 244.5 -129.5 c 128,-1,72
 312 -181 312 -181 435 -181 c 2,73,-1
 451 -181 l 1,74,-1
 470 -179 l 1,75,-1
 506 -172 l 1,76,-1
 555 -160 l 2,77,78
 581.654 -155.154 581.654 -155.154 609 -143 c 0,79,80
 736 -102 736 -102 758 -62 c 1,81,82
 758 -26.7143 758 -26.7143 731.5 56.6429 c 128,-1,83
 705 140 705 140 655 224 c 1,84,-1
 665 249 l 1,85,-1
 673 264 l 1,86,-1
 717 338 l 1,87,-1
 733 367 l 1,88,-1
 753 398 l 1,89,-1
 820 265 l 2,90,91
 853 202 853 202 889 186 c 1,92,-1
 948 185 l 1,93,-1
 1014 185 l 1,94,-1
 1143 180 l 1,95,-1
 1143 207 l 1,96,-1
 1144 224 l 2,97,98
 1144 240 1144 240 1149 253 c 2,99,100
 1151 272 1151 272 1161.5 287.5 c 128,-1,101
 1172 303 1172 303 1208 344 c 0,102,103
 1223 365 1223 365 1244 385 c 2,104,-1
 1274 416 l 1,105,-1
 1254 339 l 1,106,-1
 1248 313 l 2,107,108
 1245 300 1245 300 1240 289 c 1,21,22
EndSplineSet
EndChar

StartChar: sheeninitial
Encoding: 65207 65207 119
Width: 1096
GlyphClass: 2
Flags: MW
AnchorPoint: "ArabicBelow" 660 -132 basechar 0
AnchorPoint: "ArabicAbove" 636 984 basechar 0
LayerCount: 2
Fore
SplineSet
772 751 m 1,0,-1
 670 665 l 1,1,-1
 555 746 l 1,2,-1
 661 833 l 1,3,-1
 772 751 l 1,0,-1
910 608 m 1,4,-1
 857 534 l 1,5,-1
 826 497 l 1,6,7
 822 497 822 497 774 524 c 2,8,-1
 683 585 l 1,9,10
 665.434 573.102 665.434 573.102 649 552 c 2,11,-1
 603 494 l 1,12,-1
 566 511 l 1,13,-1
 518 537 l 2,14,15
 462 569 462 569 451 580 c 1,16,-1
 518 657 l 1,17,-1
 544 683 l 1,18,-1
 621 635 l 2,19,20
 665 608 665 608 679 608 c 256,21,22
 693 608 693 608 726 642 c 0,23,24
 759 680 759 680 773 691 c 1,25,-1
 910 608 l 1,4,-1
0 180 m 1,26,-1
 257 180 l 2,27,28
 285 180 285 180 303 222 c 1,29,30
 308 242 308 242 308 278 c 1,31,32
 313 294 313 294 359 339 c 0,33,34
 393 379 393 379 442 428 c 1,35,36
 442 394 442 394 416 305 c 2,37,-1
 404 271 l 2,38,39
 399 254 399 254 390 241 c 1,40,-1
 379 205 l 1,41,42
 379 194 379 194 422 180 c 1,43,-1
 468 174 l 1,44,-1
 524 171 l 1,45,-1
 547 171 l 1,46,-1
 603 174 l 1,47,-1
 652 183 l 1,48,-1
 653 211 l 2,49,50
 653 260 653 260 671 287 c 1,51,52
 674 294 674 294 724 350 c 2,53,-1
 798 422 l 1,54,-1
 768 313 l 1,55,-1
 757 263 l 2,56,57
 749 226 749 226 749 209 c 128,-1,58
 749 192 749 192 752 185 c 1,59,-1
 907 180 l 1,60,-1
 899 207 l 1,61,-1
 896 228 l 1,62,-1
 888 267 l 1,63,-1
 883 295 l 1,64,65
 883 302 883 302 917.5 346 c 128,-1,66
 952 390 952 390 972 412 c 2,67,-1
 1009 450 l 1,68,-1
 1009 239 l 2,69,70
 1009 180 1009 180 1000 137 c 2,71,-1
 991 111 l 1,72,-1
 953 30 l 1,73,-1
 942 -2 l 1,74,-1
 700 0 l 1,75,-1
 693 10 l 1,76,77
 686.864 32.5476 686.864 32.5476 671 46 c 1,78,-1
 666 43 l 1,79,-1
 657 34 l 1,80,-1
 635 7 l 1,81,-1
 565 -3 l 1,82,-1
 520 -6 l 1,83,-1
 478 -7 l 1,84,-1
 456 -7 l 2,85,86
 337 -7 337 -7 314 16 c 1,87,-1
 294 53 l 1,88,-1
 290 63 l 1,89,90
 272.634 37.0974 272.634 37.0974 242 15 c 2,91,-1
 223 5 l 1,92,-1
 202 0 l 1,93,-1
 0 0 l 1,94,-1
 0 180 l 1,26,-1
EndSplineSet
EndChar

StartChar: sheenmedial
Encoding: 65208 65208 120
Width: 1057
GlyphClass: 2
Flags: MW
AnchorPoint: "ArabicBelow" 648 -180 basechar 0
AnchorPoint: "ArabicAbove" 648 1020 basechar 0
LayerCount: 2
Fore
SplineSet
751 795 m 1,0,-1
 665 722 l 1,1,-1
 579 794 l 1,2,-1
 664 874 l 1,3,-1
 751 795 l 1,0,-1
892 655 m 1,4,-1
 868 624 l 2,5,6
 854.133 606.667 854.133 606.667 838 592 c 2,7,-1
 805 558 l 1,8,-1
 665 633 l 1,9,-1
 637 605 l 1,10,-1
 588 563 l 1,11,-1
 574 567 l 1,12,-1
 558 573 l 1,13,-1
 524 590 l 1,14,-1
 489 610 l 1,15,-1
 461 630 l 1,16,-1
 513 685 l 1,17,-1
 551 720 l 1,18,-1
 616 679 l 2,19,20
 663 657 663 657 679 654 c 1,21,22
 690 657 690 657 721 687 c 2,23,-1
 764 726 l 1,24,-1
 892 655 l 1,4,-1
988 200 m 1,25,26
 988 180 988 180 1012 180 c 2,27,-1
 1057 180 l 1,28,-1
 1057 0 l 1,29,-1
 997 0 l 1,30,-1
 954 57 l 1,31,-1
 940 26 l 1,32,-1
 926 0 l 1,33,-1
 696 0 l 1,34,-1
 681 24 l 2,35,36
 671 45 671 45 666 46 c 1,37,-1
 650 30 l 1,38,-1
 625 0 l 1,39,-1
 303 0 l 2,40,41
 287 0 287 0 271 31 c 1,42,-1
 261 62 l 1,43,-1
 212 16 l 1,44,-1
 191 5 l 1,45,-1
 172 0 l 1,46,-1
 0 0 l 1,47,-1
 0 180 l 1,48,-1
 225 180 l 2,49,50
 243 180 243 180 264 205 c 1,51,-1
 273 233 l 1,52,-1
 278 257 l 1,53,-1
 279 283 l 1,54,-1
 279 301 l 1,55,-1
 401 447 l 1,56,-1
 401 434 l 1,57,-1
 399 415 l 2,58,59
 399 394 399 394 395 382 c 1,60,-1
 395 363 l 1,61,-1
 390 343 l 1,62,63
 389 333 389 333 377 305 c 2,64,-1
 338 202 l 1,65,-1
 340 200 l 1,66,-1
 396 183 l 1,67,-1
 456 180 l 1,68,-1
 505 178 l 1,69,-1
 554 179 l 1,70,-1
 597 180 l 1,71,-1
 606 180 l 1,72,-1
 639 181 l 2,73,74
 658 181 658 181 668 185 c 1,75,-1
 664 214 l 1,76,-1
 664 237 l 1,77,-1
 662 250 l 1,78,79
 662 274 662 274 667 287 c 1,80,-1
 725 352 l 2,81,82
 779 408 779 408 798 424 c 1,83,-1
 767 311 l 2,84,85
 748 214 748 214 748.03 201.28 c 128,-1,86
 748.061 188.561 748.061 188.561 751 180 c 1,87,-1
 920 180 l 1,88,-1
 920 192 l 1,89,-1
 918 224 l 2,90,91
 912 273 912 273 896 295 c 1,92,93
 898.026 307.357 898.026 307.357 907 319 c 2,94,-1
 953 385 l 1,95,-1
 975 414 l 1,96,-1
 1009 452 l 1,97,-1
 1009 321 l 1,98,-1
 1007 313 l 1,99,100
 1007 300 1007 300 1001 279 c 2,101,-1
 988 200 l 1,25,26
EndSplineSet
EndChar

StartChar: sadisolated
Encoding: 65209 65209 121
Width: 1910
GlyphClass: 2
Flags: MW
AnchorPoint: "ArabicBelow" 1236 -240 basechar 0
AnchorPoint: "ArabicAbove" 1284 648 basechar 0
LayerCount: 2
Fore
SplineSet
1823 294 m 0,0,1
 1823 275 1823 275 1802 236 c 2,2,-1
 1774 172 l 2,3,4
 1758 116 1758 116 1738 76 c 0,5,6
 1709 3 1709 3 1687 0 c 2,7,-1
 836 0 l 1,8,-1
 836 -11 l 2,9,10
 836 -24 836 -24 808 -90 c 0,11,12
 767.843 -184.655 767.843 -184.655 725.922 -232.327 c 128,-1,13
 684 -280 684 -280 576 -318.5 c 128,-1,14
 468 -357 468 -357 401 -357 c 0,15,16
 266 -357 266 -357 177 -303 c 128,-1,17
 88 -249 88 -249 88 -139 c 0,18,19
 88 -8.18182 88 -8.18182 147.5 132.909 c 128,-1,20
 207 274 207 274 244 274 c 1,21,-1
 251 265 l 1,22,-1
 199 127 l 1,23,-1
 180 69 l 2,24,25
 175 46 175 46 175 25 c 0,26,27
 175 -84 175 -84 281 -145 c 0,28,29
 316 -163 316 -163 354 -171 c 2,30,-1
 392 -178 l 1,31,-1
 433 -181 l 1,32,-1
 449 -181 l 1,33,-1
 468 -179 l 1,34,-1
 504 -172 l 1,35,-1
 554 -160 l 2,36,37
 578.962 -155.462 578.962 -155.462 607 -143 c 0,38,39
 734 -102 734 -102 756 -62 c 1,40,41
 756 -11 756 -11 737 48 c 0,42,43
 710 146 710 146 653 221 c 1,44,-1
 701 304 l 1,45,-1
 751 382 l 1,46,-1
 831 241 l 2,47,48
 871 180 871 180 925 180 c 2,49,-1
 952 180 l 2,50,51
 1005 180 1005 180 1080 220 c 2,52,-1
 1389 424 l 2,53,54
 1448 461 1448 461 1505 490 c 2,55,-1
 1546 506 l 1,56,-1
 1579 512 l 1,57,58
 1645 512 1645 512 1734 431.5 c 128,-1,59
 1823 351 1823 351 1823 294 c 0,0,1
1606 183 m 2,60,61
 1611 183 1611 183 1628 186 c 128,-1,62
 1645 189 1645 189 1656.5 197 c 128,-1,63
 1668 205 1668 205 1671 218 c 1,64,65
 1671 250 1671 250 1595.5 300 c 128,-1,66
 1520 350 1520 350 1475 350 c 128,-1,67
 1430 350 1430 350 1352 298 c 2,68,-1
 1153 180 l 1,69,-1
 1591 183 l 1,70,-1
 1606 183 l 2,60,61
EndSplineSet
EndChar

StartChar: sadfinal
Encoding: 65210 65210 122
Width: 1859
GlyphClass: 2
Flags: MW
AnchorPoint: "ArabicBelow" 1296 -216 basechar 0
AnchorPoint: "ArabicAbove" 1380 720 basechar 0
LayerCount: 2
Fore
SplineSet
1860 0 m 1,0,-1
 836 0 l 1,1,-1
 836 -11 l 2,2,3
 836 -28 836 -28 806.5 -105 c 128,-1,4
 777 -182 777 -182 731 -228 c 0,5,6
 684 -267 684 -267 568 -312 c 128,-1,7
 452 -357 452 -357 401 -357 c 0,8,9
 266 -357 266 -357 177 -303 c 128,-1,10
 88 -249 88 -249 88 -139 c 0,11,12
 88 -8.18182 88 -8.18182 147.5 132.909 c 128,-1,13
 207 274 207 274 244 274 c 1,14,-1
 251 265 l 1,15,-1
 199 127 l 1,16,-1
 180 69 l 2,17,18
 175 46 175 46 175 25 c 0,19,20
 175 -84 175 -84 281 -145 c 0,21,22
 316 -163 316 -163 354 -171 c 2,23,-1
 392 -178 l 1,24,-1
 433 -181 l 1,25,-1
 449 -181 l 1,26,-1
 468 -179 l 1,27,-1
 504 -172 l 1,28,-1
 554 -160 l 2,29,30
 578.962 -155.462 578.962 -155.462 607 -143 c 0,31,32
 734 -102 734 -102 756 -62 c 1,33,34
 756 -11 756 -11 737 48 c 0,35,36
 710 146 710 146 653 221 c 1,37,-1
 701 304 l 1,38,-1
 751 382 l 1,39,-1
 831 241 l 2,40,41
 871 180 871 180 925 180 c 2,42,-1
 951 180 l 2,43,44
 1022.03 180 1022.03 180 1107 236 c 2,45,-1
 1388 424 l 2,46,47
 1526 512 1526 512 1585 512 c 128,-1,48
 1644 512 1644 512 1732.5 432.5 c 128,-1,49
 1821 353 1821 353 1821 294 c 1,50,-1
 1818 286 l 1,51,-1
 1760 196 l 1,52,-1
 1753 180 l 1,53,-1
 1860 180 l 1,54,-1
 1860 0 l 1,0,-1
1618 187 m 2,55,56
 1631 189 1631 189 1640 196 c 128,-1,57
 1649 203 1649 203 1654 220 c 1,58,59
 1654 247 1654 247 1585.5 298.5 c 128,-1,60
 1517 350 1517 350 1475 350 c 2,61,-1
 1442 347 l 2,62,63
 1434 347 1434 347 1426 344 c 2,64,-1
 1409 338 l 2,65,66
 1380 327 1380 327 1334 298 c 2,67,-1
 1230 233 l 1,68,-1
 1134 183 l 1,69,-1
 1593 183 l 1,70,-1
 1618 187 l 2,55,56
EndSplineSet
EndChar

StartChar: sadinitial
Encoding: 65211 65211 123
Width: 1430
GlyphClass: 2
Flags: MW
AnchorPoint: "ArabicBelow" 744 -204 basechar 0
AnchorPoint: "ArabicAbove" 876 720 basechar 0
LayerCount: 2
Fore
SplineSet
0 180 m 1,0,-1
 265 180 l 1,1,-1
 241 307 l 1,2,3
 245 321 245 321 293 379 c 2,4,-1
 362 466 l 1,5,-1
 375 241 l 2,6,7
 375 216 375 216 391 195 c 1,8,9
 409 180 409 180 431 180 c 2,10,-1
 459 180 l 1,11,-1
 484 181 l 1,12,13
 526.561 189.512 526.561 189.512 578 222 c 2,14,-1
 680 287 l 1,15,-1
 896 437 l 2,16,17
 1034 526 1034 526 1092 526 c 128,-1,18
 1150 526 1150 526 1246.5 445 c 128,-1,19
 1343 364 1343 364 1343 302 c 1,20,-1
 1274 139 l 2,21,22
 1240 68 1240 68 1219 39 c 0,23,24
 1199 6 1199 6 1167 0 c 1,25,-1
 304 0 l 2,26,27
 295 0 295 0 282 24 c 1,28,-1
 265 105 l 1,29,-1
 201 0 l 1,30,-1
 0 0 l 1,31,-1
 0 180 l 1,0,-1
1165 202 m 1,32,33
 1170 205 1170 205 1178 224 c 1,34,35
 1178 253 1178 253 1129 288 c 128,-1,36
 1080 323 1080 323 1051 335 c 2,37,-1
 1030 342 l 1,38,-1
 1018 344 l 1,39,-1
 1002 346 l 2,40,41
 943 346 943 346 891 319 c 2,42,-1
 757 237 l 1,43,-1
 657 180 l 1,44,-1
 1091 180 l 2,45,46
 1140 180 1140 180 1165 202 c 1,32,33
EndSplineSet
EndChar

StartChar: sadmedial
Encoding: 65212 65212 124
Width: 1364
GlyphClass: 2
Flags: MW
AnchorPoint: "ArabicBelow" 756 -192 basechar 0
AnchorPoint: "ArabicAbove" 948 684 basechar 0
LayerCount: 2
Fore
SplineSet
0 180 m 1,0,-1
 252 180 l 1,1,-1
 229 307 l 1,2,3
 233 321 233 321 280 379 c 2,4,-1
 350 466 l 1,5,-1
 363 241 l 2,6,7
 363 216 363 216 379 195 c 1,8,-1
 397 184 l 1,9,-1
 419 180 l 1,10,-1
 446 180 l 1,11,-1
 472 181 l 1,12,13
 512.556 189.111 512.556 189.111 566 222 c 2,14,-1
 668 287 l 1,15,-1
 883 437 l 2,16,17
 1022 526 1022 526 1080 526 c 128,-1,18
 1138 526 1138 526 1234.5 444 c 128,-1,19
 1331 362 1331 362 1331 302 c 1,20,-1
 1327 294 l 1,21,22
 1323 279 1323 279 1315 272 c 1,23,-1
 1270 198 l 1,24,-1
 1264 180 l 1,25,-1
 1365 180 l 1,26,-1
 1365 0 l 1,27,-1
 292 0 l 2,28,29
 283 0 283 0 270 24 c 1,30,-1
 252 105 l 1,31,-1
 189 0 l 1,32,-1
 0 0 l 1,33,-1
 0 180 l 1,0,-1
1078 180 m 2,34,35
 1157.24 180 1157.24 180 1165 224 c 1,36,37
 1165 253 1165 253 1116.5 288 c 128,-1,38
 1068 323 1068 323 1039 335 c 2,39,-1
 1018 342 l 1,40,-1
 1005 344 l 1,41,-1
 990 346 l 2,42,43
 933 346 933 346 879 319 c 2,44,-1
 745 237 l 1,45,-1
 644 180 l 1,46,-1
 1078 180 l 2,34,35
EndSplineSet
EndChar

StartChar: dadisolated
Encoding: 65213 65213 125
Width: 1910
GlyphClass: 2
Flags: MW
AnchorPoint: "ArabicBelow" 1200 -168 basechar 0
AnchorPoint: "ArabicAbove" 1284 1008 basechar 0
LayerCount: 2
Fore
SplineSet
1427 739 m 1,0,1
 1427 730 1427 730 1375 689.5 c 128,-1,2
 1323 649 1323 649 1310 646 c 1,3,-1
 1294 655 l 1,4,-1
 1252 687 l 2,5,6
 1206 726 1206 726 1199 737 c 1,7,8
 1199 744 1199 744 1248.5 790 c 128,-1,9
 1298 836 1298 836 1310 843 c 1,10,-1
 1371 794 l 2,11,12
 1424 749 1424 749 1427 739 c 1,0,1
1823 294 m 0,13,14
 1823 275 1823 275 1802 236 c 2,15,-1
 1774 172 l 2,16,17
 1758 116 1758 116 1738 76 c 0,18,19
 1709 3 1709 3 1687 0 c 2,20,-1
 836 0 l 1,21,-1
 836 -11 l 2,22,23
 836 -24 836 -24 808 -90 c 0,24,25
 767.843 -184.655 767.843 -184.655 725.922 -232.327 c 128,-1,26
 684 -280 684 -280 576 -318.5 c 128,-1,27
 468 -357 468 -357 401 -357 c 0,28,29
 266 -357 266 -357 177 -303 c 128,-1,30
 88 -249 88 -249 88 -139 c 0,31,32
 88 -8.18182 88 -8.18182 147.5 132.909 c 128,-1,33
 207 274 207 274 244 274 c 1,34,-1
 251 265 l 1,35,-1
 199 127 l 1,36,-1
 180 69 l 2,37,38
 175 46 175 46 175 25 c 0,39,40
 175 -84 175 -84 281 -145 c 0,41,42
 316 -163 316 -163 354 -171 c 2,43,-1
 392 -178 l 1,44,-1
 433 -181 l 1,45,-1
 449 -181 l 1,46,-1
 468 -179 l 1,47,-1
 504 -172 l 1,48,-1
 554 -160 l 2,49,50
 578.962 -155.462 578.962 -155.462 607 -143 c 0,51,52
 734 -102 734 -102 756 -62 c 1,53,54
 756 -11 756 -11 737 48 c 0,55,56
 710 146 710 146 653 221 c 1,57,-1
 701 304 l 1,58,-1
 751 382 l 1,59,-1
 831 241 l 2,60,61
 871 180 871 180 925 180 c 2,62,-1
 952 180 l 2,63,64
 1005 180 1005 180 1080 220 c 2,65,-1
 1389 424 l 2,66,67
 1448 461 1448 461 1505 490 c 2,68,-1
 1546 506 l 1,69,-1
 1579 512 l 1,70,71
 1645 512 1645 512 1734 431.5 c 128,-1,72
 1823 351 1823 351 1823 294 c 0,13,14
1606 183 m 2,73,74
 1611 183 1611 183 1628 186 c 128,-1,75
 1645 189 1645 189 1656.5 197 c 128,-1,76
 1668 205 1668 205 1671 218 c 1,77,78
 1671 250 1671 250 1595.5 300 c 128,-1,79
 1520 350 1520 350 1475 350 c 128,-1,80
 1430 350 1430 350 1352 298 c 2,81,-1
 1153 180 l 1,82,-1
 1591 183 l 1,83,-1
 1606 183 l 2,73,74
EndSplineSet
EndChar

StartChar: dadfinal
Encoding: 65214 65214 126
Width: 1859
GlyphClass: 2
Flags: MW
AnchorPoint: "ArabicBelow" 1260 -204 basechar 0
AnchorPoint: "ArabicAbove" 1260 984 basechar 0
LayerCount: 2
Fore
SplineSet
1397 739 m 1,0,1
 1397 727 1397 727 1345.5 686.5 c 128,-1,2
 1294 646 1294 646 1278 646 c 1,3,-1
 1240 672 l 2,4,5
 1169 730 1169 730 1169 737.5 c 128,-1,6
 1169 745 1169 745 1218 792.5 c 128,-1,7
 1267 840 1267 840 1278 843 c 1,8,-1
 1340 794 l 2,9,10
 1393 749 1393 749 1397 739 c 1,0,1
1860 0 m 1,11,-1
 836 0 l 1,12,-1
 836 -11 l 2,13,14
 836 -28 836 -28 806.5 -105 c 128,-1,15
 777 -182 777 -182 731 -228 c 0,16,17
 684 -267 684 -267 568 -312 c 128,-1,18
 452 -357 452 -357 401 -357 c 0,19,20
 266 -357 266 -357 177 -303 c 128,-1,21
 88 -249 88 -249 88 -139 c 0,22,23
 88 -8.18182 88 -8.18182 147.5 132.909 c 128,-1,24
 207 274 207 274 244 274 c 1,25,-1
 251 265 l 1,26,-1
 199 127 l 1,27,-1
 180 69 l 2,28,29
 175 46 175 46 175 25 c 0,30,31
 175 -84 175 -84 281 -145 c 0,32,33
 316 -163 316 -163 354 -171 c 2,34,-1
 392 -178 l 1,35,-1
 433 -181 l 1,36,-1
 449 -181 l 1,37,-1
 468 -179 l 1,38,-1
 504 -172 l 1,39,-1
 554 -160 l 2,40,41
 578.962 -155.462 578.962 -155.462 607 -143 c 0,42,43
 734 -102 734 -102 756 -62 c 1,44,45
 756 -11 756 -11 737 48 c 0,46,47
 710 146 710 146 653 221 c 1,48,-1
 701 304 l 1,49,-1
 751 382 l 1,50,-1
 831 241 l 2,51,52
 871 180 871 180 925 180 c 2,53,-1
 951 180 l 2,54,55
 1022.03 180 1022.03 180 1107 236 c 2,56,-1
 1388 424 l 2,57,58
 1526 512 1526 512 1585 512 c 128,-1,59
 1644 512 1644 512 1732.5 432.5 c 128,-1,60
 1821 353 1821 353 1821 294 c 1,61,-1
 1818 286 l 1,62,-1
 1760 196 l 1,63,-1
 1753 180 l 1,64,-1
 1860 180 l 1,65,-1
 1860 0 l 1,11,-1
1618 187 m 2,66,67
 1631 189 1631 189 1640 196 c 128,-1,68
 1649 203 1649 203 1654 220 c 1,69,70
 1654 247 1654 247 1585.5 298.5 c 128,-1,71
 1517 350 1517 350 1475 350 c 2,72,-1
 1442 347 l 2,73,74
 1434 347 1434 347 1426 344 c 2,75,-1
 1409 338 l 2,76,77
 1380 327 1380 327 1334 298 c 2,78,-1
 1230 233 l 1,79,-1
 1132 180 l 1,80,-1
 1575 183 l 1,81,-1
 1593 183 l 1,82,-1
 1618 187 l 2,66,67
EndSplineSet
EndChar

StartChar: dadinitial
Encoding: 65215 65215 127
Width: 1430
GlyphClass: 2
Flags: MW
AnchorPoint: "ArabicBelow" 720 -192 basechar 0
AnchorPoint: "ArabicAbove" 744 972 basechar 0
LayerCount: 2
Fore
SplineSet
874 739 m 1,0,1
 874 731 874 731 829.5 694 c 128,-1,2
 785 657 785 657 758 646 c 1,3,-1
 717 672 l 2,4,5
 652 721 652 721 647 737 c 1,6,7
 647 748 647 748 694.5 793 c 128,-1,8
 742 838 742 838 758 843 c 1,9,-1
 817 795 l 2,10,11
 868 751 868 751 874 739 c 1,0,1
0 180 m 1,12,-1
 265 180 l 1,13,-1
 241 307 l 1,14,15
 245 321 245 321 293 379 c 2,16,-1
 362 466 l 1,17,-1
 375 241 l 2,18,19
 375 216 375 216 391 195 c 1,20,21
 409 180 409 180 431 180 c 2,22,-1
 459 180 l 1,23,-1
 484 181 l 1,24,25
 526.561 189.512 526.561 189.512 578 222 c 2,26,-1
 680 287 l 1,27,-1
 896 437 l 2,28,29
 1034 526 1034 526 1092 526 c 128,-1,30
 1150 526 1150 526 1246.5 445 c 128,-1,31
 1343 364 1343 364 1343 302 c 1,32,-1
 1274 139 l 2,33,34
 1240 68 1240 68 1219 39 c 0,35,36
 1199 6 1199 6 1167 0 c 1,37,-1
 304 0 l 2,38,39
 295 0 295 0 282 24 c 1,40,-1
 265 105 l 1,41,-1
 201 0 l 1,42,-1
 0 0 l 1,43,-1
 0 180 l 1,12,-1
1165 202 m 1,44,45
 1170 205 1170 205 1178 224 c 1,46,47
 1178 253 1178 253 1129 288 c 128,-1,48
 1080 323 1080 323 1051 335 c 2,49,-1
 1030 342 l 1,50,-1
 1018 344 l 1,51,-1
 1002 346 l 2,52,53
 943 346 943 346 891 319 c 2,54,-1
 757 237 l 1,55,-1
 657 180 l 1,56,-1
 1091 180 l 2,57,58
 1140 180 1140 180 1165 202 c 1,44,45
EndSplineSet
EndChar

StartChar: dadmedial
Encoding: 65216 65216 128
Width: 1369
GlyphClass: 2
Flags: MW
AnchorPoint: "ArabicBelow" 804 -192 basechar 0
AnchorPoint: "ArabicAbove" 732 912 basechar 0
LayerCount: 2
Fore
SplineSet
870 680 m 1,0,1
 870 671 870 671 820 632 c 128,-1,2
 770 593 770 593 762 593 c 128,-1,3
 754 593 754 593 707 632 c 128,-1,4
 660 671 660 671 655 679 c 1,5,6
 655 686 655 686 702.5 731 c 128,-1,7
 750 776 750 776 759 779 c 1,8,-1
 774 768 l 2,9,10
 790 758 790 758 827.5 725.5 c 128,-1,11
 865 693 865 693 870 680 c 1,0,1
0 180 m 1,12,-1
 252 180 l 1,13,-1
 229 307 l 1,14,15
 233 321 233 321 280 379 c 2,16,-1
 350 466 l 1,17,-1
 363 241 l 2,18,19
 363 216 363 216 379 195 c 1,20,-1
 397 184 l 1,21,-1
 419 180 l 1,22,-1
 446 180 l 1,23,-1
 472 181 l 1,24,25
 512.556 189.111 512.556 189.111 566 222 c 2,26,-1
 668 287 l 1,27,-1
 883 437 l 2,28,29
 1022 526 1022 526 1080 526 c 128,-1,30
 1138 526 1138 526 1234.5 444 c 128,-1,31
 1331 362 1331 362 1331 302 c 1,32,-1
 1327 294 l 1,33,34
 1323 279 1323 279 1315 272 c 1,35,-1
 1270 198 l 1,36,-1
 1264 180 l 1,37,-1
 1369 180 l 1,38,-1
 1369 0 l 1,39,-1
 292 0 l 2,40,41
 283 0 283 0 270 24 c 1,42,-1
 252 105 l 1,43,-1
 189 0 l 1,44,-1
 0 0 l 1,45,-1
 0 180 l 1,12,-1
1078 180 m 2,46,47
 1157.24 180 1157.24 180 1165 224 c 1,48,49
 1165 253 1165 253 1116.5 288 c 128,-1,50
 1068 323 1068 323 1039 335 c 2,51,-1
 1018 342 l 1,52,-1
 1005 344 l 1,53,-1
 990 346 l 2,54,55
 933 346 933 346 879 319 c 2,56,-1
 745 237 l 1,57,-1
 644 180 l 1,58,-1
 1078 180 l 2,46,47
EndSplineSet
EndChar

StartChar: tahisolated
Encoding: 65217 65217 129
Width: 1460
GlyphClass: 2
Flags: MW
AnchorPoint: "ArabicBelow" 852 -180 basechar 0
AnchorPoint: "ArabicAbove" 1044 696 basechar 0
LayerCount: 2
Fore
SplineSet
179 409 m 1,0,1
 186.186 405.482 186.186 405.482 191 398 c 1,2,-1
 175 341 l 1,3,-1
 169 318 l 1,4,-1
 166 292 l 2,5,6
 166 248 166 248 198 211 c 0,7,8
 233 180 233 180 291 180 c 2,9,-1
 495 180 l 2,10,11
 512 180 512 180 535 195.5 c 128,-1,12
 558 211 558 211 564 242 c 1,13,14
 564 263 564 263 556 330 c 2,15,-1
 530 509 l 2,16,17
 499 731 499 731 486 752 c 1,18,-1
 460 783 l 1,19,-1
 454 813 l 1,20,21
 454 826 454 826 501 894 c 128,-1,22
 548 962 548 962 556 963 c 1,23,24
 565.6 921.4 565.6 921.4 606 881 c 2,25,-1
 638 852 l 1,26,-1
 688 820 l 1,27,-1
 751 788 l 1,28,-1
 704 693 l 2,29,30
 673 641 673 641 638 641 c 2,31,-1
 628 641 l 1,32,-1
 641 546 l 2,33,34
 654 446 654 446 654 417.5 c 128,-1,35
 654 389 654 389 642 332 c 128,-1,36
 630 275 630 275 616 236 c 1,37,38
 628 238 628 238 642 248 c 2,39,-1
 684 274 l 2,40,41
 813 359 813 359 854 378 c 2,42,-1
 976 437 l 2,43,44
 1089 490 1089 490 1136.5 490 c 128,-1,45
 1184 490 1184 490 1278.5 415.5 c 128,-1,46
 1373 341 1373 341 1373 267 c 1,47,-1
 1314 134 l 2,48,49
 1251 3 1251 3 1225 0 c 2,50,-1
 285 0 l 2,51,52
 203 0 203 0 145.5 47.5 c 128,-1,53
 88 95 88 95 88 171 c 2,54,-1
 89 219 l 2,55,56
 91 234 91 234 91 238 c 128,-1,57
 91 242 91 242 94.5 259.5 c 0,58,59
 102.103 297.517 102.103 297.517 119 333 c 0,60,61
 149 409 149 409 179 409 c 1,0,1
1162 180 m 2,62,63
 1199 180 1199 180 1204 200 c 1,64,65
 1204 227 1204 227 1154.5 278.5 c 128,-1,66
 1105 330 1105 330 1030 330 c 128,-1,67
 955 330 955 330 846 278 c 2,68,-1
 708 195 l 1,69,-1
 680 180 l 1,70,-1
 1162 180 l 2,62,63
EndSplineSet
EndChar

StartChar: tahfinal
Encoding: 65218 65218 130
Width: 1427
GlyphClass: 2
Flags: MW
AnchorPoint: "ArabicBelow" 936 -192 basechar 0
AnchorPoint: "ArabicAbove" 1068 744 basechar 0
LayerCount: 2
Fore
SplineSet
179 409 m 1,0,1
 186.186 405.482 186.186 405.482 191 398 c 1,2,-1
 175 341 l 1,3,-1
 169 318 l 1,4,-1
 166 292 l 2,5,6
 166 248 166 248 198 211 c 0,7,8
 233 180 233 180 291 180 c 2,9,-1
 495 180 l 2,10,11
 512 180 512 180 535 195.5 c 128,-1,12
 558 211 558 211 564 242 c 1,13,-1
 562 284 l 1,14,-1
 556 324 l 1,15,-1
 543 416 l 1,16,-1
 539 448 l 1,17,-1
 531 489 l 2,18,19
 499 699 499 699 483 723 c 2,20,-1
 456 754 l 1,21,-1
 450 783 l 1,22,23
 450 794 450 794 497.5 862.5 c 128,-1,24
 545 931 545 931 556 934 c 1,25,-1
 559 920 l 1,26,27
 590.367 847.524 590.367 847.524 688 791 c 2,28,-1
 751 758 l 1,29,-1
 704 664 l 2,30,31
 673 611 673 611 638 611 c 2,32,-1
 628 611 l 1,33,-1
 641 531 l 2,34,35
 654 447 654 447 654 418 c 128,-1,36
 654 389 654 389 642 332 c 128,-1,37
 630 275 630 275 616 236 c 1,38,39
 628 238 628 238 642 248 c 2,40,-1
 684 274 l 2,41,42
 813 359 813 359 854 378 c 2,43,-1
 976 437 l 2,44,45
 1089 490 1089 490 1136.5 490 c 128,-1,46
 1184 490 1184 490 1278.5 415.5 c 128,-1,47
 1373 341 1373 341 1373 267 c 1,48,-1
 1334 180 l 1,49,-1
 1427 180 l 1,50,-1
 1427 0 l 1,51,-1
 285 0 l 2,52,53
 203 0 203 0 145.5 47.5 c 128,-1,54
 88 95 88 95 88 171 c 2,55,-1
 89 219 l 2,56,57
 91 234 91 234 91 238 c 128,-1,58
 91 242 91 242 94.5 259.5 c 0,59,60
 102.103 297.517 102.103 297.517 119 333 c 0,61,62
 149 409 149 409 179 409 c 1,0,1
1162 180 m 2,63,64
 1199 180 1199 180 1204 200 c 1,65,66
 1204 227 1204 227 1154.5 278.5 c 128,-1,67
 1105 330 1105 330 1030 330 c 128,-1,68
 955 330 955 330 846 278 c 2,69,-1
 708 195 l 1,70,-1
 680 180 l 1,71,-1
 1162 180 l 2,63,64
EndSplineSet
EndChar

StartChar: tahinitial
Encoding: 65219 65219 131
Width: 1186
GlyphClass: 2
Flags: MW
AnchorPoint: "ArabicBelow" 564 -228 basechar 0
AnchorPoint: "ArabicAbove" 792 744 basechar 0
LayerCount: 2
Fore
SplineSet
1099 267 m 1,0,1
 989.214 4.58568 989.214 4.58568 951 0 c 2,2,-1
 0 0 l 1,3,-1
 0 180 l 1,4,-1
 221 180 l 2,5,6
 239 180 239 180 264.5 196.5 c 128,-1,7
 290 213 290 213 290 242 c 256,8,9
 290 288.933 290 288.933 258 493.467 c 128,-1,10
 226 698 226 698 212 723 c 1,11,-1
 185 754 l 1,12,-1
 179 783 l 1,13,14
 179 795 179 795 224 861.5 c 128,-1,15
 269 928 269 928 283 934 c 1,16,17
 283 923 283 923 285 921 c 1,18,19
 293 886 293 886 323 857 c 128,-1,20
 353 828 353 828 413 791 c 2,21,-1
 478 758 l 1,22,-1
 431 664 l 2,23,24
 399 611 399 611 364 611 c 2,25,-1
 353 611 l 1,26,-1
 367 531 l 2,27,28
 381 447 381 447 381 418 c 128,-1,29
 381 389 381 389 367 335 c 2,30,-1
 351 265 l 1,31,-1
 342 236 l 1,32,-1
 368 247 l 1,33,-1
 517 342 l 1,34,-1
 552 363 l 1,35,-1
 702 437 l 2,36,37
 815 490 815 490 862.5 490 c 128,-1,38
 910 490 910 490 1004.5 415.5 c 128,-1,39
 1099 341 1099 341 1099 267 c 1,0,1
888 180 m 2,40,41
 926 180 926 180 931 200 c 1,42,43
 931 221 931 221 886 273 c 0,44,45
 831 330 831 330 754.5 330 c 128,-1,46
 678 330 678 330 572 278 c 2,47,-1
 407 180 l 1,48,-1
 888 180 l 2,40,41
EndSplineSet
EndChar

StartChar: tahmedial
Encoding: 65220 65220 132
Width: 1165
GlyphClass: 2
Flags: MW
AnchorPoint: "ArabicBelow" 672 -216 basechar 0
AnchorPoint: "ArabicAbove" 828 756 basechar 0
LayerCount: 2
Fore
SplineSet
0 180 m 1,0,-1
 233 180 l 2,1,2
 250 180 250 180 273 195.5 c 128,-1,3
 296 211 296 211 302 242 c 1,4,5
 302 260 302 260 294 325 c 2,6,-1
 268 493 l 2,7,8
 239 700 239 700 224 723 c 2,9,-1
 198 754 l 1,10,-1
 192 783 l 1,11,12
 192 799 192 799 236.5 864.5 c 128,-1,13
 281 930 281 930 294 934 c 1,14,15
 294 923 294 923 296 921 c 1,16,17
 306 886 306 886 335.5 857 c 128,-1,18
 365 828 365 828 425 791 c 2,19,-1
 490 758 l 1,20,-1
 454 685 l 1,21,-1
 442 664 l 2,22,23
 411 611 411 611 376 611 c 2,24,-1
 366 611 l 1,25,-1
 379 531 l 2,26,27
 392 447 392 447 392 418 c 128,-1,28
 392 389 392 389 379 335 c 2,29,-1
 353 236 l 1,30,31
 364 238 364 238 380 247 c 2,32,-1
 422 274 l 2,33,34
 551 359 551 359 592 378 c 2,35,-1
 714 437 l 2,36,37
 827 490 827 490 874.5 490 c 128,-1,38
 922 490 922 490 1016.5 415.5 c 128,-1,39
 1111 341 1111 341 1111 267 c 1,40,-1
 1072 180 l 1,41,-1
 1165 180 l 1,42,-1
 1165 0 l 1,43,-1
 0 0 l 1,44,-1
 0 180 l 1,0,-1
900 180 m 2,45,46
 938.667 180 938.667 180 942 200 c 1,47,48
 942 227 942 227 892.5 278.5 c 128,-1,49
 843 330 843 330 768 330 c 128,-1,50
 693 330 693 330 584 278 c 2,51,-1
 446 195 l 1,52,-1
 418 180 l 1,53,-1
 900 180 l 2,45,46
EndSplineSet
EndChar

StartChar: zahisolated
Encoding: 65221 65221 133
Width: 1460
GlyphClass: 2
Flags: MW
AnchorPoint: "ArabicBelow" 900 -180 basechar 0
AnchorPoint: "ArabicAbove" 996 972 basechar 0
LayerCount: 2
Fore
SplineSet
1085 702 m 0,0,1
 1085 693 1085 693 1034 653 c 128,-1,2
 983 613 983 613 972.5 613 c 128,-1,3
 962 613 962 613 912.5 649 c 128,-1,4
 863 685 863 685 858 700 c 1,5,6
 858 712 858 712 907.5 759 c 128,-1,7
 957 806 957 806 969 807 c 1,8,-1
 984 795 l 1,9,10
 992 792 992 792 1003 780 c 2,11,-1
 1028 758 l 2,12,13
 1084 711 1084 711 1085 702 c 0,0,1
179 409 m 1,14,15
 186.186 405.482 186.186 405.482 191 398 c 1,16,-1
 175 341 l 1,17,-1
 169 318 l 1,18,-1
 166 292 l 2,19,20
 166 248 166 248 198 211 c 0,21,22
 233 180 233 180 291 180 c 2,23,-1
 495 180 l 2,24,25
 512 180 512 180 535 195.5 c 128,-1,26
 558 211 558 211 564 242 c 1,27,28
 564 263 564 263 556 330 c 2,29,-1
 530 509 l 2,30,31
 499 731 499 731 486 752 c 1,32,-1
 460 783 l 1,33,-1
 454 813 l 1,34,35
 454 826 454 826 501 894 c 128,-1,36
 548 962 548 962 556 963 c 1,37,38
 565.6 921.4 565.6 921.4 606 881 c 2,39,-1
 638 852 l 1,40,-1
 688 820 l 1,41,-1
 751 788 l 1,42,-1
 704 693 l 2,43,44
 673 641 673 641 638 641 c 2,45,-1
 628 641 l 1,46,-1
 641 546 l 2,47,48
 654 446 654 446 654 417.5 c 128,-1,49
 654 389 654 389 642 332 c 128,-1,50
 630 275 630 275 616 236 c 1,51,52
 628 238 628 238 642 248 c 2,53,-1
 684 274 l 2,54,55
 813 359 813 359 854 378 c 2,56,-1
 976 437 l 2,57,58
 1089 490 1089 490 1136.5 490 c 128,-1,59
 1184 490 1184 490 1278.5 415.5 c 128,-1,60
 1373 341 1373 341 1373 267 c 1,61,-1
 1314 134 l 2,62,63
 1251 3 1251 3 1225 0 c 2,64,-1
 285 0 l 2,65,66
 203 0 203 0 145.5 47.5 c 128,-1,67
 88 95 88 95 88 171 c 2,68,-1
 89 219 l 2,69,70
 91 234 91 234 91 238 c 128,-1,71
 91 242 91 242 94.5 259.5 c 0,72,73
 102.103 297.517 102.103 297.517 119 333 c 0,74,75
 149 409 149 409 179 409 c 1,14,15
1162 180 m 2,76,77
 1199 180 1199 180 1204 200 c 1,78,79
 1204 227 1204 227 1154.5 278.5 c 128,-1,80
 1105 330 1105 330 1030 330 c 128,-1,81
 955 330 955 330 846 278 c 2,82,-1
 708 195 l 1,83,-1
 680 180 l 1,84,-1
 1162 180 l 2,76,77
EndSplineSet
EndChar

